<ttFont>
    <TTGlyph name=".notdef" xMin="0" yMin="0" xMax="500" yMax="700">
      <contour>
        <pt x="0" y="700" on="1"/>
        <pt x="500" y="700" on="1"/>
        <pt x="500" y="0" on="1"/>
        <pt x="0" y="0" on="1"/>
      </contour>
      <contour>
        <pt x="50" y="650" on="1"/>
        <pt x="50" y="50" on="1"/>
        <pt x="450" y="50" on="1"/>
        <pt x="450" y="650" on="1"/>
      </contour>
      <contour>
        <pt x="229" y="278" on="1"/>
        <pt x="229" y="307" on="0"/>
        <pt x="256" y="345" on="0"/>
        <pt x="283" y="367" on="1"/>
        <pt x="311" y="390" on="0"/>
        <pt x="339" y="431" on="0"/>
        <pt x="339" y="465" on="1"/>
        <pt x="339" y="496" on="0"/>
        <pt x="301" y="552" on="0"/>
        <pt x="250" y="552" on="1"/>
        <pt x="192" y="552" on="0"/>
        <pt x="152" y="485" on="0"/>
        <pt x="152" y="452" on="1"/>
        <pt x="152" y="424" on="1"/>
        <pt x="103" y="424" on="1"/>
        <pt x="99" y="444" on="0"/>
        <pt x="99" y="455" on="1"/>
        <pt x="99" y="478" on="0"/>
        <pt x="120" y="544" on="0"/>
        <pt x="187" y="602" on="0"/>
        <pt x="250" y="602" on="1"/>
        <pt x="313" y="602" on="0"/>
        <pt x="376" y="546" on="0"/>
        <pt x="393" y="486" on="0"/>
        <pt x="393" y="467" on="1"/>
        <pt x="393" y="422" on="0"/>
        <pt x="356" y="364" on="0"/>
        <pt x="326" y="338" on="1"/>
        <pt x="304" y="320" on="0"/>
        <pt x="282" y="290" on="0"/>
        <pt x="282" y="268" on="1"/>
        <pt x="282" y="215" on="1"/>
        <pt x="229" y="215" on="1"/>
      </contour>
      <contour>
        <pt x="225" y="169" on="1"/>
        <pt x="285" y="169" on="1"/>
        <pt x="285" y="99" on="1"/>
        <pt x="225" y="99" on="1"/>
      </contour>
    </TTGlyph>
    <TTGlyph name="A" xMin="24" yMin="0" xMax="569" yMax="688">
      <contour>
        <pt x="425" y="188" on="1"/>
        <pt x="165" y="188" on="1"/>
        <pt x="105" y="0" on="1"/>
        <pt x="24" y="0" on="1"/>
        <pt x="244" y="688" on="1"/>
        <pt x="349" y="688" on="1"/>
        <pt x="569" y="0" on="1"/>
        <pt x="486" y="0" on="1"/>
      </contour>
      <contour>
        <pt x="293" y="600" on="1"/>
        <pt x="185" y="259" on="1"/>
        <pt x="404" y="259" on="1"/>
        <pt x="298" y="600" on="1"/>
      </contour>
    </TTGlyph>
    <TTGlyph name="A.ss01" xMin="79" yMin="0" xMax="536" yMax="696">
      <contour>
        <pt x="456" y="242" on="1"/>
        <pt x="159" y="242" on="1"/>
        <pt x="159" y="0" on="1"/>
        <pt x="79" y="0" on="1"/>
        <pt x="79" y="388" on="1"/>
        <pt x="79" y="522" on="0"/>
        <pt x="108" y="645" on="0"/>
        <pt x="203" y="696" on="0"/>
        <pt x="308" y="696" on="1"/>
        <pt x="413" y="696" on="0"/>
        <pt x="507" y="645" on="0"/>
        <pt x="536" y="522" on="0"/>
        <pt x="536" y="388" on="1"/>
        <pt x="536" y="0" on="1"/>
        <pt x="456" y="0" on="1"/>
      </contour>
      <contour>
        <pt x="456" y="516" on="0"/>
        <pt x="439" y="594" on="0"/>
        <pt x="379" y="625" on="0"/>
        <pt x="308" y="625" on="1"/>
        <pt x="236" y="625" on="0"/>
        <pt x="176" y="594" on="0"/>
        <pt x="159" y="516" on="0"/>
        <pt x="159" y="423" on="1"/>
        <pt x="159" y="315" on="1"/>
        <pt x="456" y="315" on="1"/>
        <pt x="456" y="423" on="1"/>
      </contour>
    </TTGlyph>
    <TTGlyph name="AE" xMin="-6" yMin="0" xMax="774" yMax="688">
      <contour>
        <pt x="414" y="188" on="1"/>
        <pt x="154" y="188" on="1"/>
        <pt x="75" y="0" on="1"/>
        <pt x="-6" y="0" on="1"/>
        <pt x="282" y="688" on="1"/>
        <pt x="774" y="688" on="1"/>
        <pt x="774" y="617" on="1"/>
        <pt x="402" y="617" on="1"/>
        <pt x="455" y="383" on="1"/>
        <pt x="734" y="383" on="1"/>
        <pt x="734" y="312" on="1"/>
        <pt x="469" y="312" on="1"/>
        <pt x="524" y="70" on="1"/>
        <pt x="774" y="70" on="1"/>
        <pt x="774" y="0" on="1"/>
        <pt x="456" y="0" on="1"/>
      </contour>
      <contour>
        <pt x="322" y="600" on="1"/>
        <pt x="181" y="259" on="1"/>
        <pt x="400" y="259" on="1"/>
        <pt x="327" y="600" on="1"/>
      </contour>
    </TTGlyph>
    <TTGlyph name="AEacute" xMin="-6" yMin="0" xMax="774" yMax="888">
      <component glyphName="AE" x="0" y="0" flags="0x0"/>
      <component glyphName="acutecomb.case" x="548" y="0" flags="0x0"/>
    </TTGlyph>
    <TTGlyph name="Aacute" xMin="24" yMin="0" xMax="569" yMax="891">
      <component glyphName="A" x="0" y="0" flags="0x0"/>
      <component glyphName="acute" x="238" y="148" flags="0x4"/>
    </TTGlyph>
    <TTGlyph name="Aacute.ss01" xMin="79" yMin="0" xMax="536" yMax="891">
      <component glyphName="A.ss01" x="0" y="0" flags="0x0"/>
      <component glyphName="acute" x="256" y="148" flags="0x4"/>
    </TTGlyph>
    <TTGlyph name="Abreve" xMin="24" yMin="0" xMax="569" yMax="888">
      <component glyphName="A" x="0" y="0" flags="0x0"/>
      <component glyphName="uni0306.case" x="436" y="0" flags="0x0"/>
    </TTGlyph>
    <TTGlyph name="Abreve.ss01" xMin="79" yMin="0" xMax="536" yMax="888">
      <component glyphName="A.ss01" x="0" y="0" flags="0x0"/>
      <component glyphName="uni0306.case" x="447" y="0" flags="0x0"/>
    </TTGlyph>
    <TTGlyph name="Acircumflex" xMin="24" yMin="0" xMax="569" yMax="889">
      <component glyphName="A" x="0" y="0" flags="0x0"/>
      <component glyphName="circumflex" x="151" y="146" flags="0x4"/>
    </TTGlyph>
    <TTGlyph name="Acircumflex.ss01" xMin="79" yMin="0" xMax="536" yMax="888">
      <component glyphName="A.ss01" x="0" y="0" flags="0x0"/>
      <component glyphName="circumflex" x="165" y="145" flags="0x4"/>
    </TTGlyph>
    <TTGlyph name="Adieresis" xMin="24" yMin="0" xMax="569" yMax="854">
      <component glyphName="A" x="0" y="0" flags="0x0"/>
      <component glyphName="dieresis" x="150" y="124" flags="0x4"/>
    </TTGlyph>
    <TTGlyph name="Adieresis.ss01" xMin="79" yMin="0" xMax="536" yMax="852">
      <component glyphName="A.ss01" x="0" y="0" flags="0x0"/>
      <component glyphName="dieresis" x="164" y="122" flags="0x4"/>
    </TTGlyph>
    <TTGlyph name="Agrave" xMin="24" yMin="0" xMax="569" yMax="891">
      <component glyphName="A" x="0" y="0" flags="0x0"/>
      <component glyphName="grave" x="166" y="148" flags="0x4"/>
    </TTGlyph>
    <TTGlyph name="Agrave.ss01" xMin="79" yMin="0" xMax="536" yMax="891">
      <component glyphName="A.ss01" x="0" y="0" flags="0x0"/>
      <component glyphName="grave" x="175" y="148" flags="0x4"/>
    </TTGlyph>
    <TTGlyph name="Amacron" xMin="24" yMin="0" xMax="569" yMax="887">
      <component glyphName="A" x="0" y="0" flags="0x0"/>
      <component glyphName="uni0304.case" x="465" y="0" flags="0x0"/>
    </TTGlyph>
    <TTGlyph name="Amacron.ss01" xMin="79" yMin="0" xMax="536" yMax="887">
      <component glyphName="A.ss01" x="0" y="0" flags="0x0"/>
      <component glyphName="uni0304.case" x="476" y="0" flags="0x0"/>
    </TTGlyph>
    <TTGlyph name="Aogonek" xMin="24" yMin="-196" xMax="569" yMax="688">
      <contour>
        <pt x="493" y="-145" on="0"/>
        <pt x="538" y="-145" on="1"/>
        <pt x="548" y="-145" on="0"/>
        <pt x="555" y="-144" on="1"/>
        <pt x="555" y="-194" on="1"/>
        <pt x="523" y="-196" on="0"/>
        <pt x="518" y="-196" on="1"/>
        <pt x="427" y="-196" on="0"/>
        <pt x="427" y="-119" on="1"/>
        <pt x="427" y="-90" on="0"/>
        <pt x="459" y="-25" on="0"/>
        <pt x="485" y="2" on="1"/>
        <pt x="426" y="188" on="1"/>
        <pt x="164" y="188" on="1"/>
        <pt x="105" y="0" on="1"/>
        <pt x="24" y="0" on="1"/>
        <pt x="244" y="688" on="1"/>
        <pt x="348" y="688" on="1"/>
        <pt x="569" y="0" on="1"/>
        <pt x="549" y="0" on="1"/>
        <pt x="528" y="-19" on="0"/>
        <pt x="493" y="-80" on="0"/>
        <pt x="493" y="-104" on="1"/>
      </contour>
      <contour>
        <pt x="404" y="259" on="1"/>
        <pt x="298" y="600" on="1"/>
        <pt x="292" y="600" on="1"/>
        <pt x="185" y="259" on="1"/>
      </contour>
    </TTGlyph>
    <TTGlyph name="Aogonek.ss01" xMin="79" yMin="-196" xMax="536" yMax="696">
      <contour>
        <pt x="498" y="-20" on="0"/>
        <pt x="463" y="-80" on="0"/>
        <pt x="463" y="-104" on="1"/>
        <pt x="463" y="-145" on="0"/>
        <pt x="509" y="-145" on="1"/>
        <pt x="518" y="-145" on="0"/>
        <pt x="525" y="-144" on="1"/>
        <pt x="525" y="-194" on="1"/>
        <pt x="499" y="-196" on="0"/>
        <pt x="489" y="-196" on="1"/>
        <pt x="398" y="-196" on="0"/>
        <pt x="398" y="-119" on="1"/>
        <pt x="398" y="-90" on="0"/>
        <pt x="430" y="-25" on="0"/>
        <pt x="456" y="2" on="1"/>
        <pt x="456" y="242" on="1"/>
        <pt x="159" y="242" on="1"/>
        <pt x="159" y="0" on="1"/>
        <pt x="79" y="0" on="1"/>
        <pt x="79" y="388" on="1"/>
        <pt x="79" y="522" on="0"/>
        <pt x="108" y="645" on="0"/>
        <pt x="203" y="696" on="0"/>
        <pt x="308" y="696" on="1"/>
        <pt x="413" y="696" on="0"/>
        <pt x="507" y="645" on="0"/>
        <pt x="536" y="522" on="0"/>
        <pt x="536" y="388" on="1"/>
        <pt x="536" y="0" on="1"/>
        <pt x="519" y="0" on="1"/>
      </contour>
      <contour>
        <pt x="456" y="315" on="1"/>
        <pt x="456" y="423" on="1"/>
        <pt x="456" y="516" on="0"/>
        <pt x="439" y="594" on="0"/>
        <pt x="379" y="625" on="0"/>
        <pt x="308" y="625" on="1"/>
        <pt x="236" y="625" on="0"/>
        <pt x="176" y="594" on="0"/>
        <pt x="159" y="516" on="0"/>
        <pt x="159" y="423" on="1"/>
        <pt x="159" y="315" on="1"/>
      </contour>
    </TTGlyph>
    <TTGlyph name="Aring" xMin="24" yMin="0" xMax="569" yMax="873">
      <contour>
        <pt x="569" y="0" on="1"/>
        <pt x="486" y="0" on="1"/>
        <pt x="425" y="188" on="1"/>
        <pt x="165" y="188" on="1"/>
        <pt x="105" y="0" on="1"/>
        <pt x="24" y="0" on="1"/>
        <pt x="239" y="676" on="1"/>
        <pt x="212" y="681" on="0"/>
        <pt x="187" y="704" on="0"/>
        <pt x="180" y="740" on="0"/>
        <pt x="180" y="772" on="1"/>
        <pt x="180" y="813" on="0"/>
        <pt x="193" y="853" on="0"/>
        <pt x="242" y="873" on="0"/>
        <pt x="296" y="873" on="1"/>
        <pt x="350" y="873" on="0"/>
        <pt x="399" y="853" on="0"/>
        <pt x="412" y="813" on="0"/>
        <pt x="412" y="772" on="1"/>
        <pt x="412" y="740" on="0"/>
        <pt x="405" y="704" on="0"/>
        <pt x="380" y="682" on="0"/>
        <pt x="353" y="677" on="1"/>
      </contour>
      <contour>
        <pt x="265" y="831" on="0"/>
        <pt x="239" y="821" on="0"/>
        <pt x="232" y="798" on="0"/>
        <pt x="232" y="772" on="1"/>
        <pt x="232" y="746" on="0"/>
        <pt x="239" y="724" on="0"/>
        <pt x="265" y="714" on="0"/>
        <pt x="296" y="714" on="1"/>
        <pt x="327" y="714" on="0"/>
        <pt x="354" y="724" on="0"/>
        <pt x="360" y="746" on="0"/>
        <pt x="360" y="772" on="1"/>
        <pt x="360" y="798" on="0"/>
        <pt x="354" y="821" on="0"/>
        <pt x="327" y="831" on="0"/>
        <pt x="296" y="831" on="1"/>
      </contour>
      <contour>
        <pt x="404" y="259" on="1"/>
        <pt x="298" y="600" on="1"/>
        <pt x="293" y="600" on="1"/>
        <pt x="185" y="259" on="1"/>
      </contour>
    </TTGlyph>
    <TTGlyph name="Aring.ss01" xMin="79" yMin="0" xMax="536" yMax="942">
      <component glyphName="A.ss01" x="0" y="0" flags="0x0"/>
      <component glyphName="ring" x="176" y="132" flags="0x4"/>
    </TTGlyph>
    <TTGlyph name="Aringacute" xMin="24" yMin="0" xMax="569" yMax="1073">
      <component glyphName="Aring" x="0" y="0" flags="0x0"/>
      <component glyphName="acutecomb.case" x="435" y="185" flags="0x4"/>
    </TTGlyph>
    <TTGlyph name="Aringacute.ss01" xMin="79" yMin="0" xMax="536" yMax="1095">
      <component glyphName="A.ss01" x="0" y="0" flags="0x0"/>
      <component glyphName="uni030A.case" x="441" y="0" flags="0x0"/>
      <component glyphName="acutecomb.case" x="449" y="207" flags="0x4"/>
    </TTGlyph>
    <TTGlyph name="Atilde" xMin="24" yMin="0" xMax="569" yMax="873">
      <component glyphName="A" x="0" y="0" flags="0x0"/>
      <component glyphName="tilde" x="121" y="130" flags="0x4"/>
    </TTGlyph>
    <TTGlyph name="Atilde.ss01" xMin="79" yMin="0" xMax="536" yMax="872">
      <component glyphName="A.ss01" x="0" y="0" flags="0x0"/>
      <component glyphName="tilde" x="133" y="129" flags="0x4"/>
    </TTGlyph>
    <TTGlyph name="B" xMin="86" yMin="0" xMax="530" yMax="688">
      <contour>
        <pt x="86" y="688" on="1"/>
        <pt x="353" y="688" on="1"/>
        <pt x="444" y="688" on="0"/>
        <pt x="523" y="600" on="0"/>
        <pt x="523" y="516" on="1"/>
        <pt x="523" y="446" on="0"/>
        <pt x="472" y="366" on="0"/>
        <pt x="415" y="354" on="1"/>
        <pt x="415" y="350" on="1"/>
        <pt x="481" y="337" on="0"/>
        <pt x="530" y="252" on="0"/>
        <pt x="530" y="181" on="1"/>
        <pt x="530" y="97" on="0"/>
        <pt x="452" y="0" on="0"/>
        <pt x="349" y="0" on="1"/>
        <pt x="86" y="0" on="1"/>
      </contour>
      <contour>
        <pt x="387" y="384" on="0"/>
        <pt x="443" y="440" on="0"/>
        <pt x="443" y="500" on="1"/>
        <pt x="443" y="544" on="0"/>
        <pt x="424" y="594" on="0"/>
        <pt x="375" y="617" on="0"/>
        <pt x="330" y="617" on="1"/>
        <pt x="166" y="617" on="1"/>
        <pt x="166" y="384" on="1"/>
        <pt x="330" y="384" on="1"/>
      </contour>
      <contour>
        <pt x="400" y="70" on="0"/>
        <pt x="449" y="124" on="0"/>
        <pt x="449" y="191" on="1"/>
        <pt x="449" y="258" on="0"/>
        <pt x="398" y="313" on="0"/>
        <pt x="334" y="313" on="1"/>
        <pt x="166" y="313" on="1"/>
        <pt x="166" y="70" on="1"/>
        <pt x="334" y="70" on="1"/>
      </contour>
    </TTGlyph>
    <TTGlyph name="C" xMin="66" yMin="-8" xMax="445" yMax="696">
      <contour>
        <pt x="418" y="-1" on="0"/>
        <pt x="341" y="-8" on="0"/>
        <pt x="306" y="-8" on="1"/>
        <pt x="198" y="-8" on="0"/>
        <pt x="100" y="45" on="0"/>
        <pt x="66" y="188" on="0"/>
        <pt x="66" y="344" on="1"/>
        <pt x="66" y="499" on="0"/>
        <pt x="100" y="642" on="0"/>
        <pt x="199" y="696" on="0"/>
        <pt x="306" y="696" on="1"/>
        <pt x="341" y="696" on="0"/>
        <pt x="418" y="688" on="0"/>
        <pt x="442" y="682" on="1"/>
        <pt x="442" y="616" on="1"/>
        <pt x="384" y="625" on="0"/>
        <pt x="325" y="625" on="1"/>
        <pt x="238" y="625" on="0"/>
        <pt x="168" y="591" on="0"/>
        <pt x="146" y="481" on="0"/>
        <pt x="146" y="344" on="1"/>
        <pt x="146" y="207" on="0"/>
        <pt x="168" y="97" on="0"/>
        <pt x="238" y="63" on="0"/>
        <pt x="325" y="63" on="1"/>
        <pt x="396" y="63" on="0"/>
        <pt x="445" y="72" on="1"/>
        <pt x="445" y="5" on="1"/>
      </contour>
    </TTGlyph>
    <TTGlyph name="Cacute" xMin="66" yMin="-8" xMax="445" yMax="888">
      <component glyphName="C" x="0" y="0" flags="0x0"/>
      <component glyphName="acutecomb.case" x="384" y="0" flags="0x0"/>
    </TTGlyph>
    <TTGlyph name="Cacute.loclPLK" xMin="66" yMin="-8" xMax="445" yMax="888">
      <component glyphName="C" x="0" y="0" flags="0x0"/>
      <component glyphName="acute.case.loclPLK" x="196" y="0" flags="0x0"/>
    </TTGlyph>
    <TTGlyph name="Ccaron" xMin="66" yMin="-8" xMax="445" yMax="888">
      <component glyphName="C" x="0" y="0" flags="0x0"/>
      <component glyphName="uni030C.case" x="389" y="0" flags="0x0"/>
    </TTGlyph>
    <TTGlyph name="Ccedilla" xMin="66" yMin="-190" xMax="445" yMax="696">
      <contour>
        <pt x="396" y="63" on="0"/>
        <pt x="445" y="72" on="1"/>
        <pt x="445" y="5" on="1"/>
        <pt x="418" y="-1" on="0"/>
        <pt x="341" y="-8" on="0"/>
        <pt x="306" y="-8" on="1"/>
        <pt x="281" y="-8" on="0"/>
        <pt x="270" y="-7" on="1"/>
        <pt x="232" y="-190" on="1"/>
        <pt x="157" y="-190" on="1"/>
        <pt x="157" y="-185" on="1"/>
        <pt x="217" y="-3" on="1"/>
        <pt x="152" y="7" on="0"/>
        <pt x="88" y="75" on="0"/>
        <pt x="66" y="213" on="0"/>
        <pt x="66" y="344" on="1"/>
        <pt x="66" y="499" on="0"/>
        <pt x="100" y="642" on="0"/>
        <pt x="199" y="696" on="0"/>
        <pt x="306" y="696" on="1"/>
        <pt x="341" y="696" on="0"/>
        <pt x="418" y="688" on="0"/>
        <pt x="442" y="682" on="1"/>
        <pt x="442" y="616" on="1"/>
        <pt x="384" y="625" on="0"/>
        <pt x="325" y="625" on="1"/>
        <pt x="238" y="625" on="0"/>
        <pt x="168" y="591" on="0"/>
        <pt x="146" y="481" on="0"/>
        <pt x="146" y="344" on="1"/>
        <pt x="146" y="207" on="0"/>
        <pt x="168" y="97" on="0"/>
        <pt x="238" y="63" on="0"/>
        <pt x="325" y="63" on="1"/>
      </contour>
    </TTGlyph>
    <TTGlyph name="Ccircumflex" xMin="66" yMin="-8" xMax="445" yMax="888">
      <component glyphName="C" x="0" y="0" flags="0x0"/>
      <component glyphName="uni0302.case" x="389" y="0" flags="0x0"/>
    </TTGlyph>
    <TTGlyph name="Cdotaccent" xMin="66" yMin="-8" xMax="445" yMax="875">
      <component glyphName="C" x="0" y="0" flags="0x0"/>
      <component glyphName="uni0307.case" x="298" y="0" flags="0x0"/>
    </TTGlyph>
    <TTGlyph name="D" xMin="86" yMin="0" xMax="531" yMax="688">
      <contour>
        <pt x="86" y="688" on="1"/>
        <pt x="278" y="688" on="1"/>
        <pt x="401" y="688" on="0"/>
        <pt x="503" y="637" on="0"/>
        <pt x="531" y="504" on="0"/>
        <pt x="531" y="344" on="1"/>
        <pt x="531" y="184" on="0"/>
        <pt x="503" y="51" on="0"/>
        <pt x="401" y="0" on="0"/>
        <pt x="278" y="0" on="1"/>
        <pt x="86" y="0" on="1"/>
      </contour>
      <contour>
        <pt x="269" y="71" on="1"/>
        <pt x="363" y="71" on="0"/>
        <pt x="430" y="98" on="0"/>
        <pt x="451" y="202" on="0"/>
        <pt x="451" y="344" on="1"/>
        <pt x="451" y="485" on="0"/>
        <pt x="430" y="590" on="0"/>
        <pt x="362" y="617" on="0"/>
        <pt x="269" y="617" on="1"/>
        <pt x="166" y="617" on="1"/>
        <pt x="166" y="71" on="1"/>
      </contour>
    </TTGlyph>
    <TTGlyph name="Dcaron" xMin="86" yMin="0" xMax="531" yMax="888">
      <component glyphName="D" x="0" y="0" flags="0x0"/>
      <component glyphName="uni030C.case" x="443" y="0" flags="0x0"/>
    </TTGlyph>
    <TTGlyph name="Dcroat" xMin="23" yMin="0" xMax="531" yMax="688">
      <component glyphName="Eth" x="0" y="0" flags="0x0"/>
    </TTGlyph>
    <TTGlyph name="E" xMin="86" yMin="0" xMax="472" yMax="688">
      <contour>
        <pt x="86" y="688" on="1"/>
        <pt x="472" y="688" on="1"/>
        <pt x="472" y="617" on="1"/>
        <pt x="166" y="617" on="1"/>
        <pt x="166" y="383" on="1"/>
        <pt x="432" y="383" on="1"/>
        <pt x="432" y="312" on="1"/>
        <pt x="166" y="312" on="1"/>
        <pt x="166" y="71" on="1"/>
        <pt x="472" y="71" on="1"/>
        <pt x="472" y="0" on="1"/>
        <pt x="86" y="0" on="1"/>
      </contour>
    </TTGlyph>
    <TTGlyph name="Eacute" xMin="86" yMin="0" xMax="472" yMax="891">
      <component glyphName="E" x="0" y="0" flags="0x0"/>
      <component glyphName="acute" x="235" y="148" flags="0x4"/>
    </TTGlyph>
    <TTGlyph name="Ebreve" xMin="86" yMin="0" xMax="472" yMax="888">
      <component glyphName="E" x="0" y="0" flags="0x0"/>
      <component glyphName="uni0306.case" x="417" y="0" flags="0x0"/>
    </TTGlyph>
    <TTGlyph name="Ecaron" xMin="86" yMin="0" xMax="472" yMax="888">
      <component glyphName="E" x="0" y="0" flags="0x0"/>
      <component glyphName="uni030C.case" x="422" y="0" flags="0x0"/>
    </TTGlyph>
    <TTGlyph name="Ecircumflex" xMin="86" yMin="0" xMax="472" yMax="889">
      <component glyphName="E" x="0" y="0" flags="0x0"/>
      <component glyphName="circumflex" x="134" y="146" flags="0x4"/>
    </TTGlyph>
    <TTGlyph name="Edieresis" xMin="86" yMin="0" xMax="472" yMax="854">
      <component glyphName="E" x="0" y="0" flags="0x0"/>
      <component glyphName="dieresis" x="136" y="124" flags="0x4"/>
    </TTGlyph>
    <TTGlyph name="Edotaccent" xMin="86" yMin="0" xMax="472" yMax="875">
      <component glyphName="E" x="0" y="0" flags="0x0"/>
      <component glyphName="uni0307.case" x="331" y="0" flags="0x0"/>
    </TTGlyph>
    <TTGlyph name="Egrave" xMin="86" yMin="0" xMax="472" yMax="891">
      <component glyphName="E" x="0" y="0" flags="0x0"/>
      <component glyphName="grave" x="149" y="148" flags="0x4"/>
    </TTGlyph>
    <TTGlyph name="Emacron" xMin="86" yMin="0" xMax="472" yMax="887">
      <component glyphName="E" x="0" y="0" flags="0x0"/>
      <component glyphName="uni0304.case" x="446" y="0" flags="0x0"/>
    </TTGlyph>
    <TTGlyph name="Eng" xMin="86" yMin="-197" xMax="549" yMax="688">
      <contour>
        <pt x="549" y="688" on="1"/>
        <pt x="549" y="-59" on="1"/>
        <pt x="549" y="-122" on="0"/>
        <pt x="520" y="-180" on="0"/>
        <pt x="455" y="-197" on="0"/>
        <pt x="388" y="-197" on="1"/>
        <pt x="388" y="-136" on="1"/>
        <pt x="426" y="-136" on="0"/>
        <pt x="461" y="-126" on="0"/>
        <pt x="471" y="-104" on="0"/>
        <pt x="471" y="-81" on="1"/>
        <pt x="471" y="2" on="1"/>
        <pt x="167" y="528" on="1"/>
        <pt x="163" y="528" on="1"/>
        <pt x="163" y="0" on="1"/>
        <pt x="86" y="0" on="1"/>
        <pt x="86" y="688" on="1"/>
        <pt x="168" y="688" on="1"/>
        <pt x="467" y="171" on="1"/>
        <pt x="471" y="171" on="1"/>
        <pt x="471" y="688" on="1"/>
      </contour>
    </TTGlyph>
    <TTGlyph name="Eogonek" xMin="86" yMin="-196" xMax="472" yMax="688">
      <contour>
        <pt x="383" y="-196" on="0"/>
        <pt x="340" y="-155" on="0"/>
        <pt x="340" y="-122" on="1"/>
        <pt x="340" y="-90" on="0"/>
        <pt x="375" y="-28" on="0"/>
        <pt x="406" y="0" on="1"/>
        <pt x="86" y="0" on="1"/>
        <pt x="86" y="688" on="1"/>
        <pt x="472" y="688" on="1"/>
        <pt x="472" y="617" on="1"/>
        <pt x="166" y="617" on="1"/>
        <pt x="166" y="383" on="1"/>
        <pt x="432" y="383" on="1"/>
        <pt x="432" y="312" on="1"/>
        <pt x="166" y="312" on="1"/>
        <pt x="166" y="71" on="1"/>
        <pt x="472" y="71" on="1"/>
        <pt x="472" y="0" on="1"/>
        <pt x="448" y="-17" on="0"/>
        <pt x="405" y="-79" on="0"/>
        <pt x="405" y="-105" on="1"/>
        <pt x="405" y="-122" on="0"/>
        <pt x="427" y="-145" on="0"/>
        <pt x="450" y="-145" on="1"/>
        <pt x="462" y="-145" on="0"/>
        <pt x="467" y="-144" on="1"/>
        <pt x="467" y="-194" on="1"/>
        <pt x="451" y="-196" on="0"/>
        <pt x="431" y="-196" on="1"/>
      </contour>
    </TTGlyph>
    <TTGlyph name="Eth" xMin="23" yMin="0" xMax="531" yMax="688">
      <contour>
        <pt x="86" y="315" on="1"/>
        <pt x="23" y="315" on="1"/>
        <pt x="23" y="382" on="1"/>
        <pt x="86" y="382" on="1"/>
        <pt x="86" y="688" on="1"/>
        <pt x="278" y="688" on="1"/>
        <pt x="401" y="688" on="0"/>
        <pt x="503" y="637" on="0"/>
        <pt x="531" y="504" on="0"/>
        <pt x="531" y="344" on="1"/>
        <pt x="531" y="184" on="0"/>
        <pt x="503" y="51" on="0"/>
        <pt x="401" y="0" on="0"/>
        <pt x="278" y="0" on="1"/>
        <pt x="86" y="0" on="1"/>
      </contour>
      <contour>
        <pt x="363" y="71" on="0"/>
        <pt x="430" y="98" on="0"/>
        <pt x="451" y="202" on="0"/>
        <pt x="451" y="344" on="1"/>
        <pt x="451" y="485" on="0"/>
        <pt x="430" y="590" on="0"/>
        <pt x="362" y="617" on="0"/>
        <pt x="269" y="617" on="1"/>
        <pt x="166" y="617" on="1"/>
        <pt x="166" y="382" on="1"/>
        <pt x="271" y="382" on="1"/>
        <pt x="271" y="315" on="1"/>
        <pt x="166" y="315" on="1"/>
        <pt x="166" y="71" on="1"/>
        <pt x="269" y="71" on="1"/>
      </contour>
    </TTGlyph>
    <TTGlyph name="Euro" xMin="35" yMin="-8" xMax="486" yMax="696">
      <contour>
        <pt x="253" y="-8" on="0"/>
        <pt x="158" y="30" on="0"/>
        <pt x="116" y="135" on="0"/>
        <pt x="111" y="243" on="1"/>
        <pt x="35" y="243" on="1"/>
        <pt x="35" y="295" on="1"/>
        <pt x="109" y="295" on="1"/>
        <pt x="109" y="396" on="1"/>
        <pt x="35" y="396" on="1"/>
        <pt x="35" y="448" on="1"/>
        <pt x="111" y="448" on="1"/>
        <pt x="116" y="551" on="0"/>
        <pt x="159" y="656" on="0"/>
        <pt x="255" y="696" on="0"/>
        <pt x="348" y="696" on="1"/>
        <pt x="387" y="696" on="0"/>
        <pt x="462" y="687" on="0"/>
        <pt x="483" y="682" on="1"/>
        <pt x="483" y="616" on="1"/>
        <pt x="462" y="619" on="0"/>
        <pt x="394" y="625" on="0"/>
        <pt x="367" y="625" on="1"/>
        <pt x="293" y="625" on="0"/>
        <pt x="224" y="602" on="0"/>
        <pt x="195" y="530" on="0"/>
        <pt x="191" y="448" on="1"/>
        <pt x="439" y="448" on="1"/>
        <pt x="439" y="396" on="1"/>
        <pt x="190" y="396" on="1"/>
        <pt x="190" y="295" on="1"/>
        <pt x="439" y="295" on="1"/>
        <pt x="439" y="243" on="1"/>
        <pt x="191" y="243" on="1"/>
        <pt x="195" y="160" on="0"/>
        <pt x="224" y="86" on="0"/>
        <pt x="292" y="63" on="0"/>
        <pt x="367" y="63" on="1"/>
        <pt x="400" y="63" on="0"/>
        <pt x="467" y="69" on="0"/>
        <pt x="486" y="72" on="1"/>
        <pt x="486" y="4" on="1"/>
        <pt x="465" y="0" on="0"/>
        <pt x="386" y="-8" on="0"/>
        <pt x="348" y="-8" on="1"/>
      </contour>
    </TTGlyph>
    <TTGlyph name="F" xMin="86" yMin="0" xMax="454" yMax="688">
      <contour>
        <pt x="86" y="688" on="1"/>
        <pt x="454" y="688" on="1"/>
        <pt x="454" y="617" on="1"/>
        <pt x="166" y="617" on="1"/>
        <pt x="166" y="368" on="1"/>
        <pt x="423" y="368" on="1"/>
        <pt x="423" y="297" on="1"/>
        <pt x="166" y="297" on="1"/>
        <pt x="166" y="0" on="1"/>
        <pt x="86" y="0" on="1"/>
      </contour>
    </TTGlyph>
    <TTGlyph name="G" xMin="66" yMin="-8" xMax="511" yMax="696">
      <contour>
        <pt x="302" y="300" on="1"/>
        <pt x="302" y="369" on="1"/>
        <pt x="511" y="369" on="1"/>
        <pt x="511" y="11" on="1"/>
        <pt x="469" y="3" on="0"/>
        <pt x="361" y="-8" on="0"/>
        <pt x="319" y="-8" on="1"/>
        <pt x="209" y="-8" on="0"/>
        <pt x="105" y="44" on="0"/>
        <pt x="66" y="190" on="0"/>
        <pt x="66" y="344" on="1"/>
        <pt x="66" y="496" on="0"/>
        <pt x="106" y="642" on="0"/>
        <pt x="211" y="696" on="0"/>
        <pt x="321" y="696" on="1"/>
        <pt x="368" y="696" on="0"/>
        <pt x="475" y="684" on="0"/>
        <pt x="509" y="676" on="1"/>
        <pt x="509" y="610" on="1"/>
        <pt x="473" y="616" on="0"/>
        <pt x="384" y="625" on="0"/>
        <pt x="357" y="625" on="1"/>
        <pt x="256" y="625" on="0"/>
        <pt x="177" y="597" on="0"/>
        <pt x="146" y="484" on="0"/>
        <pt x="146" y="344" on="1"/>
        <pt x="146" y="214" on="0"/>
        <pt x="169" y="101" on="0"/>
        <pt x="239" y="61" on="0"/>
        <pt x="320" y="61" on="1"/>
        <pt x="345" y="61" on="0"/>
        <pt x="410" y="66" on="0"/>
        <pt x="433" y="70" on="1"/>
        <pt x="433" y="300" on="1"/>
      </contour>
    </TTGlyph>
    <TTGlyph name="G.ss01" xMin="66" yMin="-8" xMax="538" yMax="696">
      <contour>
        <pt x="207" y="-8" on="0"/>
        <pt x="104" y="45" on="0"/>
        <pt x="66" y="190" on="0"/>
        <pt x="66" y="344" on="1"/>
        <pt x="66" y="497" on="0"/>
        <pt x="107" y="642" on="0"/>
        <pt x="215" y="696" on="0"/>
        <pt x="328" y="696" on="1"/>
        <pt x="373" y="696" on="0"/>
        <pt x="479" y="685" on="0"/>
        <pt x="517" y="676" on="1"/>
        <pt x="517" y="610" on="1"/>
        <pt x="477" y="617" on="0"/>
        <pt x="390" y="625" on="0"/>
        <pt x="362" y="625" on="1"/>
        <pt x="259" y="625" on="0"/>
        <pt x="178" y="597" on="0"/>
        <pt x="146" y="484" on="0"/>
        <pt x="146" y="344" on="1"/>
        <pt x="146" y="212" on="0"/>
        <pt x="169" y="99" on="0"/>
        <pt x="237" y="63" on="0"/>
        <pt x="316" y="63" on="1"/>
        <pt x="388" y="63" on="0"/>
        <pt x="443" y="89" on="0"/>
        <pt x="458" y="172" on="0"/>
        <pt x="458" y="280" on="1"/>
        <pt x="458" y="308" on="1"/>
        <pt x="325" y="308" on="1"/>
        <pt x="325" y="378" on="1"/>
        <pt x="538" y="378" on="1"/>
        <pt x="538" y="293" on="1"/>
        <pt x="538" y="155" on="0"/>
        <pt x="515" y="41" on="0"/>
        <pt x="426" y="-8" on="0"/>
        <pt x="319" y="-8" on="1"/>
      </contour>
    </TTGlyph>
    <TTGlyph name="G_tilde.loclGUA" xMin="66" yMin="-8" xMax="511" yMax="888">
      <component glyphName="G" x="0" y="0" flags="0x0"/>
      <component glyphName="tildecomb.case" x="468" y="0" flags="0x0"/>
    </TTGlyph>
    <TTGlyph name="Gbreve" xMin="66" yMin="-8" xMax="511" yMax="888">
      <component glyphName="G" x="0" y="0" flags="0x0"/>
      <component glyphName="uni0306.case" x="432" y="0" flags="0x0"/>
    </TTGlyph>
    <TTGlyph name="Gbreve.ss01" xMin="66" yMin="-8" xMax="538" yMax="888">
      <component glyphName="G.ss01" x="0" y="0" flags="0x0"/>
      <component glyphName="uni0306.case" x="440" y="0" flags="0x0"/>
    </TTGlyph>
    <TTGlyph name="Gcaron" xMin="66" yMin="-8" xMax="511" yMax="888">
      <component glyphName="G" x="0" y="0" flags="0x0"/>
      <component glyphName="uni030C.case" x="437" y="0" flags="0x0"/>
    </TTGlyph>
    <TTGlyph name="Gcaron.ss01" xMin="66" yMin="-8" xMax="538" yMax="888">
      <component glyphName="G.ss01" x="0" y="0" flags="0x0"/>
      <component glyphName="uni030C.case" x="445" y="0" flags="0x0"/>
    </TTGlyph>
    <TTGlyph name="Gcircumflex" xMin="66" yMin="-8" xMax="511" yMax="888">
      <component glyphName="G" x="0" y="0" flags="0x0"/>
      <component glyphName="uni0302.case" x="437" y="0" flags="0x0"/>
    </TTGlyph>
    <TTGlyph name="Gcircumflex.ss01" xMin="66" yMin="-8" xMax="538" yMax="888">
      <component glyphName="G.ss01" x="0" y="0" flags="0x0"/>
      <component glyphName="uni0302.case" x="445" y="0" flags="0x0"/>
    </TTGlyph>
    <TTGlyph name="Gcommaaccent" xMin="66" yMin="-260" xMax="511" yMax="696">
      <component glyphName="G" x="0" y="0" flags="0x0"/>
      <component glyphName="uni0326" x="401" y="0" flags="0x0"/>
    </TTGlyph>
    <TTGlyph name="Gcommaaccent.ss01" xMin="66" yMin="-260" xMax="538" yMax="696">
      <component glyphName="G.ss01" x="0" y="0" flags="0x0"/>
      <component glyphName="uni0326" x="409" y="0" flags="0x0"/>
    </TTGlyph>
    <TTGlyph name="Gdotaccent" xMin="66" yMin="-8" xMax="511" yMax="875">
      <component glyphName="G" x="0" y="0" flags="0x0"/>
      <component glyphName="uni0307.case" x="346" y="0" flags="0x0"/>
    </TTGlyph>
    <TTGlyph name="Gdotaccent.ss01" xMin="66" yMin="-8" xMax="538" yMax="875">
      <component glyphName="G.ss01" x="0" y="0" flags="0x0"/>
      <component glyphName="uni0307.case" x="354" y="0" flags="0x0"/>
    </TTGlyph>
    <TTGlyph name="Gtilde.loclGUA.ss01" xMin="66" yMin="-8" xMax="538" yMax="888">
      <component glyphName="G.ss01" x="0" y="0" flags="0x0"/>
      <component glyphName="tildecomb.case" x="476" y="0" flags="0x0"/>
    </TTGlyph>
    <TTGlyph name="H" xMin="86" yMin="0" xMax="548" yMax="688">
      <contour>
        <pt x="468" y="311" on="1"/>
        <pt x="166" y="311" on="1"/>
        <pt x="166" y="0" on="1"/>
        <pt x="86" y="0" on="1"/>
        <pt x="86" y="688" on="1"/>
        <pt x="166" y="688" on="1"/>
        <pt x="166" y="384" on="1"/>
        <pt x="468" y="384" on="1"/>
        <pt x="468" y="688" on="1"/>
        <pt x="548" y="688" on="1"/>
        <pt x="548" y="0" on="1"/>
        <pt x="468" y="0" on="1"/>
      </contour>
    </TTGlyph>
    <TTGlyph name="Hbar" xMin="86" yMin="0" xMax="548" yMax="688">
      <contour>
        <pt x="548" y="688" on="1"/>
        <pt x="548" y="0" on="1"/>
        <pt x="468" y="0" on="1"/>
        <pt x="468" y="280" on="1"/>
        <pt x="166" y="280" on="1"/>
        <pt x="166" y="0" on="1"/>
        <pt x="86" y="0" on="1"/>
        <pt x="86" y="688" on="1"/>
        <pt x="166" y="688" on="1"/>
        <pt x="166" y="551" on="1"/>
        <pt x="468" y="551" on="1"/>
        <pt x="468" y="688" on="1"/>
      </contour>
      <contour>
        <pt x="468" y="353" on="1"/>
        <pt x="468" y="482" on="1"/>
        <pt x="166" y="482" on="1"/>
        <pt x="166" y="353" on="1"/>
      </contour>
    </TTGlyph>
    <TTGlyph name="Hcircumflex" xMin="86" yMin="0" xMax="548" yMax="888">
      <component glyphName="H" x="0" y="0" flags="0x0"/>
      <component glyphName="uni0302.case" x="461" y="0" flags="0x0"/>
    </TTGlyph>
    <TTGlyph name="I" xMin="87" yMin="0" xMax="167" yMax="688">
      <contour>
        <pt x="87" y="688" on="1"/>
        <pt x="167" y="688" on="1"/>
        <pt x="167" y="0" on="1"/>
        <pt x="87" y="0" on="1"/>
      </contour>
    </TTGlyph>
    <TTGlyph name="IJ" xMin="87" yMin="0" xMax="480" yMax="688">
      <component glyphName="I" x="0" y="0" flags="0x0"/>
      <component glyphName="J" x="254" y="0" flags="0x0"/>
    </TTGlyph>
    <TTGlyph name="Iacute" xMin="86" yMin="0" xMax="247" yMax="891">
      <component glyphName="I" x="0" y="0" flags="0x0"/>
      <component glyphName="acute" x="73" y="148" flags="0x4"/>
    </TTGlyph>
    <TTGlyph name="Iacute_J.loclNLD" xMin="87" yMin="0" xMax="565" yMax="888">
      <component glyphName="I" x="0" y="0" flags="0x0"/>
      <component glyphName="acutecomb.case" x="266" y="0" flags="0x0"/>
      <component glyphName="J" x="254" y="0" flags="0x0"/>
      <component glyphName="acutecomb.case" x="579" y="0" flags="0x0"/>
    </TTGlyph>
    <TTGlyph name="Ibreve" xMin="0" yMin="0" xMax="253" yMax="888">
      <component glyphName="I" x="0" y="0" flags="0x0"/>
      <component glyphName="uni0306.case" x="266" y="0" flags="0x0"/>
    </TTGlyph>
    <TTGlyph name="Icircumflex" xMin="-5" yMin="0" xMax="258" yMax="889">
      <component glyphName="I" x="0" y="0" flags="0x0"/>
      <component glyphName="circumflex" x="-18" y="146" flags="0x4"/>
    </TTGlyph>
    <TTGlyph name="Idieresis" xMin="0" yMin="0" xMax="254" yMax="853">
      <component glyphName="I" x="0" y="0" flags="0x0"/>
      <component glyphName="dieresis" x="-19" y="123" flags="0x4"/>
    </TTGlyph>
    <TTGlyph name="Idotaccent" xMin="87" yMin="0" xMax="167" yMax="875">
      <component glyphName="I" x="0" y="0" flags="0x0"/>
      <component glyphName="uni0307.case" x="180" y="0" flags="0x0"/>
    </TTGlyph>
    <TTGlyph name="Igrave" xMin="10" yMin="0" xMax="171" yMax="891">
      <component glyphName="I" x="0" y="0" flags="0x0"/>
      <component glyphName="grave" x="-3" y="148" flags="0x4"/>
    </TTGlyph>
    <TTGlyph name="Imacron" xMin="18" yMin="0" xMax="236" yMax="887">
      <component glyphName="I" x="0" y="0" flags="0x0"/>
      <component glyphName="uni0304.case" x="295" y="0" flags="0x0"/>
    </TTGlyph>
    <TTGlyph name="Iogonek" xMin="41" yMin="-196" xMax="168" yMax="688">
      <contour>
        <pt x="41" y="-196" on="0"/>
        <pt x="41" y="-119" on="1"/>
        <pt x="41" y="-90" on="0"/>
        <pt x="74" y="-26" on="0"/>
        <pt x="101" y="0" on="1"/>
        <pt x="87" y="0" on="1"/>
        <pt x="87" y="688" on="1"/>
        <pt x="167" y="688" on="1"/>
        <pt x="167" y="0" on="1"/>
        <pt x="145" y="-17" on="0"/>
        <pt x="106" y="-79" on="0"/>
        <pt x="106" y="-104" on="1"/>
        <pt x="106" y="-145" on="0"/>
        <pt x="152" y="-145" on="1"/>
        <pt x="163" y="-145" on="0"/>
        <pt x="168" y="-144" on="1"/>
        <pt x="168" y="-194" on="1"/>
        <pt x="150" y="-196" on="0"/>
        <pt x="131" y="-196" on="1"/>
      </contour>
    </TTGlyph>
    <TTGlyph name="Itilde" xMin="-35" yMin="0" xMax="288" yMax="888">
      <component glyphName="I" x="0" y="0" flags="0x0"/>
      <component glyphName="tildecomb.case" x="302" y="0" flags="0x0"/>
    </TTGlyph>
    <TTGlyph name="J" xMin="25" yMin="0" xMax="226" yMax="688">
      <contour>
        <pt x="90" y="70" on="0"/>
        <pt x="135" y="88" on="0"/>
        <pt x="146" y="152" on="0"/>
        <pt x="146" y="245" on="1"/>
        <pt x="146" y="688" on="1"/>
        <pt x="226" y="688" on="1"/>
        <pt x="226" y="272" on="1"/>
        <pt x="226" y="131" on="0"/>
        <pt x="205" y="30" on="0"/>
        <pt x="130" y="1" on="0"/>
        <pt x="25" y="0" on="1"/>
        <pt x="25" y="68" on="1"/>
      </contour>
    </TTGlyph>
    <TTGlyph name="Jcircumflex" xMin="25" yMin="0" xMax="317" yMax="888">
      <component glyphName="J" x="0" y="0" flags="0x0"/>
      <component glyphName="uni0302.case" x="330" y="0" flags="0x0"/>
    </TTGlyph>
    <TTGlyph name="K" xMin="86" yMin="0" xMax="557" yMax="688">
      <contour>
        <pt x="270" y="314" on="1"/>
        <pt x="166" y="314" on="1"/>
        <pt x="166" y="0" on="1"/>
        <pt x="86" y="0" on="1"/>
        <pt x="86" y="688" on="1"/>
        <pt x="166" y="688" on="1"/>
        <pt x="166" y="385" on="1"/>
        <pt x="270" y="385" on="1"/>
        <pt x="468" y="688" on="1"/>
        <pt x="555" y="688" on="1"/>
        <pt x="336" y="354" on="1"/>
        <pt x="557" y="0" on="1"/>
        <pt x="467" y="0" on="1"/>
      </contour>
    </TTGlyph>
    <TTGlyph name="Kcommaaccent" xMin="86" yMin="-260" xMax="557" yMax="688">
      <component glyphName="K" x="0" y="0" flags="0x0"/>
      <component glyphName="uni0326" x="398" y="0" flags="0x0"/>
    </TTGlyph>
    <TTGlyph name="L" xMin="86" yMin="0" xMax="438" yMax="688">
      <contour>
        <pt x="86" y="688" on="1"/>
        <pt x="166" y="688" on="1"/>
        <pt x="166" y="73" on="1"/>
        <pt x="438" y="73" on="1"/>
        <pt x="438" y="0" on="1"/>
        <pt x="86" y="0" on="1"/>
      </contour>
    </TTGlyph>
    <TTGlyph name="Lacute" xMin="86" yMin="0" xMax="438" yMax="888">
      <component glyphName="L" x="0" y="0" flags="0x0"/>
      <component glyphName="acutecomb.case" x="276" y="0" flags="0x0"/>
    </TTGlyph>
    <TTGlyph name="Lcaron" xMin="86" yMin="0" xMax="438" yMax="706">
      <component glyphName="L" x="0" y="0" flags="0x0"/>
      <component glyphName="caron.loclCSY" x="265" y="18" flags="0x4"/>
    </TTGlyph>
    <TTGlyph name="Lcommaaccent" xMin="86" yMin="-260" xMax="438" yMax="688">
      <component glyphName="L" x="0" y="0" flags="0x0"/>
      <component glyphName="uni0326" x="353" y="0" flags="0x0"/>
    </TTGlyph>
    <TTGlyph name="Ldot" xMin="86" yMin="0" xMax="438" yMax="688">
      <component glyphName="L" x="0" y="0" flags="0x0"/>
      <component glyphName="periodcentered" x="260" y="61" flags="0x4"/>
    </TTGlyph>
    <TTGlyph name="Lslash" xMin="29" yMin="0" xMax="438" yMax="688">
      <contour>
        <pt x="438" y="73" on="1"/>
        <pt x="438" y="0" on="1"/>
        <pt x="86" y="0" on="1"/>
        <pt x="86" y="286" on="1"/>
        <pt x="29" y="265" on="1"/>
        <pt x="29" y="330" on="1"/>
        <pt x="86" y="351" on="1"/>
        <pt x="86" y="688" on="1"/>
        <pt x="166" y="688" on="1"/>
        <pt x="166" y="381" on="1"/>
        <pt x="331" y="442" on="1"/>
        <pt x="331" y="377" on="1"/>
        <pt x="166" y="316" on="1"/>
        <pt x="166" y="73" on="1"/>
      </contour>
    </TTGlyph>
    <TTGlyph name="M" xMin="86" yMin="0" xMax="709" yMax="688">
      <contour>
        <pt x="631" y="557" on="1"/>
        <pt x="627" y="557" on="1"/>
        <pt x="430" y="0" on="1"/>
        <pt x="362" y="0" on="1"/>
        <pt x="166" y="557" on="1"/>
        <pt x="162" y="557" on="1"/>
        <pt x="162" y="0" on="1"/>
        <pt x="86" y="0" on="1"/>
        <pt x="86" y="688" on="1"/>
        <pt x="200" y="688" on="1"/>
        <pt x="395" y="132" on="1"/>
        <pt x="401" y="132" on="1"/>
        <pt x="597" y="688" on="1"/>
        <pt x="709" y="688" on="1"/>
        <pt x="709" y="0" on="1"/>
        <pt x="631" y="0" on="1"/>
      </contour>
    </TTGlyph>
    <TTGlyph name="N" xMin="86" yMin="0" xMax="549" yMax="688">
      <contour>
        <pt x="167" y="528" on="1"/>
        <pt x="163" y="528" on="1"/>
        <pt x="163" y="0" on="1"/>
        <pt x="86" y="0" on="1"/>
        <pt x="86" y="688" on="1"/>
        <pt x="168" y="688" on="1"/>
        <pt x="467" y="170" on="1"/>
        <pt x="471" y="170" on="1"/>
        <pt x="471" y="688" on="1"/>
        <pt x="549" y="688" on="1"/>
        <pt x="549" y="0" on="1"/>
        <pt x="471" y="0" on="1"/>
      </contour>
    </TTGlyph>
    <TTGlyph name="Nacute" xMin="86" yMin="0" xMax="549" yMax="888">
      <component glyphName="N" x="0" y="0" flags="0x0"/>
      <component glyphName="acutecomb.case" x="456" y="0" flags="0x0"/>
    </TTGlyph>
    <TTGlyph name="Nacute.loclPLK" xMin="86" yMin="0" xMax="549" yMax="888">
      <component glyphName="N" x="0" y="0" flags="0x0"/>
      <component glyphName="acute.case.loclPLK" x="268" y="0" flags="0x0"/>
    </TTGlyph>
    <TTGlyph name="Ncaron" xMin="86" yMin="0" xMax="549" yMax="888">
      <component glyphName="N" x="0" y="0" flags="0x0"/>
      <component glyphName="uni030C.case" x="461" y="0" flags="0x0"/>
    </TTGlyph>
    <TTGlyph name="Ncommaaccent" xMin="86" yMin="-260" xMax="549" yMax="688">
      <component glyphName="N" x="0" y="0" flags="0x0"/>
      <component glyphName="uni0326" x="425" y="0" flags="0x0"/>
    </TTGlyph>
    <TTGlyph name="Ntilde" xMin="86" yMin="0" xMax="549" yMax="873">
      <component glyphName="N" x="0" y="0" flags="0x0"/>
      <component glyphName="tilde" x="143" y="130" flags="0x4"/>
    </TTGlyph>
    <TTGlyph name="O" xMin="66" yMin="-8" xMax="555" yMax="696">
      <contour>
        <pt x="193" y="-8" on="0"/>
        <pt x="93" y="45" on="0"/>
        <pt x="66" y="181" on="0"/>
        <pt x="66" y="344" on="1"/>
        <pt x="66" y="507" on="0"/>
        <pt x="93" y="643" on="0"/>
        <pt x="193" y="696" on="0"/>
        <pt x="311" y="696" on="1"/>
        <pt x="429" y="696" on="0"/>
        <pt x="528" y="643" on="0"/>
        <pt x="555" y="507" on="0"/>
        <pt x="555" y="344" on="1"/>
        <pt x="555" y="181" on="0"/>
        <pt x="528" y="45" on="0"/>
        <pt x="429" y="-8" on="0"/>
        <pt x="311" y="-8" on="1"/>
      </contour>
      <contour>
        <pt x="395" y="63" on="0"/>
        <pt x="455" y="91" on="0"/>
        <pt x="475" y="199" on="0"/>
        <pt x="475" y="344" on="1"/>
        <pt x="475" y="489" on="0"/>
        <pt x="455" y="597" on="0"/>
        <pt x="395" y="625" on="0"/>
        <pt x="311" y="625" on="1"/>
        <pt x="227" y="625" on="0"/>
        <pt x="166" y="597" on="0"/>
        <pt x="146" y="489" on="0"/>
        <pt x="146" y="344" on="1"/>
        <pt x="146" y="199" on="0"/>
        <pt x="166" y="91" on="0"/>
        <pt x="227" y="63" on="0"/>
        <pt x="311" y="63" on="1"/>
      </contour>
    </TTGlyph>
    <TTGlyph name="OE" xMin="66" yMin="0" xMax="852" yMax="688">
      <contour>
        <pt x="193" y="0" on="0"/>
        <pt x="93" y="52" on="0"/>
        <pt x="66" y="185" on="0"/>
        <pt x="66" y="344" on="1"/>
        <pt x="66" y="503" on="0"/>
        <pt x="93" y="636" on="0"/>
        <pt x="193" y="688" on="0"/>
        <pt x="311" y="688" on="1"/>
        <pt x="852" y="688" on="1"/>
        <pt x="852" y="617" on="1"/>
        <pt x="573" y="617" on="1"/>
        <pt x="538" y="617" on="0"/>
        <pt x="508" y="623" on="1"/>
        <pt x="536" y="593" on="0"/>
        <pt x="554" y="485" on="0"/>
        <pt x="555" y="383" on="1"/>
        <pt x="812" y="383" on="1"/>
        <pt x="812" y="312" on="1"/>
        <pt x="555" y="312" on="1"/>
        <pt x="554" y="204" on="0"/>
        <pt x="536" y="94" on="0"/>
        <pt x="508" y="65" on="1"/>
        <pt x="533" y="70" on="0"/>
        <pt x="573" y="70" on="1"/>
        <pt x="852" y="70" on="1"/>
        <pt x="852" y="0" on="1"/>
        <pt x="311" y="0" on="1"/>
      </contour>
      <contour>
        <pt x="394" y="70" on="0"/>
        <pt x="455" y="98" on="0"/>
        <pt x="475" y="203" on="0"/>
        <pt x="475" y="344" on="1"/>
        <pt x="475" y="485" on="0"/>
        <pt x="455" y="590" on="0"/>
        <pt x="395" y="617" on="0"/>
        <pt x="311" y="617" on="1"/>
        <pt x="227" y="617" on="0"/>
        <pt x="166" y="590" on="0"/>
        <pt x="146" y="485" on="0"/>
        <pt x="146" y="344" on="1"/>
        <pt x="146" y="203" on="0"/>
        <pt x="166" y="98" on="0"/>
        <pt x="227" y="70" on="0"/>
        <pt x="311" y="70" on="1"/>
      </contour>
    </TTGlyph>
    <TTGlyph name="Oacute" xMin="66" yMin="-8" xMax="555" yMax="891">
      <component glyphName="O" x="0" y="0" flags="0x0"/>
      <component glyphName="acute" x="258" y="148" flags="0x4"/>
    </TTGlyph>
    <TTGlyph name="Oacute.loclPLK" xMin="66" yMin="-8" xMax="555" yMax="888">
      <component glyphName="O" x="0" y="0" flags="0x0"/>
      <component glyphName="acute.case.loclPLK" x="262" y="0" flags="0x0"/>
    </TTGlyph>
    <TTGlyph name="Obreve" xMin="66" yMin="-8" xMax="555" yMax="888">
      <component glyphName="O" x="0" y="0" flags="0x0"/>
      <component glyphName="uni0306.case" x="450" y="0" flags="0x0"/>
    </TTGlyph>
    <TTGlyph name="Ocircumflex" xMin="66" yMin="-8" xMax="555" yMax="889">
      <component glyphName="O" x="0" y="0" flags="0x0"/>
      <component glyphName="circumflex" x="166" y="146" flags="0x4"/>
    </TTGlyph>
    <TTGlyph name="Odieresis" xMin="66" yMin="-8" xMax="555" yMax="854">
      <component glyphName="O" x="0" y="0" flags="0x0"/>
      <component glyphName="dieresis" x="164" y="124" flags="0x4"/>
    </TTGlyph>
    <TTGlyph name="Ograve" xMin="66" yMin="-8" xMax="555" yMax="891">
      <component glyphName="O" x="0" y="0" flags="0x0"/>
      <component glyphName="grave" x="170" y="148" flags="0x4"/>
    </TTGlyph>
    <TTGlyph name="Ohorn" xMin="66" yMin="-8" xMax="588" yMax="785">
      <contour>
        <pt x="588" y="785" on="1"/>
        <pt x="588" y="754" on="1"/>
        <pt x="588" y="715" on="0"/>
        <pt x="575" y="673" on="0"/>
        <pt x="540" y="652" on="0"/>
        <pt x="504" y="650" on="1"/>
        <pt x="537" y="617" on="0"/>
        <pt x="555" y="486" on="0"/>
        <pt x="555" y="344" on="1"/>
        <pt x="555" y="181" on="0"/>
        <pt x="528" y="45" on="0"/>
        <pt x="429" y="-8" on="0"/>
        <pt x="311" y="-8" on="1"/>
        <pt x="193" y="-8" on="0"/>
        <pt x="93" y="45" on="0"/>
        <pt x="66" y="181" on="0"/>
        <pt x="66" y="344" on="1"/>
        <pt x="66" y="507" on="0"/>
        <pt x="93" y="643" on="0"/>
        <pt x="193" y="696" on="0"/>
        <pt x="311" y="696" on="1"/>
        <pt x="383" y="696" on="0"/>
        <pt x="423" y="688" on="1"/>
        <pt x="476" y="688" on="1"/>
        <pt x="501" y="688" on="0"/>
        <pt x="525" y="698" on="0"/>
        <pt x="533" y="720" on="0"/>
        <pt x="533" y="742" on="1"/>
        <pt x="533" y="785" on="1"/>
      </contour>
      <contour>
        <pt x="395" y="63" on="0"/>
        <pt x="455" y="91" on="0"/>
        <pt x="475" y="199" on="0"/>
        <pt x="475" y="344" on="1"/>
        <pt x="475" y="489" on="0"/>
        <pt x="455" y="597" on="0"/>
        <pt x="395" y="625" on="0"/>
        <pt x="311" y="625" on="1"/>
        <pt x="227" y="625" on="0"/>
        <pt x="166" y="597" on="0"/>
        <pt x="146" y="489" on="0"/>
        <pt x="146" y="344" on="1"/>
        <pt x="146" y="199" on="0"/>
        <pt x="166" y="91" on="0"/>
        <pt x="227" y="63" on="0"/>
        <pt x="311" y="63" on="1"/>
      </contour>
    </TTGlyph>
    <TTGlyph name="Ohungarumlaut" xMin="66" yMin="-8" xMax="555" yMax="881">
      <component glyphName="O" x="0" y="0" flags="0x0"/>
      <component glyphName="uni030B.case" x="532" y="0" flags="0x0"/>
    </TTGlyph>
    <TTGlyph name="Omacron" xMin="66" yMin="-8" xMax="555" yMax="887">
      <component glyphName="O" x="0" y="0" flags="0x0"/>
      <component glyphName="uni0304.case" x="479" y="0" flags="0x0"/>
    </TTGlyph>
    <TTGlyph name="Oslash" xMin="66" yMin="-55" xMax="555" yMax="743">
      <contour>
        <pt x="537" y="616" on="0"/>
        <pt x="555" y="485" on="0"/>
        <pt x="555" y="344" on="1"/>
        <pt x="555" y="181" on="0"/>
        <pt x="528" y="45" on="0"/>
        <pt x="429" y="-8" on="0"/>
        <pt x="311" y="-8" on="1"/>
        <pt x="215" y="-8" on="0"/>
        <pt x="168" y="8" on="1"/>
        <pt x="135" y="-55" on="1"/>
        <pt x="66" y="-55" on="1"/>
        <pt x="116" y="40" on="1"/>
        <pt x="84" y="73" on="0"/>
        <pt x="66" y="204" on="0"/>
        <pt x="66" y="344" on="1"/>
        <pt x="66" y="507" on="0"/>
        <pt x="93" y="643" on="0"/>
        <pt x="193" y="696" on="0"/>
        <pt x="311" y="696" on="1"/>
        <pt x="405" y="696" on="0"/>
        <pt x="451" y="681" on="1"/>
        <pt x="484" y="743" on="1"/>
        <pt x="554" y="743" on="1"/>
        <pt x="505" y="649" on="1"/>
      </contour>
      <contour>
        <pt x="146" y="253" on="0"/>
        <pt x="152" y="154" on="0"/>
        <pt x="160" y="125" on="1"/>
        <pt x="417" y="615" on="1"/>
        <pt x="400" y="621" on="0"/>
        <pt x="352" y="625" on="0"/>
        <pt x="311" y="625" on="1"/>
        <pt x="227" y="625" on="0"/>
        <pt x="166" y="597" on="0"/>
        <pt x="146" y="489" on="0"/>
        <pt x="146" y="344" on="1"/>
      </contour>
      <contour>
        <pt x="395" y="63" on="0"/>
        <pt x="455" y="91" on="0"/>
        <pt x="475" y="199" on="0"/>
        <pt x="475" y="344" on="1"/>
        <pt x="475" y="437" on="0"/>
        <pt x="469" y="536" on="0"/>
        <pt x="460" y="565" on="1"/>
        <pt x="202" y="74" on="1"/>
        <pt x="219" y="67" on="0"/>
        <pt x="269" y="63" on="0"/>
        <pt x="311" y="63" on="1"/>
      </contour>
    </TTGlyph>
    <TTGlyph name="Oslashacute" xMin="66" yMin="-55" xMax="555" yMax="888">
      <component glyphName="Oslash" x="0" y="0" flags="0x0"/>
      <component glyphName="acutecomb.case" x="449" y="0" flags="0x0"/>
    </TTGlyph>
    <TTGlyph name="Otilde" xMin="66" yMin="-8" xMax="555" yMax="873">
      <component glyphName="O" x="0" y="0" flags="0x0"/>
      <component glyphName="tilde" x="136" y="130" flags="0x4"/>
    </TTGlyph>
    <TTGlyph name="P" xMin="86" yMin="0" xMax="520" yMax="688">
      <contour>
        <pt x="86" y="688" on="1"/>
        <pt x="340" y="688" on="1"/>
        <pt x="418" y="688" on="0"/>
        <pt x="496" y="634" on="0"/>
        <pt x="520" y="543" on="0"/>
        <pt x="520" y="471" on="1"/>
        <pt x="520" y="400" on="0"/>
        <pt x="496" y="310" on="0"/>
        <pt x="417" y="254" on="0"/>
        <pt x="339" y="254" on="1"/>
        <pt x="166" y="254" on="1"/>
        <pt x="166" y="0" on="1"/>
        <pt x="86" y="0" on="1"/>
      </contour>
      <contour>
        <pt x="318" y="324" on="1"/>
        <pt x="373" y="324" on="0"/>
        <pt x="425" y="354" on="0"/>
        <pt x="440" y="414" on="0"/>
        <pt x="440" y="471" on="1"/>
        <pt x="440" y="529" on="0"/>
        <pt x="426" y="587" on="0"/>
        <pt x="374" y="617" on="0"/>
        <pt x="319" y="617" on="1"/>
        <pt x="166" y="617" on="1"/>
        <pt x="166" y="324" on="1"/>
      </contour>
    </TTGlyph>
    <TTGlyph name="Q" xMin="66" yMin="-115" xMax="573" yMax="696">
      <contour>
        <pt x="573" y="-112" on="1"/>
        <pt x="573" y="-115" on="1"/>
        <pt x="485" y="-115" on="1"/>
        <pt x="412" y="-2" on="1"/>
        <pt x="370" y="-8" on="0"/>
        <pt x="311" y="-8" on="1"/>
        <pt x="193" y="-8" on="0"/>
        <pt x="93" y="45" on="0"/>
        <pt x="66" y="181" on="0"/>
        <pt x="66" y="344" on="1"/>
        <pt x="66" y="507" on="0"/>
        <pt x="93" y="643" on="0"/>
        <pt x="193" y="696" on="0"/>
        <pt x="311" y="696" on="1"/>
        <pt x="429" y="696" on="0"/>
        <pt x="528" y="643" on="0"/>
        <pt x="555" y="507" on="0"/>
        <pt x="555" y="344" on="1"/>
        <pt x="555" y="238" on="0"/>
        <pt x="546" y="119" on="0"/>
        <pt x="516" y="42" on="0"/>
        <pt x="484" y="22" on="1"/>
      </contour>
      <contour>
        <pt x="353" y="63" on="0"/>
        <pt x="369" y="64" on="1"/>
        <pt x="270" y="218" on="1"/>
        <pt x="353" y="218" on="1"/>
        <pt x="440" y="87" on="1"/>
        <pt x="462" y="109" on="0"/>
        <pt x="475" y="217" on="0"/>
        <pt x="475" y="344" on="1"/>
        <pt x="475" y="489" on="0"/>
        <pt x="455" y="597" on="0"/>
        <pt x="395" y="625" on="0"/>
        <pt x="311" y="625" on="1"/>
        <pt x="227" y="625" on="0"/>
        <pt x="166" y="597" on="0"/>
        <pt x="146" y="489" on="0"/>
        <pt x="146" y="344" on="1"/>
        <pt x="146" y="199" on="0"/>
        <pt x="166" y="91" on="0"/>
        <pt x="227" y="63" on="0"/>
        <pt x="311" y="63" on="1"/>
      </contour>
    </TTGlyph>
    <TTGlyph name="R" xMin="86" yMin="0" xMax="539" yMax="688">
      <contour>
        <pt x="453" y="0" on="1"/>
        <pt x="357" y="274" on="1"/>
        <pt x="340" y="274" on="1"/>
        <pt x="166" y="274" on="1"/>
        <pt x="166" y="0" on="1"/>
        <pt x="86" y="0" on="1"/>
        <pt x="86" y="688" on="1"/>
        <pt x="351" y="688" on="1"/>
        <pt x="428" y="688" on="0"/>
        <pt x="505" y="636" on="0"/>
        <pt x="528" y="550" on="0"/>
        <pt x="528" y="481" on="1"/>
        <pt x="528" y="406" on="0"/>
        <pt x="492" y="308" on="0"/>
        <pt x="434" y="288" on="1"/>
        <pt x="539" y="0" on="1"/>
      </contour>
      <contour>
        <pt x="379" y="344" on="0"/>
        <pt x="432" y="373" on="0"/>
        <pt x="448" y="429" on="0"/>
        <pt x="448" y="481" on="1"/>
        <pt x="448" y="534" on="0"/>
        <pt x="434" y="588" on="0"/>
        <pt x="383" y="617" on="0"/>
        <pt x="330" y="617" on="1"/>
        <pt x="166" y="617" on="1"/>
        <pt x="166" y="344" on="1"/>
        <pt x="324" y="344" on="1"/>
      </contour>
    </TTGlyph>
    <TTGlyph name="R.ss01" xMin="86" yMin="0" xMax="532" yMax="688">
      <contour>
        <pt x="532" y="0" on="1"/>
        <pt x="453" y="0" on="1"/>
        <pt x="443" y="150" on="1"/>
        <pt x="440" y="195" on="0"/>
        <pt x="428" y="244" on="0"/>
        <pt x="380" y="277" on="0"/>
        <pt x="329" y="277" on="1"/>
        <pt x="166" y="277" on="1"/>
        <pt x="166" y="0" on="1"/>
        <pt x="86" y="0" on="1"/>
        <pt x="86" y="688" on="1"/>
        <pt x="356" y="688" on="1"/>
        <pt x="453" y="688" on="0"/>
        <pt x="528" y="598" on="0"/>
        <pt x="528" y="501" on="1"/>
        <pt x="528" y="413" on="0"/>
        <pt x="477" y="333" on="0"/>
        <pt x="423" y="319" on="1"/>
        <pt x="423" y="315" on="1"/>
        <pt x="457" y="307" on="0"/>
        <pt x="497" y="278" on="0"/>
        <pt x="520" y="220" on="0"/>
        <pt x="522" y="170" on="1"/>
      </contour>
      <contour>
        <pt x="377" y="347" on="0"/>
        <pt x="429" y="377" on="0"/>
        <pt x="447" y="434" on="0"/>
        <pt x="447" y="482" on="1"/>
        <pt x="447" y="534" on="0"/>
        <pt x="433" y="588" on="0"/>
        <pt x="384" y="617" on="0"/>
        <pt x="332" y="617" on="1"/>
        <pt x="166" y="617" on="1"/>
        <pt x="166" y="347" on="1"/>
        <pt x="328" y="347" on="1"/>
      </contour>
    </TTGlyph>
    <TTGlyph name="Racute" xMin="86" yMin="0" xMax="539" yMax="888">
      <component glyphName="R" x="0" y="0" flags="0x0"/>
      <component glyphName="acutecomb.case" x="435" y="0" flags="0x0"/>
    </TTGlyph>
    <TTGlyph name="Racute.ss01" xMin="86" yMin="0" xMax="532" yMax="888">
      <component glyphName="R.ss01" x="0" y="0" flags="0x0"/>
      <component glyphName="acutecomb.case" x="437" y="0" flags="0x0"/>
    </TTGlyph>
    <TTGlyph name="Rcaron" xMin="86" yMin="0" xMax="539" yMax="888">
      <component glyphName="R" x="0" y="0" flags="0x0"/>
      <component glyphName="uni030C.case" x="440" y="0" flags="0x0"/>
    </TTGlyph>
    <TTGlyph name="Rcaron.ss01" xMin="86" yMin="0" xMax="532" yMax="888">
      <component glyphName="R.ss01" x="0" y="0" flags="0x0"/>
      <component glyphName="uni030C.case" x="442" y="0" flags="0x0"/>
    </TTGlyph>
    <TTGlyph name="Rcommaaccent" xMin="86" yMin="-260" xMax="539" yMax="688">
      <component glyphName="R" x="0" y="0" flags="0x0"/>
      <component glyphName="uni0326" x="404" y="0" flags="0x0"/>
    </TTGlyph>
    <TTGlyph name="Rcommaaccent.ss01" xMin="86" yMin="-260" xMax="532" yMax="688">
      <component glyphName="R.ss01" x="0" y="0" flags="0x0"/>
      <component glyphName="uni0326" x="406" y="0" flags="0x0"/>
    </TTGlyph>
    <TTGlyph name="S" xMin="55" yMin="-8" xMax="485" yMax="696">
      <contour>
        <pt x="227" y="-8" on="0"/>
        <pt x="114" y="-1" on="0"/>
        <pt x="72" y="6" on="1"/>
        <pt x="72" y="74" on="1"/>
        <pt x="178" y="63" on="0"/>
        <pt x="255" y="63" on="1"/>
        <pt x="303" y="63" on="0"/>
        <pt x="358" y="73" on="0"/>
        <pt x="376" y="86" on="1"/>
        <pt x="394" y="98" on="0"/>
        <pt x="404" y="147" on="0"/>
        <pt x="404" y="189" on="1"/>
        <pt x="404" y="242" on="0"/>
        <pt x="394" y="284" on="0"/>
        <pt x="359" y="302" on="0"/>
        <pt x="314" y="308" on="1"/>
        <pt x="173" y="326" on="1"/>
        <pt x="122" y="333" on="0"/>
        <pt x="71" y="377" on="0"/>
        <pt x="55" y="447" on="0"/>
        <pt x="55" y="504" on="1"/>
        <pt x="55" y="581" on="0"/>
        <pt x="103" y="664" on="0"/>
        <pt x="196" y="696" on="0"/>
        <pt x="272" y="696" on="1"/>
        <pt x="324" y="696" on="0"/>
        <pt x="423" y="687" on="0"/>
        <pt x="455" y="680" on="1"/>
        <pt x="455" y="614" on="1"/>
        <pt x="381" y="625" on="0"/>
        <pt x="290" y="625" on="1"/>
        <pt x="239" y="625" on="0"/>
        <pt x="179" y="613" on="0"/>
        <pt x="163" y="600" on="1"/>
        <pt x="146" y="587" on="0"/>
        <pt x="135" y="544" on="0"/>
        <pt x="135" y="506" on="1"/>
        <pt x="135" y="462" on="0"/>
        <pt x="145" y="422" on="0"/>
        <pt x="175" y="405" on="0"/>
        <pt x="209" y="401" on="1"/>
        <pt x="347" y="383" on="1"/>
        <pt x="401" y="376" on="0"/>
        <pt x="458" y="347" on="0"/>
        <pt x="472" y="309" on="1"/>
        <pt x="485" y="277" on="0"/>
        <pt x="485" y="197" on="1"/>
        <pt x="485" y="112" on="0"/>
        <pt x="439" y="23" on="0"/>
        <pt x="352" y="-8" on="0"/>
        <pt x="279" y="-8" on="1"/>
      </contour>
    </TTGlyph>
    <TTGlyph name="Sacute" xMin="55" yMin="-8" xMax="485" yMax="888">
      <component glyphName="S" x="0" y="0" flags="0x0"/>
      <component glyphName="acutecomb.case" x="409" y="0" flags="0x0"/>
    </TTGlyph>
    <TTGlyph name="Sacute.loclPLK" xMin="55" yMin="-8" xMax="485" yMax="888">
      <component glyphName="S" x="0" y="0" flags="0x0"/>
      <component glyphName="acute.case.loclPLK" x="221" y="0" flags="0x0"/>
    </TTGlyph>
    <TTGlyph name="Scaron" xMin="55" yMin="-8" xMax="485" yMax="889">
      <component glyphName="S" x="0" y="0" flags="0x0"/>
      <component glyphName="caron" x="132" y="146" flags="0x4"/>
    </TTGlyph>
    <TTGlyph name="Scedilla" xMin="55" yMin="-190" xMax="485" yMax="696">
      <contour>
        <pt x="485" y="115" on="0"/>
        <pt x="443" y="27" on="0"/>
        <pt x="362" y="-6" on="0"/>
        <pt x="295" y="-8" on="1"/>
        <pt x="257" y="-190" on="1"/>
        <pt x="182" y="-190" on="1"/>
        <pt x="182" y="-185" on="1"/>
        <pt x="240" y="-7" on="1"/>
        <pt x="147" y="-5" on="0"/>
        <pt x="72" y="6" on="1"/>
        <pt x="72" y="74" on="1"/>
        <pt x="178" y="63" on="0"/>
        <pt x="255" y="63" on="1"/>
        <pt x="303" y="63" on="0"/>
        <pt x="358" y="73" on="0"/>
        <pt x="376" y="86" on="1"/>
        <pt x="394" y="98" on="0"/>
        <pt x="404" y="147" on="0"/>
        <pt x="404" y="189" on="1"/>
        <pt x="404" y="242" on="0"/>
        <pt x="394" y="284" on="0"/>
        <pt x="359" y="302" on="0"/>
        <pt x="314" y="308" on="1"/>
        <pt x="173" y="326" on="1"/>
        <pt x="122" y="333" on="0"/>
        <pt x="71" y="377" on="0"/>
        <pt x="55" y="447" on="0"/>
        <pt x="55" y="504" on="1"/>
        <pt x="55" y="581" on="0"/>
        <pt x="103" y="664" on="0"/>
        <pt x="196" y="696" on="0"/>
        <pt x="272" y="696" on="1"/>
        <pt x="324" y="696" on="0"/>
        <pt x="423" y="687" on="0"/>
        <pt x="455" y="680" on="1"/>
        <pt x="455" y="614" on="1"/>
        <pt x="381" y="625" on="0"/>
        <pt x="290" y="625" on="1"/>
        <pt x="239" y="625" on="0"/>
        <pt x="179" y="613" on="0"/>
        <pt x="163" y="600" on="1"/>
        <pt x="146" y="587" on="0"/>
        <pt x="135" y="544" on="0"/>
        <pt x="135" y="506" on="1"/>
        <pt x="135" y="462" on="0"/>
        <pt x="145" y="422" on="0"/>
        <pt x="175" y="405" on="0"/>
        <pt x="209" y="401" on="1"/>
        <pt x="347" y="383" on="1"/>
        <pt x="401" y="376" on="0"/>
        <pt x="458" y="347" on="0"/>
        <pt x="472" y="309" on="1"/>
        <pt x="485" y="277" on="0"/>
        <pt x="485" y="197" on="1"/>
      </contour>
    </TTGlyph>
    <TTGlyph name="Scircumflex" xMin="55" yMin="-8" xMax="485" yMax="888">
      <component glyphName="S" x="0" y="0" flags="0x0"/>
      <component glyphName="uni0302.case" x="414" y="0" flags="0x0"/>
    </TTGlyph>
    <TTGlyph name="Scommaaccent" xMin="55" yMin="-260" xMax="485" yMax="696">
      <component glyphName="S" x="0" y="0" flags="0x0"/>
      <component glyphName="uni0326" x="378" y="0" flags="0x0"/>
    </TTGlyph>
    <TTGlyph name="T" xMin="24" yMin="0" xMax="476" yMax="688">
      <contour>
        <pt x="210" y="615" on="1"/>
        <pt x="24" y="615" on="1"/>
        <pt x="24" y="688" on="1"/>
        <pt x="476" y="688" on="1"/>
        <pt x="476" y="615" on="1"/>
        <pt x="290" y="615" on="1"/>
        <pt x="290" y="0" on="1"/>
        <pt x="210" y="0" on="1"/>
      </contour>
    </TTGlyph>
    <TTGlyph name="Tbar" xMin="24" yMin="0" xMax="476" yMax="688">
      <contour>
        <pt x="290" y="615" on="1"/>
        <pt x="290" y="376" on="1"/>
        <pt x="452" y="376" on="1"/>
        <pt x="452" y="311" on="1"/>
        <pt x="290" y="311" on="1"/>
        <pt x="290" y="0" on="1"/>
        <pt x="210" y="0" on="1"/>
        <pt x="210" y="311" on="1"/>
        <pt x="49" y="311" on="1"/>
        <pt x="49" y="376" on="1"/>
        <pt x="210" y="376" on="1"/>
        <pt x="210" y="615" on="1"/>
        <pt x="24" y="615" on="1"/>
        <pt x="24" y="688" on="1"/>
        <pt x="476" y="688" on="1"/>
        <pt x="476" y="615" on="1"/>
      </contour>
    </TTGlyph>
    <TTGlyph name="Tcaron" xMin="24" yMin="0" xMax="476" yMax="888">
      <component glyphName="T" x="0" y="0" flags="0x0"/>
      <component glyphName="uni030C.case" x="394" y="0" flags="0x0"/>
    </TTGlyph>
    <TTGlyph name="Thorn" xMin="86" yMin="0" xMax="520" yMax="688">
      <contour>
        <pt x="86" y="688" on="1"/>
        <pt x="166" y="688" on="1"/>
        <pt x="166" y="568" on="1"/>
        <pt x="340" y="568" on="1"/>
        <pt x="418" y="568" on="0"/>
        <pt x="497" y="514" on="0"/>
        <pt x="520" y="423" on="0"/>
        <pt x="520" y="350" on="1"/>
        <pt x="520" y="280" on="0"/>
        <pt x="496" y="189" on="0"/>
        <pt x="418" y="133" on="0"/>
        <pt x="340" y="133" on="1"/>
        <pt x="166" y="133" on="1"/>
        <pt x="166" y="0" on="1"/>
        <pt x="86" y="0" on="1"/>
      </contour>
      <contour>
        <pt x="318" y="204" on="1"/>
        <pt x="373" y="204" on="0"/>
        <pt x="425" y="234" on="0"/>
        <pt x="440" y="293" on="0"/>
        <pt x="440" y="350" on="1"/>
        <pt x="440" y="408" on="0"/>
        <pt x="426" y="467" on="0"/>
        <pt x="375" y="497" on="0"/>
        <pt x="319" y="497" on="1"/>
        <pt x="166" y="497" on="1"/>
        <pt x="166" y="204" on="1"/>
      </contour>
    </TTGlyph>
    <TTGlyph name="U" xMin="79" yMin="-8" xMax="536" yMax="688">
      <contour>
        <pt x="536" y="688" on="1"/>
        <pt x="536" y="300" on="1"/>
        <pt x="536" y="166" on="0"/>
        <pt x="508" y="43" on="0"/>
        <pt x="414" y="-8" on="0"/>
        <pt x="308" y="-8" on="1"/>
        <pt x="203" y="-8" on="0"/>
        <pt x="108" y="43" on="0"/>
        <pt x="79" y="166" on="0"/>
        <pt x="79" y="300" on="1"/>
        <pt x="79" y="688" on="1"/>
        <pt x="159" y="688" on="1"/>
        <pt x="159" y="265" on="1"/>
        <pt x="159" y="172" on="0"/>
        <pt x="176" y="94" on="0"/>
        <pt x="236" y="63" on="0"/>
        <pt x="308" y="63" on="1"/>
        <pt x="380" y="63" on="0"/>
        <pt x="440" y="94" on="0"/>
        <pt x="456" y="172" on="0"/>
        <pt x="456" y="265" on="1"/>
        <pt x="456" y="688" on="1"/>
      </contour>
    </TTGlyph>
    <TTGlyph name="Uacute" xMin="79" yMin="-8" xMax="536" yMax="891">
      <component glyphName="U" x="0" y="0" flags="0x0"/>
      <component glyphName="acute" x="260" y="148" flags="0x4"/>
    </TTGlyph>
    <TTGlyph name="Ubreve" xMin="79" yMin="-8" xMax="536" yMax="888">
      <component glyphName="U" x="0" y="0" flags="0x0"/>
      <component glyphName="uni0306.case" x="447" y="0" flags="0x0"/>
    </TTGlyph>
    <TTGlyph name="Ucircumflex" xMin="79" yMin="-8" xMax="536" yMax="889">
      <component glyphName="U" x="0" y="0" flags="0x0"/>
      <component glyphName="circumflex" x="164" y="146" flags="0x4"/>
    </TTGlyph>
    <TTGlyph name="Udieresis" xMin="79" yMin="-8" xMax="536" yMax="854">
      <component glyphName="U" x="0" y="0" flags="0x0"/>
      <component glyphName="dieresis" x="161" y="124" flags="0x4"/>
    </TTGlyph>
    <TTGlyph name="Ugrave" xMin="79" yMin="-8" xMax="536" yMax="891">
      <component glyphName="U" x="0" y="0" flags="0x0"/>
      <component glyphName="grave" x="180" y="148" flags="0x4"/>
    </TTGlyph>
    <TTGlyph name="Uhorn" xMin="79" yMin="-8" xMax="634" yMax="785">
      <contour>
        <pt x="634" y="785" on="1"/>
        <pt x="634" y="754" on="1"/>
        <pt x="634" y="712" on="0"/>
        <pt x="620" y="669" on="0"/>
        <pt x="578" y="650" on="0"/>
        <pt x="536" y="649" on="1"/>
        <pt x="536" y="300" on="1"/>
        <pt x="536" y="166" on="0"/>
        <pt x="508" y="43" on="0"/>
        <pt x="414" y="-8" on="0"/>
        <pt x="308" y="-8" on="1"/>
        <pt x="203" y="-8" on="0"/>
        <pt x="108" y="43" on="0"/>
        <pt x="79" y="166" on="0"/>
        <pt x="79" y="300" on="1"/>
        <pt x="79" y="688" on="1"/>
        <pt x="159" y="688" on="1"/>
        <pt x="159" y="265" on="1"/>
        <pt x="159" y="172" on="0"/>
        <pt x="176" y="94" on="0"/>
        <pt x="236" y="63" on="0"/>
        <pt x="308" y="63" on="1"/>
        <pt x="380" y="63" on="0"/>
        <pt x="440" y="94" on="0"/>
        <pt x="456" y="172" on="0"/>
        <pt x="456" y="265" on="1"/>
        <pt x="456" y="688" on="1"/>
        <pt x="522" y="688" on="1"/>
        <pt x="547" y="688" on="0"/>
        <pt x="571" y="698" on="0"/>
        <pt x="579" y="720" on="0"/>
        <pt x="579" y="742" on="1"/>
        <pt x="579" y="785" on="1"/>
      </contour>
    </TTGlyph>
    <TTGlyph name="Uhungarumlaut" xMin="79" yMin="-8" xMax="536" yMax="881">
      <component glyphName="U" x="0" y="0" flags="0x0"/>
      <component glyphName="uni030B.case" x="529" y="0" flags="0x0"/>
    </TTGlyph>
    <TTGlyph name="Umacron" xMin="79" yMin="-8" xMax="536" yMax="887">
      <component glyphName="U" x="0" y="0" flags="0x0"/>
      <component glyphName="uni0304.case" x="476" y="0" flags="0x0"/>
    </TTGlyph>
    <TTGlyph name="Uogonek" xMin="79" yMin="-196" xMax="536" yMax="688">
      <contour>
        <pt x="536" y="688" on="1"/>
        <pt x="536" y="300" on="1"/>
        <pt x="536" y="211" on="0"/>
        <pt x="526" y="107" on="0"/>
        <pt x="496" y="39" on="0"/>
        <pt x="465" y="20" on="1"/>
        <pt x="430" y="-1" on="0"/>
        <pt x="383" y="-67" on="0"/>
        <pt x="383" y="-104" on="1"/>
        <pt x="383" y="-145" on="0"/>
        <pt x="428" y="-145" on="1"/>
        <pt x="439" y="-145" on="0"/>
        <pt x="445" y="-144" on="1"/>
        <pt x="445" y="-194" on="1"/>
        <pt x="413" y="-196" on="0"/>
        <pt x="408" y="-196" on="1"/>
        <pt x="317" y="-196" on="0"/>
        <pt x="317" y="-119" on="1"/>
        <pt x="317" y="-92" on="0"/>
        <pt x="348" y="-32" on="0"/>
        <pt x="374" y="-4" on="1"/>
        <pt x="349" y="-8" on="0"/>
        <pt x="308" y="-8" on="1"/>
        <pt x="203" y="-8" on="0"/>
        <pt x="108" y="43" on="0"/>
        <pt x="79" y="166" on="0"/>
        <pt x="79" y="300" on="1"/>
        <pt x="79" y="688" on="1"/>
        <pt x="159" y="688" on="1"/>
        <pt x="159" y="265" on="1"/>
        <pt x="159" y="172" on="0"/>
        <pt x="176" y="94" on="0"/>
        <pt x="236" y="63" on="0"/>
        <pt x="308" y="63" on="1"/>
        <pt x="380" y="63" on="0"/>
        <pt x="440" y="94" on="0"/>
        <pt x="456" y="172" on="0"/>
        <pt x="456" y="265" on="1"/>
        <pt x="456" y="688" on="1"/>
      </contour>
    </TTGlyph>
    <TTGlyph name="Uring" xMin="79" yMin="-8" xMax="536" yMax="925">
      <component glyphName="U" x="0" y="0" flags="0x0"/>
      <component glyphName="uni030A.case" x="441" y="0" flags="0x0"/>
    </TTGlyph>
    <TTGlyph name="Utilde" xMin="79" yMin="-8" xMax="536" yMax="888">
      <component glyphName="U" x="0" y="0" flags="0x0"/>
      <component glyphName="tildecomb.case" x="483" y="0" flags="0x0"/>
    </TTGlyph>
    <TTGlyph name="V" xMin="22" yMin="0" xMax="547" yMax="688">
      <contour>
        <pt x="22" y="688" on="1"/>
        <pt x="105" y="688" on="1"/>
        <pt x="283" y="98" on="1"/>
        <pt x="288" y="98" on="1"/>
        <pt x="465" y="688" on="1"/>
        <pt x="547" y="688" on="1"/>
        <pt x="336" y="0" on="1"/>
        <pt x="232" y="0" on="1"/>
      </contour>
    </TTGlyph>
    <TTGlyph name="W" xMin="28" yMin="0" xMax="825" yMax="688">
      <contour>
        <pt x="429" y="558" on="1"/>
        <pt x="424" y="558" on="1"/>
        <pt x="285" y="0" on="1"/>
        <pt x="186" y="0" on="1"/>
        <pt x="28" y="688" on="1"/>
        <pt x="110" y="688" on="1"/>
        <pt x="237" y="108" on="1"/>
        <pt x="243" y="108" on="1"/>
        <pt x="384" y="688" on="1"/>
        <pt x="473" y="688" on="1"/>
        <pt x="615" y="108" on="1"/>
        <pt x="621" y="108" on="1"/>
        <pt x="745" y="688" on="1"/>
        <pt x="825" y="688" on="1"/>
        <pt x="668" y="0" on="1"/>
        <pt x="568" y="0" on="1"/>
      </contour>
    </TTGlyph>
    <TTGlyph name="Wacute" xMin="28" yMin="0" xMax="825" yMax="888">
      <component glyphName="W" x="0" y="0" flags="0x0"/>
      <component glyphName="acutecomb.case" x="565" y="0" flags="0x0"/>
    </TTGlyph>
    <TTGlyph name="Wcircumflex" xMin="28" yMin="0" xMax="825" yMax="888">
      <component glyphName="W" x="0" y="0" flags="0x0"/>
      <component glyphName="uni0302.case" x="570" y="0" flags="0x0"/>
    </TTGlyph>
    <TTGlyph name="Wdieresis" xMin="28" yMin="0" xMax="825" yMax="875">
      <component glyphName="W" x="0" y="0" flags="0x0"/>
      <component glyphName="uni0308.case" x="571" y="0" flags="0x0"/>
    </TTGlyph>
    <TTGlyph name="Wgrave" xMin="28" yMin="0" xMax="825" yMax="888">
      <component glyphName="W" x="0" y="0" flags="0x0"/>
      <component glyphName="gravecomb.case" x="476" y="0" flags="0x0"/>
    </TTGlyph>
    <TTGlyph name="X" xMin="24" yMin="0" xMax="560" yMax="688">
      <contour>
        <pt x="294" y="280" on="1"/>
        <pt x="287" y="280" on="1"/>
        <pt x="114" y="0" on="1"/>
        <pt x="24" y="0" on="1"/>
        <pt x="242" y="346" on="1"/>
        <pt x="27" y="688" on="1"/>
        <pt x="119" y="688" on="1"/>
        <pt x="290" y="413" on="1"/>
        <pt x="297" y="413" on="1"/>
        <pt x="468" y="688" on="1"/>
        <pt x="558" y="688" on="1"/>
        <pt x="343" y="348" on="1"/>
        <pt x="560" y="0" on="1"/>
        <pt x="468" y="0" on="1"/>
      </contour>
    </TTGlyph>
    <TTGlyph name="Y" xMin="8" yMin="0" xMax="518" yMax="688">
      <contour>
        <pt x="222" y="262" on="1"/>
        <pt x="8" y="688" on="1"/>
        <pt x="93" y="688" on="1"/>
        <pt x="261" y="352" on="1"/>
        <pt x="268" y="352" on="1"/>
        <pt x="435" y="688" on="1"/>
        <pt x="518" y="688" on="1"/>
        <pt x="303" y="262" on="1"/>
        <pt x="303" y="0" on="1"/>
        <pt x="222" y="0" on="1"/>
      </contour>
    </TTGlyph>
    <TTGlyph name="Y.loclGUA" xMin="35" yMin="0" xMax="492" yMax="688">
      <contour>
        <pt x="492" y="688" on="1"/>
        <pt x="492" y="504" on="1"/>
        <pt x="492" y="379" on="0"/>
        <pt x="468" y="258" on="0"/>
        <pt x="389" y="202" on="0"/>
        <pt x="303" y="198" on="1"/>
        <pt x="303" y="0" on="1"/>
        <pt x="222" y="0" on="1"/>
        <pt x="222" y="198" on="1"/>
        <pt x="137" y="202" on="0"/>
        <pt x="59" y="259" on="0"/>
        <pt x="35" y="380" on="0"/>
        <pt x="35" y="504" on="1"/>
        <pt x="35" y="688" on="1"/>
        <pt x="115" y="688" on="1"/>
        <pt x="115" y="470" on="1"/>
        <pt x="115" y="377" on="0"/>
        <pt x="132" y="299" on="0"/>
        <pt x="192" y="268" on="0"/>
        <pt x="264" y="268" on="1"/>
        <pt x="336" y="268" on="0"/>
        <pt x="396" y="299" on="0"/>
        <pt x="412" y="377" on="0"/>
        <pt x="412" y="470" on="1"/>
        <pt x="412" y="688" on="1"/>
      </contour>
    </TTGlyph>
    <TTGlyph name="Yacute" xMin="8" yMin="0" xMax="518" yMax="891">
      <component glyphName="Y" x="0" y="0" flags="0x0"/>
      <component glyphName="acute" x="221" y="148" flags="0x4"/>
    </TTGlyph>
    <TTGlyph name="Yacute.loclGUA" xMin="35" yMin="0" xMax="492" yMax="888">
      <component glyphName="Y.loclGUA" x="0" y="0" flags="0x0"/>
      <component glyphName="acutecomb.case" x="402" y="0" flags="0x0"/>
    </TTGlyph>
    <TTGlyph name="Ycircumflex" xMin="8" yMin="0" xMax="518" yMax="888">
      <component glyphName="Y" x="0" y="0" flags="0x0"/>
      <component glyphName="uni0302.case" x="407" y="0" flags="0x0"/>
    </TTGlyph>
    <TTGlyph name="Ycircumflex.loclGUA" xMin="35" yMin="0" xMax="492" yMax="888">
      <component glyphName="Y.loclGUA" x="0" y="0" flags="0x0"/>
      <component glyphName="uni0302.case" x="407" y="0" flags="0x0"/>
    </TTGlyph>
    <TTGlyph name="Ydieresis" xMin="8" yMin="0" xMax="518" yMax="854">
      <component glyphName="Y" x="0" y="0" flags="0x0"/>
      <component glyphName="dieresis" x="120" y="124" flags="0x4"/>
    </TTGlyph>
    <TTGlyph name="Ydieresis.loclGUA" xMin="35" yMin="0" xMax="492" yMax="875">
      <component glyphName="Y.loclGUA" x="0" y="0" flags="0x0"/>
      <component glyphName="uni0308.case" x="408" y="0" flags="0x0"/>
    </TTGlyph>
    <TTGlyph name="Ygrave" xMin="8" yMin="0" xMax="518" yMax="888">
      <component glyphName="Y" x="0" y="0" flags="0x0"/>
      <component glyphName="gravecomb.case" x="313" y="0" flags="0x0"/>
    </TTGlyph>
    <TTGlyph name="Ygrave.loclGUA" xMin="35" yMin="0" xMax="492" yMax="888">
      <component glyphName="Y.loclGUA" x="0" y="0" flags="0x0"/>
      <component glyphName="gravecomb.case" x="313" y="0" flags="0x0"/>
    </TTGlyph>
    <TTGlyph name="Z" xMin="43" yMin="0" xMax="479" yMax="688">
      <contour>
        <pt x="43" y="67" on="1"/>
        <pt x="377" y="617" on="1"/>
        <pt x="53" y="617" on="1"/>
        <pt x="53" y="688" on="1"/>
        <pt x="474" y="688" on="1"/>
        <pt x="474" y="622" on="1"/>
        <pt x="139" y="70" on="1"/>
        <pt x="479" y="70" on="1"/>
        <pt x="479" y="0" on="1"/>
        <pt x="43" y="0" on="1"/>
      </contour>
    </TTGlyph>
    <TTGlyph name="Zacute" xMin="43" yMin="0" xMax="479" yMax="888">
      <component glyphName="Z" x="0" y="0" flags="0x0"/>
      <component glyphName="acutecomb.case" x="399" y="0" flags="0x0"/>
    </TTGlyph>
    <TTGlyph name="Zacute.loclPLK" xMin="43" yMin="0" xMax="479" yMax="888">
      <component glyphName="Z" x="0" y="0" flags="0x0"/>
      <component glyphName="acute.case.loclPLK" x="211" y="0" flags="0x0"/>
    </TTGlyph>
    <TTGlyph name="Zcaron" xMin="43" yMin="0" xMax="479" yMax="888">
      <component glyphName="Z" x="0" y="0" flags="0x0"/>
      <component glyphName="caron" x="123" y="145" flags="0x4"/>
    </TTGlyph>
    <TTGlyph name="Zdotaccent" xMin="43" yMin="0" xMax="479" yMax="875">
      <component glyphName="Z" x="0" y="0" flags="0x0"/>
      <component glyphName="uni0307.case" x="313" y="0" flags="0x0"/>
    </TTGlyph>
    <TTGlyph name="a" xMin="46" yMin="-8" xMax="426" yMax="518">
      <contour>
        <pt x="116" y="-8" on="0"/>
        <pt x="46" y="57" on="0"/>
        <pt x="46" y="141" on="1"/>
        <pt x="46" y="199" on="0"/>
        <pt x="71" y="264" on="0"/>
        <pt x="132" y="293" on="0"/>
        <pt x="187" y="293" on="1"/>
        <pt x="215" y="293" on="0"/>
        <pt x="350" y="288" on="1"/>
        <pt x="350" y="322" on="1"/>
        <pt x="350" y="384" on="0"/>
        <pt x="330" y="437" on="0"/>
        <pt x="277" y="452" on="0"/>
        <pt x="214" y="452" on="1"/>
        <pt x="186" y="452" on="0"/>
        <pt x="101" y="446" on="0"/>
        <pt x="75" y="442" on="1"/>
        <pt x="75" y="504" on="1"/>
        <pt x="145" y="518" on="0"/>
        <pt x="238" y="518" on="1"/>
        <pt x="318" y="518" on="0"/>
        <pt x="397" y="483" on="0"/>
        <pt x="426" y="401" on="0"/>
        <pt x="426" y="322" on="1"/>
        <pt x="426" y="0" on="1"/>
        <pt x="358" y="0" on="1"/>
        <pt x="354" y="71" on="1"/>
        <pt x="349" y="71" on="1"/>
        <pt x="331" y="23" on="0"/>
        <pt x="250" y="-8" on="0"/>
        <pt x="196" y="-8" on="1"/>
      </contour>
      <contour>
        <pt x="265" y="58" on="0"/>
        <pt x="318" y="75" on="0"/>
        <pt x="331" y="101" on="1"/>
        <pt x="350" y="140" on="0"/>
        <pt x="350" y="206" on="1"/>
        <pt x="350" y="235" on="1"/>
        <pt x="207" y="235" on="1"/>
        <pt x="170" y="235" on="0"/>
        <pt x="135" y="222" on="0"/>
        <pt x="121" y="185" on="0"/>
        <pt x="121" y="146" on="1"/>
        <pt x="121" y="108" on="0"/>
        <pt x="137" y="72" on="0"/>
        <pt x="179" y="58" on="0"/>
        <pt x="223" y="58" on="1"/>
      </contour>
    </TTGlyph>
    <TTGlyph name="aacute" xMin="46" yMin="-8" xMax="426" yMax="743">
      <component glyphName="a" x="0" y="0" flags="0x0"/>
      <component glyphName="acute" x="196" y="0" flags="0x0"/>
    </TTGlyph>
    <TTGlyph name="abreve" xMin="46" yMin="-8" xMax="426" yMax="743">
      <component glyphName="a" x="0" y="0" flags="0x0"/>
      <component glyphName="uni0306" x="389" y="0" flags="0x0"/>
    </TTGlyph>
    <TTGlyph name="acircumflex" xMin="46" yMin="-8" xMax="426" yMax="743">
      <component glyphName="a" x="0" y="0" flags="0x0"/>
      <component glyphName="circumflex" x="107" y="0" flags="0x0"/>
    </TTGlyph>
    <TTGlyph name="acute" xMin="13" yMin="602" xMax="174" yMax="743">
      <contour>
        <pt x="13" y="607" on="1"/>
        <pt x="92" y="743" on="1"/>
        <pt x="174" y="743" on="1"/>
        <pt x="174" y="738" on="1"/>
        <pt x="71" y="602" on="1"/>
        <pt x="13" y="602" on="1"/>
      </contour>
    </TTGlyph>
    <TTGlyph name="acute.case.loclPLK" xMin="13" yMin="747" xMax="134" yMax="888">
      <contour>
        <pt x="13" y="752" on="1"/>
        <pt x="52" y="888" on="1"/>
        <pt x="134" y="888" on="1"/>
        <pt x="134" y="883" on="1"/>
        <pt x="71" y="747" on="1"/>
        <pt x="13" y="747" on="1"/>
      </contour>
    </TTGlyph>
    <TTGlyph name="acute.loclPLK" xMin="13" yMin="602" xMax="134" yMax="743">
      <contour>
        <pt x="13" y="607" on="1"/>
        <pt x="52" y="743" on="1"/>
        <pt x="134" y="743" on="1"/>
        <pt x="134" y="738" on="1"/>
        <pt x="71" y="602" on="1"/>
        <pt x="13" y="602" on="1"/>
      </contour>
    </TTGlyph>
    <TTGlyph name="acutecomb" xMin="-175" yMin="602" xMax="-14" yMax="743">
      <contour>
        <pt x="-175" y="607" on="1"/>
        <pt x="-96" y="743" on="1"/>
        <pt x="-14" y="743" on="1"/>
        <pt x="-14" y="738" on="1"/>
        <pt x="-117" y="602" on="1"/>
        <pt x="-175" y="602" on="1"/>
      </contour>
    </TTGlyph>
    <TTGlyph name="acutecomb.case" xMin="-175" yMin="747" xMax="-14" yMax="888">
      <contour>
        <pt x="-175" y="752" on="1"/>
        <pt x="-96" y="888" on="1"/>
        <pt x="-14" y="888" on="1"/>
        <pt x="-14" y="883" on="1"/>
        <pt x="-117" y="747" on="1"/>
        <pt x="-175" y="747" on="1"/>
      </contour>
    </TTGlyph>
    <TTGlyph name="adieresis" xMin="46" yMin="-8" xMax="426" yMax="728">
      <component glyphName="a" x="0" y="0" flags="0x0"/>
      <component glyphName="dieresis" x="105" y="-2" flags="0x4"/>
    </TTGlyph>
    <TTGlyph name="ae" xMin="46" yMin="-8" xMax="733" yMax="518">
      <contour>
        <pt x="733" y="232" on="1"/>
        <pt x="426" y="232" on="1"/>
        <pt x="426" y="153" on="0"/>
        <pt x="443" y="84" on="0"/>
        <pt x="502" y="57" on="0"/>
        <pt x="570" y="57" on="1"/>
        <pt x="634" y="57" on="0"/>
        <pt x="716" y="68" on="1"/>
        <pt x="716" y="6" on="1"/>
        <pt x="687" y="0" on="0"/>
        <pt x="597" y="-8" on="0"/>
        <pt x="555" y="-8" on="1"/>
        <pt x="478" y="-8" on="0"/>
        <pt x="399" y="26" on="0"/>
        <pt x="380" y="68" on="1"/>
        <pt x="355" y="22" on="0"/>
        <pt x="267" y="-8" on="0"/>
        <pt x="207" y="-8" on="1"/>
        <pt x="121" y="-8" on="0"/>
        <pt x="46" y="57" on="0"/>
        <pt x="46" y="140" on="1"/>
        <pt x="46" y="198" on="0"/>
        <pt x="71" y="263" on="0"/>
        <pt x="131" y="291" on="0"/>
        <pt x="187" y="291" on="1"/>
        <pt x="277" y="290" on="1"/>
        <pt x="305" y="289" on="0"/>
        <pt x="349" y="289" on="1"/>
        <pt x="349" y="322" on="1"/>
        <pt x="349" y="384" on="0"/>
        <pt x="329" y="436" on="0"/>
        <pt x="276" y="452" on="0"/>
        <pt x="213" y="452" on="1"/>
        <pt x="184" y="452" on="0"/>
        <pt x="98" y="445" on="0"/>
        <pt x="75" y="441" on="1"/>
        <pt x="75" y="504" on="1"/>
        <pt x="152" y="518" on="0"/>
        <pt x="238" y="518" on="1"/>
        <pt x="302" y="518" on="0"/>
        <pt x="373" y="493" on="0"/>
        <pt x="391" y="463" on="1"/>
        <pt x="412" y="492" on="0"/>
        <pt x="487" y="518" on="0"/>
        <pt x="550" y="518" on="1"/>
        <pt x="636" y="518" on="0"/>
        <pt x="713" y="469" on="0"/>
        <pt x="733" y="367" on="0"/>
        <pt x="733" y="257" on="1"/>
      </contour>
      <contour>
        <pt x="491" y="453" on="0"/>
        <pt x="442" y="429" on="0"/>
        <pt x="426" y="364" on="0"/>
        <pt x="426" y="288" on="1"/>
        <pt x="659" y="288" on="1"/>
        <pt x="659" y="296" on="1"/>
        <pt x="659" y="367" on="0"/>
        <pt x="640" y="432" on="0"/>
        <pt x="595" y="453" on="0"/>
        <pt x="548" y="453" on="1"/>
      </contour>
      <contour>
        <pt x="349" y="232" on="1"/>
        <pt x="206" y="232" on="1"/>
        <pt x="169" y="232" on="0"/>
        <pt x="134" y="220" on="0"/>
        <pt x="120" y="185" on="0"/>
        <pt x="120" y="146" on="1"/>
        <pt x="120" y="108" on="0"/>
        <pt x="136" y="71" on="0"/>
        <pt x="178" y="57" on="0"/>
        <pt x="222" y="57" on="1"/>
        <pt x="266" y="57" on="0"/>
        <pt x="322" y="77" on="0"/>
        <pt x="334" y="107" on="1"/>
        <pt x="349" y="144" on="0"/>
        <pt x="349" y="205" on="1"/>
      </contour>
    </TTGlyph>
    <TTGlyph name="aeacute" xMin="46" yMin="-8" xMax="733" yMax="743">
      <component glyphName="ae" x="0" y="0" flags="0x0"/>
      <component glyphName="acutecomb" x="535" y="0" flags="0x0"/>
    </TTGlyph>
    <TTGlyph name="agrave" xMin="46" yMin="-8" xMax="426" yMax="743">
      <component glyphName="a" x="0" y="0" flags="0x0"/>
      <component glyphName="grave" x="119" y="0" flags="0x0"/>
    </TTGlyph>
    <TTGlyph name="amacron" xMin="46" yMin="-8" xMax="426" yMax="742">
      <component glyphName="a" x="0" y="0" flags="0x0"/>
      <component glyphName="uni0304" x="418" y="0" flags="0x0"/>
    </TTGlyph>
    <TTGlyph name="ampersand" xMin="60" yMin="-8" xMax="609" yMax="696">
      <contour>
        <pt x="609" y="382" on="1"/>
        <pt x="609" y="314" on="1"/>
        <pt x="508" y="314" on="1"/>
        <pt x="508" y="10" on="1"/>
        <pt x="477" y="3" on="0"/>
        <pt x="366" y="-8" on="0"/>
        <pt x="316" y="-8" on="1"/>
        <pt x="210" y="-8" on="0"/>
        <pt x="99" y="36" on="0"/>
        <pt x="60" y="117" on="0"/>
        <pt x="60" y="184" on="1"/>
        <pt x="60" y="263" on="0"/>
        <pt x="113" y="334" on="0"/>
        <pt x="170" y="349" on="1"/>
        <pt x="170" y="353" on="1"/>
        <pt x="116" y="368" on="0"/>
        <pt x="65" y="442" on="0"/>
        <pt x="65" y="515" on="1"/>
        <pt x="65" y="575" on="0"/>
        <pt x="107" y="653" on="0"/>
        <pt x="217" y="696" on="0"/>
        <pt x="316" y="696" on="1"/>
        <pt x="357" y="696" on="0"/>
        <pt x="464" y="686" on="0"/>
        <pt x="505" y="678" on="1"/>
        <pt x="505" y="615" on="1"/>
        <pt x="466" y="621" on="0"/>
        <pt x="372" y="629" on="0"/>
        <pt x="340" y="629" on="1"/>
        <pt x="253" y="629" on="0"/>
        <pt x="169" y="606" on="0"/>
        <pt x="142" y="554" on="0"/>
        <pt x="142" y="504" on="1"/>
        <pt x="142" y="466" on="0"/>
        <pt x="158" y="415" on="0"/>
        <pt x="211" y="382" on="0"/>
        <pt x="264" y="382" on="1"/>
        <pt x="342" y="382" on="1"/>
        <pt x="342" y="314" on="1"/>
        <pt x="264" y="314" on="1"/>
        <pt x="209" y="314" on="0"/>
        <pt x="154" y="286" on="0"/>
        <pt x="137" y="233" on="0"/>
        <pt x="137" y="186" on="1"/>
        <pt x="137" y="132" on="0"/>
        <pt x="175" y="77" on="0"/>
        <pt x="250" y="58" on="0"/>
        <pt x="319" y="58" on="1"/>
        <pt x="384" y="58" on="0"/>
        <pt x="432" y="66" on="1"/>
        <pt x="432" y="382" on="1"/>
      </contour>
    </TTGlyph>
    <TTGlyph name="aogonek" xMin="46" yMin="-196" xMax="429" yMax="518">
      <contour>
        <pt x="422" y="-145" on="0"/>
        <pt x="429" y="-144" on="1"/>
        <pt x="429" y="-194" on="1"/>
        <pt x="397" y="-196" on="0"/>
        <pt x="392" y="-196" on="1"/>
        <pt x="344" y="-196" on="0"/>
        <pt x="301" y="-154" on="0"/>
        <pt x="301" y="-121" on="1"/>
        <pt x="301" y="-90" on="0"/>
        <pt x="334" y="-27" on="0"/>
        <pt x="361" y="0" on="1"/>
        <pt x="358" y="0" on="1"/>
        <pt x="354" y="71" on="1"/>
        <pt x="349" y="71" on="1"/>
        <pt x="331" y="23" on="0"/>
        <pt x="250" y="-8" on="0"/>
        <pt x="196" y="-8" on="1"/>
        <pt x="116" y="-8" on="0"/>
        <pt x="46" y="57" on="0"/>
        <pt x="46" y="141" on="1"/>
        <pt x="46" y="199" on="0"/>
        <pt x="71" y="264" on="0"/>
        <pt x="132" y="293" on="0"/>
        <pt x="187" y="293" on="1"/>
        <pt x="215" y="293" on="0"/>
        <pt x="350" y="288" on="1"/>
        <pt x="350" y="322" on="1"/>
        <pt x="350" y="384" on="0"/>
        <pt x="330" y="437" on="0"/>
        <pt x="277" y="452" on="0"/>
        <pt x="214" y="452" on="1"/>
        <pt x="186" y="452" on="0"/>
        <pt x="101" y="446" on="0"/>
        <pt x="75" y="442" on="1"/>
        <pt x="75" y="504" on="1"/>
        <pt x="145" y="518" on="0"/>
        <pt x="238" y="518" on="1"/>
        <pt x="318" y="518" on="0"/>
        <pt x="397" y="483" on="0"/>
        <pt x="426" y="401" on="0"/>
        <pt x="426" y="322" on="1"/>
        <pt x="426" y="0" on="1"/>
        <pt x="404" y="-16" on="0"/>
        <pt x="367" y="-78" on="0"/>
        <pt x="367" y="-105" on="1"/>
        <pt x="367" y="-145" on="0"/>
        <pt x="412" y="-145" on="1"/>
      </contour>
      <contour>
        <pt x="350" y="235" on="1"/>
        <pt x="207" y="235" on="1"/>
        <pt x="170" y="235" on="0"/>
        <pt x="135" y="222" on="0"/>
        <pt x="121" y="185" on="0"/>
        <pt x="121" y="146" on="1"/>
        <pt x="121" y="108" on="0"/>
        <pt x="137" y="72" on="0"/>
        <pt x="179" y="58" on="0"/>
        <pt x="223" y="58" on="1"/>
        <pt x="265" y="58" on="0"/>
        <pt x="318" y="75" on="0"/>
        <pt x="331" y="101" on="1"/>
        <pt x="350" y="140" on="0"/>
        <pt x="350" y="206" on="1"/>
      </contour>
    </TTGlyph>
    <TTGlyph name="approxequal" xMin="64" yMin="102" xMax="406" yMax="406">
      <contour>
        <pt x="64" y="326" on="0"/>
        <pt x="74" y="372" on="0"/>
        <pt x="104" y="395" on="0"/>
        <pt x="136" y="395" on="1"/>
        <pt x="161" y="395" on="0"/>
        <pt x="212" y="383" on="0"/>
        <pt x="247" y="371" on="1"/>
        <pt x="268" y="364" on="0"/>
        <pt x="313" y="352" on="0"/>
        <pt x="329" y="352" on="1"/>
        <pt x="349" y="352" on="0"/>
        <pt x="360" y="374" on="0"/>
        <pt x="360" y="406" on="1"/>
        <pt x="406" y="406" on="1"/>
        <pt x="406" y="363" on="0"/>
        <pt x="396" y="318" on="0"/>
        <pt x="366" y="295" on="0"/>
        <pt x="334" y="295" on="1"/>
        <pt x="310" y="295" on="0"/>
        <pt x="263" y="306" on="0"/>
        <pt x="224" y="318" on="1"/>
        <pt x="169" y="337" on="0"/>
        <pt x="141" y="337" on="1"/>
        <pt x="121" y="337" on="0"/>
        <pt x="110" y="315" on="0"/>
        <pt x="110" y="284" on="1"/>
        <pt x="64" y="284" on="1"/>
      </contour>
      <contour>
        <pt x="64" y="145" on="0"/>
        <pt x="74" y="191" on="0"/>
        <pt x="104" y="214" on="0"/>
        <pt x="136" y="214" on="1"/>
        <pt x="160" y="214" on="0"/>
        <pt x="204" y="203" on="0"/>
        <pt x="247" y="190" on="1"/>
        <pt x="268" y="183" on="0"/>
        <pt x="313" y="171" on="0"/>
        <pt x="329" y="171" on="1"/>
        <pt x="349" y="171" on="0"/>
        <pt x="360" y="193" on="0"/>
        <pt x="360" y="225" on="1"/>
        <pt x="406" y="225" on="1"/>
        <pt x="406" y="182" on="0"/>
        <pt x="396" y="136" on="0"/>
        <pt x="366" y="113" on="0"/>
        <pt x="334" y="113" on="1"/>
        <pt x="309" y="113" on="0"/>
        <pt x="259" y="125" on="0"/>
        <pt x="224" y="137" on="1"/>
        <pt x="220" y="138" on="0"/>
        <pt x="183" y="150" on="0"/>
        <pt x="153" y="156" on="0"/>
        <pt x="141" y="156" on="1"/>
        <pt x="121" y="156" on="0"/>
        <pt x="110" y="134" on="0"/>
        <pt x="110" y="102" on="1"/>
        <pt x="64" y="102" on="1"/>
      </contour>
    </TTGlyph>
    <TTGlyph name="aring" xMin="46" yMin="-8" xMax="426" yMax="800">
      <component glyphName="a" x="0" y="0" flags="0x0"/>
      <component glyphName="ring" x="117" y="-10" flags="0x4"/>
    </TTGlyph>
    <TTGlyph name="aringacute" xMin="46" yMin="-8" xMax="426" yMax="983">
      <component glyphName="a" x="0" y="0" flags="0x0"/>
      <component glyphName="uni030A" x="383" y="0" flags="0x0"/>
      <component glyphName="acutecomb" x="392" y="240" flags="0x4"/>
    </TTGlyph>
    <TTGlyph name="arrowboth" xMin="55" yMin="176" xMax="828" yMax="433">
      <contour>
        <pt x="55" y="304" on="1"/>
        <pt x="326" y="433" on="1"/>
        <pt x="288" y="336" on="1"/>
        <pt x="595" y="336" on="1"/>
        <pt x="557" y="433" on="1"/>
        <pt x="828" y="304" on="1"/>
        <pt x="557" y="176" on="1"/>
        <pt x="595" y="272" on="1"/>
        <pt x="288" y="272" on="1"/>
        <pt x="326" y="176" on="1"/>
      </contour>
    </TTGlyph>
    <TTGlyph name="arrowdown" xMin="69" yMin="-85" xMax="326" yMax="688">
      <contour>
        <pt x="69" y="186" on="1"/>
        <pt x="166" y="148" on="1"/>
        <pt x="166" y="688" on="1"/>
        <pt x="230" y="688" on="1"/>
        <pt x="230" y="148" on="1"/>
        <pt x="326" y="186" on="1"/>
        <pt x="198" y="-85" on="1"/>
      </contour>
    </TTGlyph>
    <TTGlyph name="arrowdown.ss01" xMin="30" yMin="171" xMax="315" yMax="456">
      <contour>
        <pt x="30" y="456" on="1"/>
        <pt x="315" y="456" on="1"/>
        <pt x="173" y="171" on="1"/>
      </contour>
    </TTGlyph>
    <TTGlyph name="arrowleft" xMin="55" yMin="176" xMax="828" yMax="433">
      <contour>
        <pt x="321" y="176" on="1"/>
        <pt x="55" y="304" on="1"/>
        <pt x="321" y="433" on="1"/>
        <pt x="283" y="336" on="1"/>
        <pt x="828" y="336" on="1"/>
        <pt x="828" y="272" on="1"/>
        <pt x="283" y="272" on="1"/>
      </contour>
    </TTGlyph>
    <TTGlyph name="arrowleft.ss01" xMin="30" yMin="201" xMax="315" yMax="486">
      <contour>
        <pt x="30" y="343" on="1"/>
        <pt x="315" y="486" on="1"/>
        <pt x="315" y="201" on="1"/>
      </contour>
    </TTGlyph>
    <TTGlyph name="arrowright" xMin="55" yMin="176" xMax="828" yMax="433">
      <contour>
        <pt x="595" y="272" on="1"/>
        <pt x="55" y="272" on="1"/>
        <pt x="55" y="336" on="1"/>
        <pt x="595" y="336" on="1"/>
        <pt x="557" y="433" on="1"/>
        <pt x="828" y="304" on="1"/>
        <pt x="557" y="176" on="1"/>
      </contour>
    </TTGlyph>
    <TTGlyph name="arrowright.ss01" xMin="48" yMin="201" xMax="333" yMax="486">
      <contour>
        <pt x="48" y="486" on="1"/>
        <pt x="333" y="343" on="1"/>
        <pt x="48" y="201" on="1"/>
      </contour>
    </TTGlyph>
    <TTGlyph name="arrowup" xMin="69" yMin="-82" xMax="326" yMax="691">
      <contour>
        <pt x="166" y="458" on="1"/>
        <pt x="69" y="420" on="1"/>
        <pt x="198" y="691" on="1"/>
        <pt x="326" y="420" on="1"/>
        <pt x="230" y="458" on="1"/>
        <pt x="230" y="-82" on="1"/>
        <pt x="166" y="-82" on="1"/>
      </contour>
    </TTGlyph>
    <TTGlyph name="arrowup.ss01" xMin="30" yMin="231" xMax="315" yMax="516">
      <contour>
        <pt x="173" y="516" on="1"/>
        <pt x="315" y="231" on="1"/>
        <pt x="30" y="231" on="1"/>
      </contour>
    </TTGlyph>
    <TTGlyph name="arrowupdn" xMin="69" yMin="-85" xMax="326" yMax="696">
      <contour>
        <pt x="69" y="186" on="1"/>
        <pt x="166" y="148" on="1"/>
        <pt x="166" y="463" on="1"/>
        <pt x="69" y="425" on="1"/>
        <pt x="198" y="696" on="1"/>
        <pt x="326" y="425" on="1"/>
        <pt x="230" y="463" on="1"/>
        <pt x="230" y="148" on="1"/>
        <pt x="326" y="186" on="1"/>
        <pt x="198" y="-85" on="1"/>
      </contour>
    </TTGlyph>
    <TTGlyph name="arrowupdnbse" xMin="55" yMin="-183" xMax="340" yMax="696">
      <contour>
        <pt x="69" y="186" on="1"/>
        <pt x="166" y="148" on="1"/>
        <pt x="166" y="463" on="1"/>
        <pt x="69" y="425" on="1"/>
        <pt x="198" y="696" on="1"/>
        <pt x="326" y="425" on="1"/>
        <pt x="230" y="463" on="1"/>
        <pt x="230" y="148" on="1"/>
        <pt x="326" y="186" on="1"/>
        <pt x="198" y="-85" on="1"/>
      </contour>
      <contour>
        <pt x="55" y="-124" on="1"/>
        <pt x="340" y="-124" on="1"/>
        <pt x="340" y="-183" on="1"/>
        <pt x="55" y="-183" on="1"/>
      </contour>
    </TTGlyph>
    <TTGlyph name="asciicircum" xMin="47" yMin="459" xMax="386" yMax="749">
      <contour>
        <pt x="217" y="694" on="1"/>
        <pt x="113" y="459" on="1"/>
        <pt x="47" y="459" on="1"/>
        <pt x="180" y="749" on="1"/>
        <pt x="254" y="749" on="1"/>
        <pt x="386" y="459" on="1"/>
        <pt x="321" y="459" on="1"/>
      </contour>
    </TTGlyph>
    <TTGlyph name="asciitilde" xMin="64" yMin="241" xMax="406" yMax="364">
      <contour>
        <pt x="406" y="321" on="0"/>
        <pt x="396" y="275" on="0"/>
        <pt x="366" y="252" on="0"/>
        <pt x="334" y="252" on="1"/>
        <pt x="309" y="252" on="0"/>
        <pt x="259" y="264" on="0"/>
        <pt x="224" y="276" on="1"/>
        <pt x="220" y="277" on="0"/>
        <pt x="183" y="289" on="0"/>
        <pt x="153" y="295" on="0"/>
        <pt x="141" y="295" on="1"/>
        <pt x="121" y="295" on="0"/>
        <pt x="110" y="273" on="0"/>
        <pt x="110" y="241" on="1"/>
        <pt x="64" y="241" on="1"/>
        <pt x="64" y="284" on="0"/>
        <pt x="74" y="330" on="0"/>
        <pt x="104" y="353" on="0"/>
        <pt x="136" y="353" on="1"/>
        <pt x="160" y="353" on="0"/>
        <pt x="204" y="342" on="0"/>
        <pt x="247" y="329" on="1"/>
        <pt x="253" y="327" on="0"/>
        <pt x="289" y="316" on="0"/>
        <pt x="317" y="310" on="0"/>
        <pt x="329" y="310" on="1"/>
        <pt x="349" y="310" on="0"/>
        <pt x="360" y="332" on="0"/>
        <pt x="360" y="364" on="1"/>
        <pt x="406" y="364" on="1"/>
      </contour>
    </TTGlyph>
    <TTGlyph name="asterisk" xMin="47" yMin="339" xMax="377" yMax="688">
      <contour>
        <pt x="239" y="339" on="1"/>
        <pt x="185" y="339" on="1"/>
        <pt x="192" y="479" on="1"/>
        <pt x="74" y="402" on="1"/>
        <pt x="48" y="450" on="1"/>
        <pt x="173" y="513" on="1"/>
        <pt x="47" y="577" on="1"/>
        <pt x="74" y="625" on="1"/>
        <pt x="192" y="547" on="1"/>
        <pt x="185" y="688" on="1"/>
        <pt x="239" y="688" on="1"/>
        <pt x="231" y="547" on="1"/>
        <pt x="350" y="625" on="1"/>
        <pt x="376" y="577" on="1"/>
        <pt x="251" y="513" on="1"/>
        <pt x="377" y="450" on="1"/>
        <pt x="350" y="402" on="1"/>
        <pt x="231" y="479" on="1"/>
      </contour>
    </TTGlyph>
    <TTGlyph name="asterisk.ss02" xMin="35" yMin="-14" xMax="782" yMax="705">
      <contour>
        <pt x="269" y="262" on="1"/>
        <pt x="35" y="436" on="1"/>
        <pt x="322" y="436" on="1"/>
        <pt x="409" y="705" on="1"/>
        <pt x="494" y="436" on="1"/>
        <pt x="782" y="436" on="1"/>
        <pt x="550" y="262" on="1"/>
        <pt x="640" y="-14" on="1"/>
        <pt x="409" y="156" on="1"/>
        <pt x="178" y="-14" on="1"/>
      </contour>
    </TTGlyph>
    <TTGlyph name="at" xMin="73" yMin="-108" xMax="740" yMax="696">
      <contour>
        <pt x="238" y="-108" on="0"/>
        <pt x="106" y="-53" on="0"/>
        <pt x="73" y="97" on="0"/>
        <pt x="73" y="294" on="1"/>
        <pt x="73" y="491" on="0"/>
        <pt x="106" y="641" on="0"/>
        <pt x="238" y="696" on="0"/>
        <pt x="406" y="696" on="1"/>
        <pt x="575" y="696" on="0"/>
        <pt x="707" y="642" on="0"/>
        <pt x="740" y="492" on="0"/>
        <pt x="740" y="294" on="1"/>
        <pt x="740" y="189" on="0"/>
        <pt x="719" y="98" on="0"/>
        <pt x="674" y="75" on="0"/>
        <pt x="625" y="75" on="1"/>
        <pt x="505" y="75" on="1"/>
        <pt x="501" y="135" on="1"/>
        <pt x="496" y="135" on="1"/>
        <pt x="481" y="95" on="0"/>
        <pt x="417" y="68" on="0"/>
        <pt x="372" y="68" on="1"/>
        <pt x="304" y="68" on="0"/>
        <pt x="245" y="124" on="0"/>
        <pt x="245" y="196" on="1"/>
        <pt x="245" y="246" on="0"/>
        <pt x="265" y="301" on="0"/>
        <pt x="316" y="326" on="0"/>
        <pt x="362" y="326" on="1"/>
        <pt x="410" y="326" on="0"/>
        <pt x="498" y="322" on="1"/>
        <pt x="498" y="350" on="1"/>
        <pt x="498" y="402" on="0"/>
        <pt x="483" y="446" on="0"/>
        <pt x="440" y="458" on="0"/>
        <pt x="388" y="458" on="1"/>
        <pt x="363" y="458" on="0"/>
        <pt x="286" y="453" on="0"/>
        <pt x="270" y="450" on="1"/>
        <pt x="270" y="506" on="1"/>
        <pt x="339" y="518" on="0"/>
        <pt x="410" y="518" on="1"/>
        <pt x="478" y="518" on="0"/>
        <pt x="544" y="487" on="0"/>
        <pt x="567" y="418" on="0"/>
        <pt x="567" y="351" on="1"/>
        <pt x="567" y="117" on="1"/>
        <pt x="635" y="117" on="1"/>
        <pt x="660" y="117" on="0"/>
        <pt x="683" y="134" on="0"/>
        <pt x="694" y="208" on="0"/>
        <pt x="694" y="294" on="1"/>
        <pt x="694" y="444" on="0"/>
        <pt x="680" y="573" on="0"/>
        <pt x="627" y="636" on="0"/>
        <pt x="563" y="646" on="1"/>
        <pt x="510" y="654" on="0"/>
        <pt x="405" y="654" on="1"/>
        <pt x="312" y="654" on="0"/>
        <pt x="259" y="647" on="1"/>
        <pt x="191" y="639" on="0"/>
        <pt x="133" y="578" on="0"/>
        <pt x="118" y="447" on="0"/>
        <pt x="118" y="294" on="1"/>
        <pt x="118" y="133" on="0"/>
        <pt x="136" y="2" on="0"/>
        <pt x="205" y="-55" on="0"/>
        <pt x="290" y="-62" on="1"/>
        <pt x="331" y="-65" on="0"/>
        <pt x="406" y="-65" on="1"/>
        <pt x="536" y="-65" on="0"/>
        <pt x="567" y="-62" on="1"/>
        <pt x="567" y="-106" on="1"/>
        <pt x="531" y="-108" on="0"/>
        <pt x="406" y="-108" on="1"/>
      </contour>
      <contour>
        <pt x="436" y="126" on="0"/>
        <pt x="480" y="147" on="0"/>
        <pt x="498" y="198" on="0"/>
        <pt x="498" y="246" on="1"/>
        <pt x="498" y="275" on="1"/>
        <pt x="380" y="275" on="1"/>
        <pt x="350" y="275" on="0"/>
        <pt x="323" y="265" on="0"/>
        <pt x="312" y="234" on="0"/>
        <pt x="312" y="200" on="1"/>
        <pt x="312" y="168" on="0"/>
        <pt x="324" y="138" on="0"/>
        <pt x="358" y="126" on="0"/>
        <pt x="394" y="126" on="1"/>
      </contour>
    </TTGlyph>
    <TTGlyph name="atilde" xMin="46" yMin="-8" xMax="426" yMax="743">
      <component glyphName="a" x="0" y="0" flags="0x0"/>
      <component glyphName="tilde" x="75" y="0" flags="0x0"/>
    </TTGlyph>
    <TTGlyph name="b" xMin="75" yMin="-8" xMax="466" yMax="743">
      <contour>
        <pt x="244" y="-8" on="0"/>
        <pt x="169" y="25" on="0"/>
        <pt x="152" y="71" on="1"/>
        <pt x="147" y="71" on="1"/>
        <pt x="143" y="0" on="1"/>
        <pt x="75" y="0" on="1"/>
        <pt x="75" y="743" on="1"/>
        <pt x="151" y="743" on="1"/>
        <pt x="151" y="447" on="1"/>
        <pt x="156" y="447" on="1"/>
        <pt x="173" y="485" on="0"/>
        <pt x="244" y="518" on="0"/>
        <pt x="300" y="518" on="1"/>
        <pt x="368" y="518" on="0"/>
        <pt x="438" y="472" on="0"/>
        <pt x="466" y="362" on="0"/>
        <pt x="466" y="255" on="1"/>
        <pt x="466" y="148" on="0"/>
        <pt x="437" y="37" on="0"/>
        <pt x="367" y="-8" on="0"/>
        <pt x="299" y="-8" on="1"/>
      </contour>
      <contour>
        <pt x="326" y="61" on="0"/>
        <pt x="373" y="86" on="0"/>
        <pt x="390" y="164" on="0"/>
        <pt x="390" y="255" on="1"/>
        <pt x="390" y="346" on="0"/>
        <pt x="373" y="423" on="0"/>
        <pt x="326" y="449" on="0"/>
        <pt x="270" y="449" on="1"/>
        <pt x="227" y="449" on="0"/>
        <pt x="176" y="423" on="0"/>
        <pt x="166" y="395" on="1"/>
        <pt x="157" y="371" on="0"/>
        <pt x="151" y="306" on="0"/>
        <pt x="151" y="255" on="1"/>
        <pt x="151" y="206" on="0"/>
        <pt x="157" y="142" on="0"/>
        <pt x="165" y="118" on="1"/>
        <pt x="175" y="88" on="0"/>
        <pt x="226" y="61" on="0"/>
        <pt x="270" y="61" on="1"/>
      </contour>
    </TTGlyph>
    <TTGlyph name="backslash" xMin="6" yMin="-55" xMax="319" yMax="743">
      <contour>
        <pt x="6" y="743" on="1"/>
        <pt x="77" y="743" on="1"/>
        <pt x="319" y="-55" on="1"/>
        <pt x="249" y="-55" on="1"/>
      </contour>
    </TTGlyph>
    <TTGlyph name="bar" xMin="91" yMin="-161" xMax="161" yMax="743">
      <contour>
        <pt x="91" y="743" on="1"/>
        <pt x="161" y="743" on="1"/>
        <pt x="161" y="-161" on="1"/>
        <pt x="91" y="-161" on="1"/>
      </contour>
    </TTGlyph>
    <TTGlyph name="bar.ss02" xMin="-1" yMin="0" xMax="499" yMax="696">
      <contour>
        <pt x="-1" y="696" on="1"/>
        <pt x="499" y="696" on="1"/>
        <pt x="499" y="0" on="1"/>
        <pt x="-1" y="0" on="1"/>
      </contour>
    </TTGlyph>
    <TTGlyph name="braceleft" xMin="24" yMin="-150" xMax="277" yMax="743">
      <contour>
        <pt x="196" y="-137" on="0"/>
        <pt x="148" y="-83" on="0"/>
        <pt x="115" y="-8" on="0"/>
        <pt x="115" y="33" on="1"/>
        <pt x="115" y="149" on="1"/>
        <pt x="115" y="201" on="0"/>
        <pt x="74" y="273" on="0"/>
        <pt x="24" y="274" on="1"/>
        <pt x="24" y="318" on="1"/>
        <pt x="74" y="319" on="0"/>
        <pt x="115" y="391" on="0"/>
        <pt x="115" y="443" on="1"/>
        <pt x="115" y="560" on="1"/>
        <pt x="115" y="601" on="0"/>
        <pt x="148" y="676" on="0"/>
        <pt x="196" y="730" on="0"/>
        <pt x="218" y="743" on="1"/>
        <pt x="277" y="743" on="1"/>
        <pt x="241" y="710" on="0"/>
        <pt x="187" y="615" on="0"/>
        <pt x="187" y="566" on="1"/>
        <pt x="187" y="446" on="1"/>
        <pt x="187" y="322" on="0"/>
        <pt x="99" y="300" on="1"/>
        <pt x="99" y="293" on="1"/>
        <pt x="187" y="271" on="0"/>
        <pt x="187" y="146" on="1"/>
        <pt x="187" y="27" on="1"/>
        <pt x="187" y="-23" on="0"/>
        <pt x="240" y="-117" on="0"/>
        <pt x="277" y="-150" on="1"/>
        <pt x="218" y="-150" on="1"/>
      </contour>
    </TTGlyph>
    <TTGlyph name="braceright" xMin="18" yMin="-150" xMax="270" yMax="743">
      <contour>
        <pt x="54" y="-116" on="0"/>
        <pt x="108" y="-22" on="0"/>
        <pt x="108" y="27" on="1"/>
        <pt x="108" y="146" on="1"/>
        <pt x="108" y="271" on="0"/>
        <pt x="196" y="293" on="1"/>
        <pt x="196" y="300" on="1"/>
        <pt x="108" y="322" on="0"/>
        <pt x="108" y="446" on="1"/>
        <pt x="108" y="566" on="1"/>
        <pt x="108" y="615" on="0"/>
        <pt x="55" y="708" on="0"/>
        <pt x="18" y="743" on="1"/>
        <pt x="77" y="743" on="1"/>
        <pt x="99" y="730" on="0"/>
        <pt x="147" y="676" on="0"/>
        <pt x="180" y="601" on="0"/>
        <pt x="180" y="560" on="1"/>
        <pt x="180" y="443" on="1"/>
        <pt x="180" y="390" on="0"/>
        <pt x="220" y="319" on="0"/>
        <pt x="270" y="318" on="1"/>
        <pt x="270" y="274" on="1"/>
        <pt x="220" y="273" on="0"/>
        <pt x="180" y="202" on="0"/>
        <pt x="180" y="149" on="1"/>
        <pt x="180" y="33" on="1"/>
        <pt x="180" y="-8" on="0"/>
        <pt x="147" y="-83" on="0"/>
        <pt x="99" y="-137" on="0"/>
        <pt x="77" y="-150" on="1"/>
        <pt x="18" y="-150" on="1"/>
      </contour>
    </TTGlyph>
    <TTGlyph name="bracketleft" xMin="86" yMin="-150" xMax="261" yMax="743">
      <contour>
        <pt x="86" y="743" on="1"/>
        <pt x="261" y="743" on="1"/>
        <pt x="261" y="687" on="1"/>
        <pt x="158" y="683" on="1"/>
        <pt x="158" y="-90" on="1"/>
        <pt x="261" y="-94" on="1"/>
        <pt x="261" y="-150" on="1"/>
        <pt x="86" y="-150" on="1"/>
      </contour>
    </TTGlyph>
    <TTGlyph name="bracketleft.ss02" xMin="45" yMin="0" xMax="397" yMax="696">
      <contour>
        <pt x="45" y="0" on="1"/>
        <pt x="45" y="348" on="1"/>
        <pt x="45" y="449" on="0"/>
        <pt x="135" y="608" on="0"/>
        <pt x="295" y="696" on="0"/>
        <pt x="397" y="696" on="1"/>
        <pt x="397" y="0" on="1"/>
      </contour>
    </TTGlyph>
    <TTGlyph name="bracketright" xMin="36" yMin="-150" xMax="211" yMax="743">
      <contour>
        <pt x="36" y="-94" on="1"/>
        <pt x="139" y="-90" on="1"/>
        <pt x="139" y="683" on="1"/>
        <pt x="36" y="687" on="1"/>
        <pt x="36" y="743" on="1"/>
        <pt x="211" y="743" on="1"/>
        <pt x="211" y="-150" on="1"/>
        <pt x="36" y="-150" on="1"/>
      </contour>
    </TTGlyph>
    <TTGlyph name="bracketright.ss02" xMin="0" yMin="0" xMax="352" yMax="696">
      <contour>
        <pt x="0" y="696" on="1"/>
        <pt x="102" y="696" on="0"/>
        <pt x="262" y="608" on="0"/>
        <pt x="352" y="449" on="0"/>
        <pt x="352" y="348" on="1"/>
        <pt x="352" y="0" on="1"/>
        <pt x="0" y="0" on="1"/>
      </contour>
    </TTGlyph>
    <TTGlyph name="breve" xMin="13" yMin="601" xMax="266" yMax="743">
      <contour>
        <pt x="266" y="694" on="0"/>
        <pt x="251" y="636" on="0"/>
        <pt x="196" y="601" on="0"/>
        <pt x="139" y="601" on="1"/>
        <pt x="82" y="601" on="0"/>
        <pt x="28" y="635" on="0"/>
        <pt x="13" y="693" on="0"/>
        <pt x="13" y="743" on="1"/>
        <pt x="65" y="743" on="1"/>
        <pt x="65" y="706" on="0"/>
        <pt x="72" y="670" on="0"/>
        <pt x="104" y="650" on="0"/>
        <pt x="139" y="650" on="1"/>
        <pt x="174" y="650" on="0"/>
        <pt x="206" y="670" on="0"/>
        <pt x="214" y="707" on="0"/>
        <pt x="214" y="743" on="1"/>
        <pt x="266" y="743" on="1"/>
      </contour>
    </TTGlyph>
    <TTGlyph name="brokenbar" xMin="91" yMin="-161" xMax="161" yMax="743">
      <contour>
        <pt x="91" y="743" on="1"/>
        <pt x="161" y="743" on="1"/>
        <pt x="161" y="390" on="1"/>
        <pt x="91" y="390" on="1"/>
      </contour>
      <contour>
        <pt x="91" y="192" on="1"/>
        <pt x="161" y="192" on="1"/>
        <pt x="161" y="-161" on="1"/>
        <pt x="91" y="-161" on="1"/>
      </contour>
    </TTGlyph>
    <TTGlyph name="bullet" xMin="66" yMin="242" xMax="267" yMax="445">
      <contour>
        <pt x="267" y="294" on="0"/>
        <pt x="256" y="256" on="0"/>
        <pt x="215" y="242" on="0"/>
        <pt x="165" y="242" on="1"/>
        <pt x="116" y="242" on="0"/>
        <pt x="77" y="256" on="0"/>
        <pt x="66" y="294" on="0"/>
        <pt x="66" y="342" on="1"/>
        <pt x="66" y="391" on="0"/>
        <pt x="77" y="430" on="0"/>
        <pt x="116" y="445" on="0"/>
        <pt x="165" y="445" on="1"/>
        <pt x="215" y="445" on="0"/>
        <pt x="256" y="430" on="0"/>
        <pt x="267" y="391" on="0"/>
        <pt x="267" y="342" on="1"/>
      </contour>
    </TTGlyph>
    <TTGlyph name="bullet.ss02" xMin="40" yMin="-8" xMax="743" yMax="696">
      <contour>
        <pt x="343" y="421" on="0"/>
        <pt x="279" y="480" on="0"/>
        <pt x="279" y="533" on="1"/>
        <pt x="279" y="575" on="0"/>
        <pt x="318" y="650" on="0"/>
        <pt x="373" y="696" on="0"/>
        <pt x="392" y="696" on="1"/>
        <pt x="411" y="696" on="0"/>
        <pt x="465" y="650" on="0"/>
        <pt x="504" y="575" on="0"/>
        <pt x="504" y="533" on="1"/>
        <pt x="504" y="480" on="0"/>
        <pt x="441" y="421" on="0"/>
        <pt x="392" y="421" on="1"/>
      </contour>
      <contour>
        <pt x="415" y="481" on="0"/>
        <pt x="444" y="508" on="0"/>
        <pt x="444" y="533" on="1"/>
        <pt x="444" y="560" on="0"/>
        <pt x="426" y="607" on="0"/>
        <pt x="401" y="636" on="0"/>
        <pt x="392" y="636" on="1"/>
        <pt x="383" y="636" on="0"/>
        <pt x="358" y="607" on="0"/>
        <pt x="339" y="560" on="0"/>
        <pt x="339" y="533" on="1"/>
        <pt x="339" y="508" on="0"/>
        <pt x="369" y="481" on="0"/>
        <pt x="392" y="481" on="1"/>
      </contour>
      <contour>
        <pt x="161" y="231" on="0"/>
        <pt x="86" y="270" on="0"/>
        <pt x="40" y="325" on="0"/>
        <pt x="40" y="344" on="1"/>
        <pt x="40" y="363" on="0"/>
        <pt x="86" y="417" on="0"/>
        <pt x="161" y="456" on="0"/>
        <pt x="203" y="456" on="1"/>
        <pt x="256" y="456" on="0"/>
        <pt x="315" y="393" on="0"/>
        <pt x="315" y="344" on="1"/>
        <pt x="315" y="295" on="0"/>
        <pt x="256" y="231" on="0"/>
        <pt x="203" y="231" on="1"/>
      </contour>
      <contour>
        <pt x="527" y="231" on="0"/>
        <pt x="468" y="295" on="0"/>
        <pt x="468" y="344" on="1"/>
        <pt x="468" y="393" on="0"/>
        <pt x="527" y="456" on="0"/>
        <pt x="581" y="456" on="1"/>
        <pt x="622" y="456" on="0"/>
        <pt x="697" y="417" on="0"/>
        <pt x="743" y="363" on="0"/>
        <pt x="743" y="344" on="1"/>
        <pt x="743" y="325" on="0"/>
        <pt x="697" y="270" on="0"/>
        <pt x="623" y="231" on="0"/>
        <pt x="581" y="231" on="1"/>
      </contour>
      <contour>
        <pt x="228" y="291" on="0"/>
        <pt x="255" y="321" on="0"/>
        <pt x="255" y="344" on="1"/>
        <pt x="255" y="367" on="0"/>
        <pt x="228" y="396" on="0"/>
        <pt x="203" y="396" on="1"/>
        <pt x="176" y="396" on="0"/>
        <pt x="129" y="378" on="0"/>
        <pt x="100" y="353" on="0"/>
        <pt x="100" y="344" on="1"/>
        <pt x="100" y="335" on="0"/>
        <pt x="129" y="310" on="0"/>
        <pt x="176" y="291" on="0"/>
        <pt x="203" y="291" on="1"/>
      </contour>
      <contour>
        <pt x="607" y="291" on="0"/>
        <pt x="654" y="310" on="0"/>
        <pt x="683" y="335" on="0"/>
        <pt x="683" y="344" on="1"/>
        <pt x="683" y="353" on="0"/>
        <pt x="654" y="378" on="0"/>
        <pt x="607" y="396" on="0"/>
        <pt x="581" y="396" on="1"/>
        <pt x="556" y="396" on="0"/>
        <pt x="528" y="367" on="0"/>
        <pt x="528" y="344" on="1"/>
        <pt x="528" y="321" on="0"/>
        <pt x="556" y="291" on="0"/>
        <pt x="581" y="291" on="1"/>
      </contour>
      <contour>
        <pt x="373" y="-8" on="0"/>
        <pt x="318" y="38" on="0"/>
        <pt x="279" y="113" on="0"/>
        <pt x="279" y="155" on="1"/>
        <pt x="279" y="208" on="0"/>
        <pt x="343" y="267" on="0"/>
        <pt x="392" y="267" on="1"/>
        <pt x="441" y="267" on="0"/>
        <pt x="504" y="208" on="0"/>
        <pt x="504" y="155" on="1"/>
        <pt x="504" y="113" on="0"/>
        <pt x="465" y="38" on="0"/>
        <pt x="411" y="-8" on="0"/>
        <pt x="392" y="-8" on="1"/>
      </contour>
      <contour>
        <pt x="401" y="52" on="0"/>
        <pt x="426" y="81" on="0"/>
        <pt x="444" y="128" on="0"/>
        <pt x="444" y="155" on="1"/>
        <pt x="444" y="180" on="0"/>
        <pt x="415" y="207" on="0"/>
        <pt x="392" y="207" on="1"/>
        <pt x="369" y="207" on="0"/>
        <pt x="339" y="180" on="0"/>
        <pt x="339" y="155" on="1"/>
        <pt x="339" y="128" on="0"/>
        <pt x="358" y="81" on="0"/>
        <pt x="383" y="52" on="0"/>
        <pt x="392" y="52" on="1"/>
      </contour>
    </TTGlyph>
    <TTGlyph name="c" xMin="56" yMin="-8" xMax="365" yMax="518">
      <contour>
        <pt x="341" y="0" on="0"/>
        <pt x="272" y="-8" on="0"/>
        <pt x="242" y="-8" on="1"/>
        <pt x="158" y="-8" on="0"/>
        <pt x="79" y="45" on="0"/>
        <pt x="56" y="151" on="0"/>
        <pt x="56" y="255" on="1"/>
        <pt x="56" y="359" on="0"/>
        <pt x="84" y="468" on="0"/>
        <pt x="162" y="518" on="0"/>
        <pt x="239" y="518" on="1"/>
        <pt x="270" y="518" on="0"/>
        <pt x="338" y="510" on="0"/>
        <pt x="361" y="505" on="1"/>
        <pt x="361" y="442" on="1"/>
        <pt x="311" y="452" on="0"/>
        <pt x="257" y="452" on="1"/>
        <pt x="201" y="452" on="0"/>
        <pt x="150" y="422" on="0"/>
        <pt x="133" y="342" on="0"/>
        <pt x="133" y="255" on="1"/>
        <pt x="133" y="166" on="0"/>
        <pt x="151" y="87" on="0"/>
        <pt x="202" y="58" on="0"/>
        <pt x="259" y="58" on="1"/>
        <pt x="313" y="58" on="0"/>
        <pt x="365" y="68" on="1"/>
        <pt x="365" y="5" on="1"/>
      </contour>
    </TTGlyph>
    <TTGlyph name="cacute" xMin="56" yMin="-8" xMax="365" yMax="743">
      <component glyphName="c" x="0" y="0" flags="0x0"/>
      <component glyphName="acutecomb" x="343" y="0" flags="0x0"/>
    </TTGlyph>
    <TTGlyph name="cacute.loclPLK" xMin="56" yMin="-8" xMax="365" yMax="743">
      <component glyphName="c" x="0" y="0" flags="0x0"/>
      <component glyphName="acute.loclPLK" x="155" y="0" flags="0x0"/>
    </TTGlyph>
    <TTGlyph name="caron" xMin="13" yMin="604" xMax="276" yMax="743">
      <contour>
        <pt x="13" y="737" on="1"/>
        <pt x="13" y="743" on="1"/>
        <pt x="66" y="743" on="1"/>
        <pt x="144" y="647" on="1"/>
        <pt x="222" y="743" on="1"/>
        <pt x="276" y="743" on="1"/>
        <pt x="276" y="737" on="1"/>
        <pt x="185" y="604" on="1"/>
        <pt x="103" y="604" on="1"/>
      </contour>
    </TTGlyph>
    <TTGlyph name="caron.loclCSY" xMin="42" yMin="444" xMax="131" yMax="688">
      <contour>
        <pt x="57" y="612" on="1"/>
        <pt x="57" y="688" on="1"/>
        <pt x="131" y="688" on="1"/>
        <pt x="131" y="612" on="1"/>
        <pt x="95" y="444" on="1"/>
        <pt x="42" y="444" on="1"/>
      </contour>
    </TTGlyph>
    <TTGlyph name="ccaron" xMin="56" yMin="-8" xMax="365" yMax="743">
      <component glyphName="c" x="0" y="0" flags="0x0"/>
      <component glyphName="uni030C" x="347" y="0" flags="0x0"/>
    </TTGlyph>
    <TTGlyph name="ccedilla" xMin="56" yMin="-190" xMax="365" yMax="518">
      <contour>
        <pt x="313" y="58" on="0"/>
        <pt x="365" y="68" on="1"/>
        <pt x="365" y="5" on="1"/>
        <pt x="341" y="0" on="0"/>
        <pt x="272" y="-8" on="0"/>
        <pt x="242" y="-8" on="1"/>
        <pt x="228" y="-8" on="1"/>
        <pt x="190" y="-190" on="1"/>
        <pt x="115" y="-190" on="1"/>
        <pt x="115" y="-185" on="1"/>
        <pt x="175" y="-3" on="1"/>
        <pt x="123" y="7" on="0"/>
        <pt x="72" y="67" on="0"/>
        <pt x="56" y="167" on="0"/>
        <pt x="56" y="255" on="1"/>
        <pt x="56" y="359" on="0"/>
        <pt x="84" y="468" on="0"/>
        <pt x="162" y="518" on="0"/>
        <pt x="239" y="518" on="1"/>
        <pt x="270" y="518" on="0"/>
        <pt x="338" y="510" on="0"/>
        <pt x="361" y="505" on="1"/>
        <pt x="361" y="442" on="1"/>
        <pt x="311" y="452" on="0"/>
        <pt x="257" y="452" on="1"/>
        <pt x="201" y="452" on="0"/>
        <pt x="150" y="422" on="0"/>
        <pt x="133" y="342" on="0"/>
        <pt x="133" y="255" on="1"/>
        <pt x="133" y="166" on="0"/>
        <pt x="151" y="87" on="0"/>
        <pt x="202" y="58" on="0"/>
        <pt x="259" y="58" on="1"/>
      </contour>
    </TTGlyph>
    <TTGlyph name="ccircumflex" xMin="56" yMin="-8" xMax="365" yMax="743">
      <component glyphName="c" x="0" y="0" flags="0x0"/>
      <component glyphName="uni0302" x="347" y="0" flags="0x0"/>
    </TTGlyph>
    <TTGlyph name="cdotaccent" xMin="56" yMin="-8" xMax="365" yMax="730">
      <component glyphName="c" x="0" y="0" flags="0x0"/>
      <component glyphName="uni0307" x="256" y="0" flags="0x0"/>
    </TTGlyph>
    <TTGlyph name="cedilla" xMin="18" yMin="-190" xMax="133" yMax="8">
      <contour>
        <pt x="18" y="-185" on="1"/>
        <pt x="81" y="8" on="1"/>
        <pt x="133" y="8" on="1"/>
        <pt x="133" y="3" on="1"/>
        <pt x="93" y="-190" on="1"/>
        <pt x="18" y="-190" on="1"/>
      </contour>
    </TTGlyph>
    <TTGlyph name="cent" xMin="58" yMin="-8" xMax="373" yMax="696">
      <contour>
        <pt x="373" y="81" on="1"/>
        <pt x="326" y="71" on="0"/>
        <pt x="276" y="68" on="1"/>
        <pt x="276" y="-8" on="1"/>
        <pt x="215" y="-8" on="1"/>
        <pt x="215" y="68" on="1"/>
        <pt x="149" y="73" on="0"/>
        <pt x="82" y="130" on="0"/>
        <pt x="58" y="241" on="0"/>
        <pt x="58" y="342" on="1"/>
        <pt x="58" y="444" on="0"/>
        <pt x="87" y="559" on="0"/>
        <pt x="155" y="613" on="0"/>
        <pt x="215" y="618" on="1"/>
        <pt x="215" y="696" on="1"/>
        <pt x="276" y="696" on="1"/>
        <pt x="276" y="618" on="1"/>
        <pt x="327" y="615" on="0"/>
        <pt x="369" y="605" on="1"/>
        <pt x="369" y="540" on="1"/>
        <pt x="325" y="548" on="0"/>
        <pt x="276" y="550" on="1"/>
        <pt x="276" y="136" on="1"/>
        <pt x="329" y="138" on="0"/>
        <pt x="373" y="147" on="1"/>
      </contour>
      <contour>
        <pt x="138" y="267" on="0"/>
        <pt x="150" y="186" on="0"/>
        <pt x="183" y="146" on="0"/>
        <pt x="215" y="140" on="1"/>
        <pt x="215" y="546" on="1"/>
        <pt x="182" y="540" on="0"/>
        <pt x="150" y="501" on="0"/>
        <pt x="138" y="420" on="0"/>
        <pt x="138" y="343" on="1"/>
      </contour>
    </TTGlyph>
    <TTGlyph name="circumflex" xMin="13" yMin="604" xMax="276" yMax="743">
      <contour>
        <pt x="13" y="610" on="1"/>
        <pt x="103" y="743" on="1"/>
        <pt x="186" y="743" on="1"/>
        <pt x="276" y="610" on="1"/>
        <pt x="276" y="604" on="1"/>
        <pt x="223" y="604" on="1"/>
        <pt x="144" y="700" on="1"/>
        <pt x="66" y="604" on="1"/>
        <pt x="13" y="604" on="1"/>
      </contour>
    </TTGlyph>
    <TTGlyph name="colon" xMin="60" yMin="0" xMax="148" yMax="510">
      <contour>
        <pt x="60" y="510" on="1"/>
        <pt x="148" y="510" on="1"/>
        <pt x="148" y="416" on="1"/>
        <pt x="60" y="416" on="1"/>
      </contour>
      <contour>
        <pt x="60" y="94" on="1"/>
        <pt x="148" y="94" on="1"/>
        <pt x="148" y="0" on="1"/>
        <pt x="60" y="0" on="1"/>
      </contour>
    </TTGlyph>
    <TTGlyph name="comma" xMin="40" yMin="-120" xMax="148" yMax="94">
      <contour>
        <pt x="74" y="-82" on="0"/>
        <pt x="94" y="-57" on="0"/>
        <pt x="94" y="-17" on="1"/>
        <pt x="94" y="0" on="1"/>
        <pt x="59" y="0" on="1"/>
        <pt x="59" y="94" on="1"/>
        <pt x="148" y="94" on="1"/>
        <pt x="148" y="13" on="1"/>
        <pt x="148" y="-44" on="0"/>
        <pt x="132" y="-98" on="0"/>
        <pt x="87" y="-120" on="0"/>
        <pt x="40" y="-120" on="1"/>
        <pt x="40" y="-82" on="1"/>
      </contour>
    </TTGlyph>
    <TTGlyph name="copyright" xMin="77" yMin="-8" xMax="578" yMax="696">
      <contour>
        <pt x="201" y="-8" on="0"/>
        <pt x="102" y="40" on="0"/>
        <pt x="77" y="172" on="0"/>
        <pt x="77" y="344" on="1"/>
        <pt x="77" y="515" on="0"/>
        <pt x="102" y="647" on="0"/>
        <pt x="202" y="696" on="0"/>
        <pt x="327" y="696" on="1"/>
        <pt x="453" y="696" on="0"/>
        <pt x="552" y="647" on="0"/>
        <pt x="578" y="515" on="0"/>
        <pt x="578" y="344" on="1"/>
        <pt x="578" y="172" on="0"/>
        <pt x="552" y="40" on="0"/>
        <pt x="453" y="-8" on="0"/>
        <pt x="327" y="-8" on="1"/>
      </contour>
      <contour>
        <pt x="437" y="30" on="0"/>
        <pt x="517" y="64" on="0"/>
        <pt x="538" y="181" on="0"/>
        <pt x="538" y="344" on="1"/>
        <pt x="538" y="507" on="0"/>
        <pt x="517" y="623" on="0"/>
        <pt x="437" y="658" on="0"/>
        <pt x="327" y="658" on="1"/>
        <pt x="218" y="658" on="0"/>
        <pt x="138" y="623" on="0"/>
        <pt x="117" y="507" on="0"/>
        <pt x="117" y="344" on="1"/>
        <pt x="117" y="181" on="0"/>
        <pt x="138" y="64" on="0"/>
        <pt x="217" y="30" on="0"/>
        <pt x="327" y="30" on="1"/>
      </contour>
      <contour>
        <pt x="290" y="154" on="0"/>
        <pt x="236" y="183" on="0"/>
        <pt x="218" y="260" on="0"/>
        <pt x="218" y="343" on="1"/>
        <pt x="218" y="426" on="0"/>
        <pt x="236" y="503" on="0"/>
        <pt x="290" y="533" on="0"/>
        <pt x="348" y="533" on="1"/>
        <pt x="398" y="533" on="0"/>
        <pt x="422" y="525" on="1"/>
        <pt x="422" y="482" on="1"/>
        <pt x="392" y="487" on="0"/>
        <pt x="358" y="487" on="1"/>
        <pt x="314" y="487" on="0"/>
        <pt x="280" y="469" on="0"/>
        <pt x="269" y="414" on="0"/>
        <pt x="269" y="343" on="1"/>
        <pt x="269" y="272" on="0"/>
        <pt x="280" y="217" on="0"/>
        <pt x="314" y="199" on="0"/>
        <pt x="358" y="199" on="1"/>
        <pt x="396" y="199" on="0"/>
        <pt x="424" y="204" on="1"/>
        <pt x="424" y="160" on="1"/>
        <pt x="397" y="154" on="0"/>
        <pt x="348" y="154" on="1"/>
      </contour>
    </TTGlyph>
    <TTGlyph name="currency" xMin="56" yMin="-6" xMax="584" yMax="693">
      <contour>
        <pt x="57" y="39" on="1"/>
        <pt x="147" y="130" on="1"/>
        <pt x="131" y="158" on="0"/>
        <pt x="120" y="257" on="0"/>
        <pt x="120" y="345" on="1"/>
        <pt x="120" y="431" on="0"/>
        <pt x="130" y="529" on="0"/>
        <pt x="146" y="558" on="1"/>
        <pt x="56" y="648" on="1"/>
        <pt x="102" y="693" on="1"/>
        <pt x="196" y="599" on="1"/>
        <pt x="234" y="618" on="0"/>
        <pt x="319" y="618" on="1"/>
        <pt x="407" y="618" on="0"/>
        <pt x="444" y="598" on="1"/>
        <pt x="539" y="693" on="1"/>
        <pt x="584" y="648" on="1"/>
        <pt x="493" y="557" on="1"/>
        <pt x="508" y="528" on="0"/>
        <pt x="518" y="432" on="0"/>
        <pt x="518" y="345" on="1"/>
        <pt x="518" y="256" on="0"/>
        <pt x="508" y="160" on="0"/>
        <pt x="492" y="131" on="1"/>
        <pt x="584" y="39" on="1"/>
        <pt x="539" y="-6" on="1"/>
        <pt x="443" y="90" on="1"/>
        <pt x="405" y="71" on="0"/>
        <pt x="319" y="71" on="1"/>
        <pt x="234" y="71" on="0"/>
        <pt x="197" y="90" on="1"/>
        <pt x="102" y="-6" on="1"/>
      </contour>
      <contour>
        <pt x="381" y="136" on="0"/>
        <pt x="430" y="165" on="0"/>
        <pt x="442" y="243" on="0"/>
        <pt x="442" y="345" on="1"/>
        <pt x="442" y="447" on="0"/>
        <pt x="430" y="523" on="0"/>
        <pt x="381" y="552" on="0"/>
        <pt x="319" y="552" on="1"/>
        <pt x="257" y="552" on="0"/>
        <pt x="209" y="524" on="0"/>
        <pt x="197" y="447" on="0"/>
        <pt x="197" y="345" on="1"/>
        <pt x="197" y="242" on="0"/>
        <pt x="209" y="165" on="0"/>
        <pt x="257" y="136" on="0"/>
        <pt x="319" y="136" on="1"/>
      </contour>
    </TTGlyph>
    <TTGlyph name="d" xMin="56" yMin="-8" xMax="447" yMax="743">
      <contour>
        <pt x="156" y="-8" on="0"/>
        <pt x="85" y="37" on="0"/>
        <pt x="56" y="147" on="0"/>
        <pt x="56" y="254" on="1"/>
        <pt x="56" y="361" on="0"/>
        <pt x="84" y="472" on="0"/>
        <pt x="154" y="518" on="0"/>
        <pt x="222" y="518" on="1"/>
        <pt x="278" y="518" on="0"/>
        <pt x="349" y="485" on="0"/>
        <pt x="366" y="447" on="1"/>
        <pt x="371" y="447" on="1"/>
        <pt x="371" y="743" on="1"/>
        <pt x="447" y="743" on="1"/>
        <pt x="447" y="0" on="1"/>
        <pt x="379" y="0" on="1"/>
        <pt x="376" y="71" on="1"/>
        <pt x="370" y="71" on="1"/>
        <pt x="353" y="25" on="0"/>
        <pt x="278" y="-8" on="0"/>
        <pt x="224" y="-8" on="1"/>
      </contour>
      <contour>
        <pt x="297" y="61" on="0"/>
        <pt x="348" y="88" on="0"/>
        <pt x="358" y="118" on="1"/>
        <pt x="366" y="143" on="0"/>
        <pt x="371" y="206" on="0"/>
        <pt x="371" y="262" on="1"/>
        <pt x="371" y="305" on="0"/>
        <pt x="367" y="360" on="0"/>
        <pt x="361" y="381" on="1"/>
        <pt x="351" y="417" on="0"/>
        <pt x="299" y="449" on="0"/>
        <pt x="251" y="449" on="1"/>
        <pt x="196" y="449" on="0"/>
        <pt x="149" y="423" on="0"/>
        <pt x="133" y="346" on="0"/>
        <pt x="133" y="255" on="1"/>
        <pt x="133" y="164" on="0"/>
        <pt x="149" y="86" on="0"/>
        <pt x="197" y="61" on="0"/>
        <pt x="253" y="61" on="1"/>
      </contour>
    </TTGlyph>
    <TTGlyph name="dagger" xMin="50" yMin="0" xMax="350" yMax="688">
      <contour>
        <pt x="166" y="449" on="1"/>
        <pt x="50" y="456" on="1"/>
        <pt x="50" y="506" on="1"/>
        <pt x="166" y="514" on="1"/>
        <pt x="173" y="688" on="1"/>
        <pt x="224" y="688" on="1"/>
        <pt x="231" y="514" on="1"/>
        <pt x="350" y="506" on="1"/>
        <pt x="350" y="456" on="1"/>
        <pt x="231" y="449" on="1"/>
        <pt x="224" y="0" on="1"/>
        <pt x="173" y="0" on="1"/>
      </contour>
    </TTGlyph>
    <TTGlyph name="daggerdbl" xMin="50" yMin="0" xMax="350" yMax="688">
      <contour>
        <pt x="166" y="174" on="1"/>
        <pt x="50" y="181" on="1"/>
        <pt x="50" y="231" on="1"/>
        <pt x="166" y="238" on="1"/>
        <pt x="166" y="449" on="1"/>
        <pt x="50" y="456" on="1"/>
        <pt x="50" y="506" on="1"/>
        <pt x="166" y="514" on="1"/>
        <pt x="173" y="688" on="1"/>
        <pt x="224" y="688" on="1"/>
        <pt x="231" y="514" on="1"/>
        <pt x="350" y="506" on="1"/>
        <pt x="350" y="456" on="1"/>
        <pt x="231" y="449" on="1"/>
        <pt x="231" y="238" on="1"/>
        <pt x="350" y="231" on="1"/>
        <pt x="350" y="181" on="1"/>
        <pt x="231" y="174" on="1"/>
        <pt x="224" y="0" on="1"/>
        <pt x="173" y="0" on="1"/>
      </contour>
    </TTGlyph>
    <TTGlyph name="dcaron" xMin="56" yMin="-8" xMax="574" yMax="743">
      <component glyphName="d" x="0" y="0" flags="0x0"/>
      <component glyphName="caron.loclCSY" x="443" y="0" flags="0x0"/>
    </TTGlyph>
    <TTGlyph name="dcroat" xMin="56" yMin="-8" xMax="507" yMax="743">
      <contour>
        <pt x="507" y="623" on="1"/>
        <pt x="447" y="623" on="1"/>
        <pt x="447" y="0" on="1"/>
        <pt x="379" y="0" on="1"/>
        <pt x="376" y="71" on="1"/>
        <pt x="370" y="71" on="1"/>
        <pt x="353" y="25" on="0"/>
        <pt x="278" y="-8" on="0"/>
        <pt x="224" y="-8" on="1"/>
        <pt x="156" y="-8" on="0"/>
        <pt x="85" y="37" on="0"/>
        <pt x="56" y="147" on="0"/>
        <pt x="56" y="254" on="1"/>
        <pt x="56" y="361" on="0"/>
        <pt x="84" y="472" on="0"/>
        <pt x="154" y="518" on="0"/>
        <pt x="222" y="518" on="1"/>
        <pt x="278" y="518" on="0"/>
        <pt x="349" y="485" on="0"/>
        <pt x="366" y="447" on="1"/>
        <pt x="371" y="447" on="1"/>
        <pt x="371" y="623" on="1"/>
        <pt x="247" y="623" on="1"/>
        <pt x="247" y="688" on="1"/>
        <pt x="371" y="688" on="1"/>
        <pt x="371" y="743" on="1"/>
        <pt x="447" y="743" on="1"/>
        <pt x="447" y="688" on="1"/>
        <pt x="507" y="688" on="1"/>
      </contour>
      <contour>
        <pt x="366" y="143" on="0"/>
        <pt x="371" y="206" on="0"/>
        <pt x="371" y="262" on="1"/>
        <pt x="371" y="305" on="0"/>
        <pt x="367" y="360" on="0"/>
        <pt x="361" y="381" on="1"/>
        <pt x="351" y="417" on="0"/>
        <pt x="299" y="449" on="0"/>
        <pt x="251" y="449" on="1"/>
        <pt x="196" y="449" on="0"/>
        <pt x="149" y="423" on="0"/>
        <pt x="133" y="346" on="0"/>
        <pt x="133" y="255" on="1"/>
        <pt x="133" y="164" on="0"/>
        <pt x="149" y="86" on="0"/>
        <pt x="197" y="61" on="0"/>
        <pt x="253" y="61" on="1"/>
        <pt x="297" y="61" on="0"/>
        <pt x="348" y="88" on="0"/>
        <pt x="358" y="118" on="1"/>
      </contour>
    </TTGlyph>
    <TTGlyph name="degree" xMin="56" yMin="397" xMax="297" yMax="696">
      <contour>
        <pt x="120" y="397" on="0"/>
        <pt x="70" y="423" on="0"/>
        <pt x="56" y="481" on="0"/>
        <pt x="56" y="546" on="1"/>
        <pt x="56" y="610" on="0"/>
        <pt x="70" y="669" on="0"/>
        <pt x="120" y="696" on="0"/>
        <pt x="177" y="696" on="1"/>
        <pt x="234" y="696" on="0"/>
        <pt x="283" y="669" on="0"/>
        <pt x="297" y="610" on="0"/>
        <pt x="297" y="546" on="1"/>
        <pt x="297" y="481" on="0"/>
        <pt x="284" y="423" on="0"/>
        <pt x="234" y="397" on="0"/>
        <pt x="177" y="397" on="1"/>
      </contour>
      <contour>
        <pt x="209" y="442" on="0"/>
        <pt x="236" y="458" on="0"/>
        <pt x="242" y="497" on="0"/>
        <pt x="242" y="546" on="1"/>
        <pt x="242" y="595" on="0"/>
        <pt x="236" y="634" on="0"/>
        <pt x="209" y="650" on="0"/>
        <pt x="177" y="650" on="1"/>
        <pt x="144" y="650" on="0"/>
        <pt x="117" y="634" on="0"/>
        <pt x="111" y="596" on="0"/>
        <pt x="111" y="546" on="1"/>
        <pt x="111" y="496" on="0"/>
        <pt x="117" y="458" on="0"/>
        <pt x="144" y="442" on="0"/>
        <pt x="177" y="442" on="1"/>
      </contour>
    </TTGlyph>
    <TTGlyph name="dialog" xMin="59" yMin="-212" xMax="746" yMax="688">
      <contour>
        <pt x="306" y="-127" on="1"/>
        <pt x="494" y="60" on="1"/>
        <pt x="686" y="60" on="1"/>
        <pt x="686" y="628" on="1"/>
        <pt x="119" y="628" on="1"/>
        <pt x="119" y="60" on="1"/>
        <pt x="306" y="60" on="1"/>
        <pt x="306" y="0" on="1"/>
        <pt x="59" y="0" on="1"/>
        <pt x="59" y="688" on="1"/>
        <pt x="746" y="688" on="1"/>
        <pt x="746" y="0" on="1"/>
        <pt x="519" y="0" on="1"/>
        <pt x="306" y="-212" on="1"/>
      </contour>
    </TTGlyph>
    <TTGlyph name="dieresis" xMin="19" yMin="651" xMax="273" yMax="730">
      <contour>
        <pt x="19" y="730" on="1"/>
        <pt x="92" y="730" on="1"/>
        <pt x="92" y="651" on="1"/>
        <pt x="19" y="651" on="1"/>
      </contour>
      <contour>
        <pt x="201" y="730" on="1"/>
        <pt x="273" y="730" on="1"/>
        <pt x="273" y="651" on="1"/>
        <pt x="201" y="651" on="1"/>
      </contour>
    </TTGlyph>
    <TTGlyph name="divide" xMin="66" yMin="37" xMax="446" yMax="468">
      <contour>
        <pt x="221" y="468" on="1"/>
        <pt x="291" y="468" on="1"/>
        <pt x="291" y="394" on="1"/>
        <pt x="221" y="394" on="1"/>
      </contour>
      <contour>
        <pt x="66" y="285" on="1"/>
        <pt x="446" y="285" on="1"/>
        <pt x="446" y="221" on="1"/>
        <pt x="66" y="221" on="1"/>
      </contour>
      <contour>
        <pt x="221" y="111" on="1"/>
        <pt x="291" y="111" on="1"/>
        <pt x="291" y="37" on="1"/>
        <pt x="221" y="37" on="1"/>
      </contour>
    </TTGlyph>
    <TTGlyph name="dollar" xMin="61" yMin="-8" xMax="418" yMax="696">
      <contour>
        <pt x="418" y="168" on="0"/>
        <pt x="389" y="103" on="0"/>
        <pt x="327" y="73" on="0"/>
        <pt x="272" y="69" on="1"/>
        <pt x="272" y="-8" on="1"/>
        <pt x="212" y="-8" on="1"/>
        <pt x="212" y="68" on="1"/>
        <pt x="121" y="72" on="0"/>
        <pt x="75" y="81" on="1"/>
        <pt x="75" y="147" on="1"/>
        <pt x="150" y="137" on="0"/>
        <pt x="212" y="136" on="1"/>
        <pt x="212" y="314" on="1"/>
        <pt x="170" y="320" on="1"/>
        <pt x="126" y="325" on="0"/>
        <pt x="79" y="357" on="0"/>
        <pt x="61" y="415" on="0"/>
        <pt x="61" y="464" on="1"/>
        <pt x="61" y="545" on="0"/>
        <pt x="133" y="612" on="0"/>
        <pt x="212" y="618" on="1"/>
        <pt x="212" y="696" on="1"/>
        <pt x="272" y="696" on="1"/>
        <pt x="272" y="619" on="1"/>
        <pt x="348" y="616" on="0"/>
        <pt x="392" y="605" on="1"/>
        <pt x="392" y="540" on="1"/>
        <pt x="351" y="547" on="0"/>
        <pt x="272" y="551" on="1"/>
        <pt x="272" y="380" on="1"/>
        <pt x="315" y="375" on="1"/>
        <pt x="355" y="370" on="0"/>
        <pt x="398" y="343" on="0"/>
        <pt x="418" y="282" on="0"/>
        <pt x="418" y="225" on="1"/>
      </contour>
      <contour>
        <pt x="212" y="387" on="1"/>
        <pt x="212" y="550" on="1"/>
        <pt x="173" y="547" on="0"/>
        <pt x="138" y="512" on="0"/>
        <pt x="138" y="468" on="1"/>
        <pt x="138" y="434" on="0"/>
        <pt x="147" y="403" on="0"/>
        <pt x="169" y="392" on="0"/>
        <pt x="194" y="389" on="1"/>
      </contour>
      <contour>
        <pt x="312" y="142" on="0"/>
        <pt x="340" y="179" on="0"/>
        <pt x="340" y="222" on="1"/>
        <pt x="340" y="259" on="0"/>
        <pt x="331" y="292" on="0"/>
        <pt x="309" y="302" on="0"/>
        <pt x="284" y="305" on="1"/>
        <pt x="272" y="307" on="1"/>
        <pt x="272" y="138" on="1"/>
      </contour>
    </TTGlyph>
    <TTGlyph name="dotaccent" xMin="18" yMin="651" xMax="91" yMax="730">
      <contour>
        <pt x="18" y="730" on="1"/>
        <pt x="91" y="730" on="1"/>
        <pt x="91" y="651" on="1"/>
        <pt x="18" y="651" on="1"/>
      </contour>
    </TTGlyph>
    <TTGlyph name="dotbelowcomb" xMin="-148" yMin="-156" xMax="-60" yMax="-62">
      <contour>
        <pt x="-148" y="-62" on="1"/>
        <pt x="-60" y="-62" on="1"/>
        <pt x="-60" y="-156" on="1"/>
        <pt x="-148" y="-156" on="1"/>
      </contour>
    </TTGlyph>
    <TTGlyph name="dotlessi" xMin="75" yMin="0" xMax="151" yMax="510">
      <contour>
        <pt x="75" y="510" on="1"/>
        <pt x="151" y="510" on="1"/>
        <pt x="151" y="0" on="1"/>
        <pt x="75" y="0" on="1"/>
      </contour>
    </TTGlyph>
    <TTGlyph name="e" xMin="56" yMin="-8" xMax="439" yMax="518">
      <contour>
        <pt x="439" y="229" on="1"/>
        <pt x="133" y="229" on="1"/>
        <pt x="133" y="151" on="0"/>
        <pt x="150" y="83" on="0"/>
        <pt x="209" y="57" on="0"/>
        <pt x="277" y="57" on="1"/>
        <pt x="341" y="57" on="0"/>
        <pt x="422" y="68" on="1"/>
        <pt x="422" y="6" on="1"/>
        <pt x="395" y="0" on="0"/>
        <pt x="304" y="-8" on="0"/>
        <pt x="261" y="-8" on="1"/>
        <pt x="169" y="-8" on="0"/>
        <pt x="83" y="39" on="0"/>
        <pt x="56" y="145" on="0"/>
        <pt x="56" y="254" on="1"/>
        <pt x="56" y="362" on="0"/>
        <pt x="80" y="467" on="0"/>
        <pt x="165" y="518" on="0"/>
        <pt x="257" y="518" on="1"/>
        <pt x="343" y="518" on="0"/>
        <pt x="419" y="469" on="0"/>
        <pt x="439" y="366" on="0"/>
        <pt x="439" y="255" on="1"/>
      </contour>
      <contour>
        <pt x="198" y="453" on="0"/>
        <pt x="149" y="429" on="0"/>
        <pt x="133" y="362" on="0"/>
        <pt x="133" y="286" on="1"/>
        <pt x="366" y="286" on="1"/>
        <pt x="366" y="296" on="1"/>
        <pt x="366" y="367" on="0"/>
        <pt x="347" y="432" on="0"/>
        <pt x="302" y="453" on="0"/>
        <pt x="255" y="453" on="1"/>
      </contour>
    </TTGlyph>
    <TTGlyph name="eacute" xMin="56" yMin="-8" xMax="439" yMax="743">
      <component glyphName="e" x="0" y="0" flags="0x0"/>
      <component glyphName="acute" x="203" y="0" flags="0x0"/>
    </TTGlyph>
    <TTGlyph name="ebreve" xMin="56" yMin="-8" xMax="439" yMax="743">
      <component glyphName="e" x="0" y="0" flags="0x0"/>
      <component glyphName="uni0306" x="387" y="0" flags="0x0"/>
    </TTGlyph>
    <TTGlyph name="ecaron" xMin="56" yMin="-8" xMax="439" yMax="743">
      <component glyphName="e" x="0" y="0" flags="0x0"/>
      <component glyphName="uni030C" x="392" y="0" flags="0x0"/>
    </TTGlyph>
    <TTGlyph name="ecircumflex" xMin="56" yMin="-8" xMax="439" yMax="743">
      <component glyphName="e" x="0" y="0" flags="0x0"/>
      <component glyphName="circumflex" x="106" y="0" flags="0x0"/>
    </TTGlyph>
    <TTGlyph name="edieresis" xMin="56" yMin="-8" xMax="439" yMax="728">
      <component glyphName="e" x="0" y="0" flags="0x0"/>
      <component glyphName="dieresis" x="106" y="-2" flags="0x4"/>
    </TTGlyph>
    <TTGlyph name="edotaccent" xMin="56" yMin="-8" xMax="439" yMax="730">
      <component glyphName="e" x="0" y="0" flags="0x0"/>
      <component glyphName="uni0307" x="301" y="0" flags="0x0"/>
    </TTGlyph>
    <TTGlyph name="egrave" xMin="56" yMin="-8" xMax="439" yMax="743">
      <component glyphName="e" x="0" y="0" flags="0x0"/>
      <component glyphName="grave" x="118" y="0" flags="0x0"/>
    </TTGlyph>
    <TTGlyph name="eight" xMin="63" yMin="-8" xMax="527" yMax="696">
      <contour>
        <pt x="200" y="-8" on="0"/>
        <pt x="100" y="34" on="0"/>
        <pt x="63" y="115" on="0"/>
        <pt x="63" y="184" on="1"/>
        <pt x="63" y="241" on="0"/>
        <pt x="87" y="307" on="0"/>
        <pt x="133" y="339" on="0"/>
        <pt x="172" y="349" on="1"/>
        <pt x="172" y="353" on="1"/>
        <pt x="118" y="364" on="0"/>
        <pt x="68" y="441" on="0"/>
        <pt x="68" y="515" on="1"/>
        <pt x="68" y="580" on="0"/>
        <pt x="109" y="658" on="0"/>
        <pt x="207" y="696" on="0"/>
        <pt x="295" y="696" on="1"/>
        <pt x="382" y="696" on="0"/>
        <pt x="481" y="658" on="0"/>
        <pt x="522" y="580" on="0"/>
        <pt x="522" y="515" on="1"/>
        <pt x="522" y="441" on="0"/>
        <pt x="472" y="364" on="0"/>
        <pt x="417" y="353" on="1"/>
        <pt x="417" y="349" on="1"/>
        <pt x="456" y="339" on="0"/>
        <pt x="503" y="307" on="0"/>
        <pt x="527" y="241" on="0"/>
        <pt x="527" y="184" on="1"/>
        <pt x="527" y="115" on="0"/>
        <pt x="490" y="34" on="0"/>
        <pt x="389" y="-8" on="0"/>
        <pt x="295" y="-8" on="1"/>
      </contour>
      <contour>
        <pt x="356" y="383" on="0"/>
        <pt x="417" y="403" on="0"/>
        <pt x="441" y="454" on="0"/>
        <pt x="441" y="504" on="1"/>
        <pt x="441" y="555" on="0"/>
        <pt x="418" y="606" on="0"/>
        <pt x="357" y="626" on="0"/>
        <pt x="295" y="626" on="1"/>
        <pt x="233" y="626" on="0"/>
        <pt x="172" y="606" on="0"/>
        <pt x="149" y="555" on="0"/>
        <pt x="149" y="504" on="1"/>
        <pt x="149" y="454" on="0"/>
        <pt x="173" y="403" on="0"/>
        <pt x="234" y="383" on="0"/>
        <pt x="295" y="383" on="1"/>
      </contour>
      <contour>
        <pt x="357" y="62" on="0"/>
        <pt x="419" y="80" on="0"/>
        <pt x="446" y="133" on="0"/>
        <pt x="446" y="186" on="1"/>
        <pt x="446" y="243" on="0"/>
        <pt x="421" y="295" on="0"/>
        <pt x="360" y="313" on="0"/>
        <pt x="295" y="313" on="1"/>
        <pt x="230" y="313" on="0"/>
        <pt x="169" y="295" on="0"/>
        <pt x="144" y="243" on="0"/>
        <pt x="144" y="186" on="1"/>
        <pt x="144" y="133" on="0"/>
        <pt x="171" y="80" on="0"/>
        <pt x="233" y="62" on="0"/>
        <pt x="295" y="62" on="1"/>
      </contour>
    </TTGlyph>
    <TTGlyph name="eight.dnom" xMin="38" yMin="-4" xMax="312" yMax="382">
      <contour>
        <pt x="120" y="-4" on="0"/>
        <pt x="61" y="18" on="0"/>
        <pt x="38" y="62" on="0"/>
        <pt x="38" y="100" on="1"/>
        <pt x="38" y="146" on="0"/>
        <pt x="68" y="184" on="0"/>
        <pt x="102" y="192" on="1"/>
        <pt x="102" y="194" on="1"/>
        <pt x="71" y="200" on="0"/>
        <pt x="41" y="243" on="0"/>
        <pt x="41" y="284" on="1"/>
        <pt x="41" y="338" on="0"/>
        <pt x="100" y="382" on="0"/>
        <pt x="175" y="382" on="1"/>
        <pt x="250" y="382" on="0"/>
        <pt x="309" y="338" on="0"/>
        <pt x="309" y="284" on="1"/>
        <pt x="309" y="243" on="0"/>
        <pt x="279" y="200" on="0"/>
        <pt x="247" y="194" on="1"/>
        <pt x="247" y="192" on="1"/>
        <pt x="282" y="184" on="0"/>
        <pt x="312" y="146" on="0"/>
        <pt x="312" y="100" on="1"/>
        <pt x="312" y="62" on="0"/>
        <pt x="289" y="18" on="0"/>
        <pt x="230" y="-4" on="0"/>
        <pt x="175" y="-4" on="1"/>
      </contour>
      <contour>
        <pt x="207" y="215" on="0"/>
        <pt x="239" y="224" on="0"/>
        <pt x="252" y="249" on="0"/>
        <pt x="252" y="274" on="1"/>
        <pt x="252" y="300" on="0"/>
        <pt x="240" y="325" on="0"/>
        <pt x="208" y="334" on="0"/>
        <pt x="175" y="334" on="1"/>
        <pt x="142" y="334" on="0"/>
        <pt x="109" y="325" on="0"/>
        <pt x="97" y="300" on="0"/>
        <pt x="97" y="274" on="1"/>
        <pt x="97" y="249" on="0"/>
        <pt x="110" y="224" on="0"/>
        <pt x="143" y="215" on="0"/>
        <pt x="175" y="215" on="1"/>
      </contour>
      <contour>
        <pt x="208" y="44" on="0"/>
        <pt x="241" y="53" on="0"/>
        <pt x="255" y="78" on="0"/>
        <pt x="255" y="105" on="1"/>
        <pt x="255" y="133" on="0"/>
        <pt x="242" y="159" on="0"/>
        <pt x="209" y="168" on="0"/>
        <pt x="175" y="168" on="1"/>
        <pt x="140" y="168" on="0"/>
        <pt x="108" y="159" on="0"/>
        <pt x="95" y="133" on="0"/>
        <pt x="95" y="105" on="1"/>
        <pt x="95" y="78" on="0"/>
        <pt x="109" y="53" on="0"/>
        <pt x="142" y="44" on="0"/>
        <pt x="175" y="44" on="1"/>
      </contour>
    </TTGlyph>
    <TTGlyph name="eight.numr" xMin="38" yMin="304" xMax="312" yMax="690">
      <component glyphName="eight.dnom" x="0" y="308" flags="0x4"/>
    </TTGlyph>
    <TTGlyph name="eight.tnum" xMin="55" yMin="-8" xMax="519" yMax="696">
      <contour>
        <pt x="192" y="-8" on="0"/>
        <pt x="92" y="34" on="0"/>
        <pt x="55" y="115" on="0"/>
        <pt x="55" y="184" on="1"/>
        <pt x="55" y="241" on="0"/>
        <pt x="79" y="307" on="0"/>
        <pt x="125" y="339" on="0"/>
        <pt x="164" y="349" on="1"/>
        <pt x="164" y="353" on="1"/>
        <pt x="110" y="364" on="0"/>
        <pt x="60" y="441" on="0"/>
        <pt x="60" y="515" on="1"/>
        <pt x="60" y="580" on="0"/>
        <pt x="101" y="658" on="0"/>
        <pt x="200" y="696" on="0"/>
        <pt x="287" y="696" on="1"/>
        <pt x="375" y="696" on="0"/>
        <pt x="473" y="658" on="0"/>
        <pt x="514" y="580" on="0"/>
        <pt x="514" y="515" on="1"/>
        <pt x="514" y="441" on="0"/>
        <pt x="464" y="364" on="0"/>
        <pt x="410" y="353" on="1"/>
        <pt x="410" y="349" on="1"/>
        <pt x="449" y="339" on="0"/>
        <pt x="495" y="307" on="0"/>
        <pt x="519" y="241" on="0"/>
        <pt x="519" y="184" on="1"/>
        <pt x="519" y="115" on="0"/>
        <pt x="482" y="34" on="0"/>
        <pt x="382" y="-8" on="0"/>
        <pt x="287" y="-8" on="1"/>
      </contour>
      <contour>
        <pt x="348" y="383" on="0"/>
        <pt x="409" y="403" on="0"/>
        <pt x="433" y="454" on="0"/>
        <pt x="433" y="504" on="1"/>
        <pt x="433" y="555" on="0"/>
        <pt x="410" y="606" on="0"/>
        <pt x="349" y="626" on="0"/>
        <pt x="287" y="626" on="1"/>
        <pt x="225" y="626" on="0"/>
        <pt x="164" y="606" on="0"/>
        <pt x="141" y="555" on="0"/>
        <pt x="141" y="504" on="1"/>
        <pt x="141" y="454" on="0"/>
        <pt x="165" y="403" on="0"/>
        <pt x="226" y="383" on="0"/>
        <pt x="287" y="383" on="1"/>
      </contour>
      <contour>
        <pt x="349" y="62" on="0"/>
        <pt x="412" y="80" on="0"/>
        <pt x="439" y="133" on="0"/>
        <pt x="439" y="186" on="1"/>
        <pt x="439" y="242" on="0"/>
        <pt x="414" y="295" on="0"/>
        <pt x="352" y="313" on="0"/>
        <pt x="287" y="313" on="1"/>
        <pt x="222" y="313" on="0"/>
        <pt x="161" y="295" on="0"/>
        <pt x="136" y="243" on="0"/>
        <pt x="136" y="186" on="1"/>
        <pt x="136" y="133" on="0"/>
        <pt x="163" y="80" on="0"/>
        <pt x="225" y="62" on="0"/>
        <pt x="287" y="62" on="1"/>
      </contour>
    </TTGlyph>
    <TTGlyph name="ellipsis" xMin="60" yMin="0" xMax="564" yMax="94">
      <contour>
        <pt x="60" y="94" on="1"/>
        <pt x="148" y="94" on="1"/>
        <pt x="148" y="0" on="1"/>
        <pt x="60" y="0" on="1"/>
      </contour>
      <contour>
        <pt x="267" y="94" on="1"/>
        <pt x="356" y="94" on="1"/>
        <pt x="356" y="0" on="1"/>
        <pt x="267" y="0" on="1"/>
      </contour>
      <contour>
        <pt x="475" y="94" on="1"/>
        <pt x="564" y="94" on="1"/>
        <pt x="564" y="0" on="1"/>
        <pt x="475" y="0" on="1"/>
      </contour>
    </TTGlyph>
    <TTGlyph name="emacron" xMin="56" yMin="-8" xMax="439" yMax="742">
      <component glyphName="e" x="0" y="0" flags="0x0"/>
      <component glyphName="uni0304" x="416" y="0" flags="0x0"/>
    </TTGlyph>
    <TTGlyph name="emdash" xMin="56" yMin="271" xMax="793" yMax="336">
      <contour>
        <pt x="56" y="336" on="1"/>
        <pt x="793" y="336" on="1"/>
        <pt x="793" y="271" on="1"/>
        <pt x="56" y="271" on="1"/>
      </contour>
    </TTGlyph>
    <TTGlyph name="endash" xMin="56" yMin="271" xMax="397" yMax="336">
      <contour>
        <pt x="56" y="336" on="1"/>
        <pt x="397" y="336" on="1"/>
        <pt x="397" y="271" on="1"/>
        <pt x="56" y="271" on="1"/>
      </contour>
    </TTGlyph>
    <TTGlyph name="eng" xMin="75" yMin="-197" xMax="454" yMax="518">
      <contour>
        <pt x="366" y="518" on="0"/>
        <pt x="431" y="478" on="0"/>
        <pt x="454" y="396" on="0"/>
        <pt x="454" y="322" on="1"/>
        <pt x="454" y="-59" on="1"/>
        <pt x="454" y="-123" on="0"/>
        <pt x="425" y="-180" on="0"/>
        <pt x="362" y="-197" on="0"/>
        <pt x="296" y="-197" on="1"/>
        <pt x="296" y="-136" on="1"/>
        <pt x="334" y="-136" on="0"/>
        <pt x="368" y="-126" on="0"/>
        <pt x="378" y="-104" on="0"/>
        <pt x="378" y="-81" on="1"/>
        <pt x="378" y="294" on="1"/>
        <pt x="378" y="367" on="0"/>
        <pt x="363" y="428" on="0"/>
        <pt x="320" y="448" on="0"/>
        <pt x="270" y="448" on="1"/>
        <pt x="215" y="448" on="0"/>
        <pt x="164" y="407" on="0"/>
        <pt x="151" y="333" on="0"/>
        <pt x="151" y="265" on="1"/>
        <pt x="151" y="0" on="1"/>
        <pt x="75" y="0" on="1"/>
        <pt x="75" y="510" on="1"/>
        <pt x="143" y="510" on="1"/>
        <pt x="147" y="438" on="1"/>
        <pt x="152" y="438" on="1"/>
        <pt x="167" y="477" on="0"/>
        <pt x="236" y="518" on="0"/>
        <pt x="301" y="518" on="1"/>
      </contour>
    </TTGlyph>
    <TTGlyph name="eogonek" xMin="56" yMin="-196" xMax="439" yMax="518">
      <contour>
        <pt x="439" y="229" on="1"/>
        <pt x="133" y="229" on="1"/>
        <pt x="133" y="151" on="0"/>
        <pt x="150" y="83" on="0"/>
        <pt x="209" y="57" on="0"/>
        <pt x="277" y="57" on="1"/>
        <pt x="341" y="57" on="0"/>
        <pt x="422" y="68" on="1"/>
        <pt x="422" y="6" on="1"/>
        <pt x="395" y="-13" on="0"/>
        <pt x="348" y="-77" on="0"/>
        <pt x="348" y="-105" on="1"/>
        <pt x="348" y="-123" on="0"/>
        <pt x="369" y="-145" on="0"/>
        <pt x="393" y="-145" on="1"/>
        <pt x="404" y="-145" on="0"/>
        <pt x="410" y="-144" on="1"/>
        <pt x="410" y="-194" on="1"/>
        <pt x="392" y="-196" on="0"/>
        <pt x="373" y="-196" on="1"/>
        <pt x="325" y="-196" on="0"/>
        <pt x="282" y="-155" on="0"/>
        <pt x="282" y="-122" on="1"/>
        <pt x="282" y="-92" on="0"/>
        <pt x="315" y="-31" on="0"/>
        <pt x="344" y="-4" on="1"/>
        <pt x="292" y="-8" on="0"/>
        <pt x="261" y="-8" on="1"/>
        <pt x="169" y="-8" on="0"/>
        <pt x="83" y="39" on="0"/>
        <pt x="56" y="145" on="0"/>
        <pt x="56" y="254" on="1"/>
        <pt x="56" y="362" on="0"/>
        <pt x="80" y="467" on="0"/>
        <pt x="165" y="518" on="0"/>
        <pt x="257" y="518" on="1"/>
        <pt x="343" y="518" on="0"/>
        <pt x="419" y="469" on="0"/>
        <pt x="439" y="366" on="0"/>
        <pt x="439" y="255" on="1"/>
      </contour>
      <contour>
        <pt x="198" y="453" on="0"/>
        <pt x="149" y="429" on="0"/>
        <pt x="133" y="362" on="0"/>
        <pt x="133" y="286" on="1"/>
        <pt x="366" y="286" on="1"/>
        <pt x="366" y="296" on="1"/>
        <pt x="366" y="367" on="0"/>
        <pt x="347" y="432" on="0"/>
        <pt x="302" y="453" on="0"/>
        <pt x="255" y="453" on="1"/>
      </contour>
    </TTGlyph>
    <TTGlyph name="equal" xMin="66" yMin="125" xMax="446" yMax="380">
      <contour>
        <pt x="66" y="380" on="1"/>
        <pt x="446" y="380" on="1"/>
        <pt x="446" y="316" on="1"/>
        <pt x="66" y="316" on="1"/>
      </contour>
      <contour>
        <pt x="66" y="190" on="1"/>
        <pt x="446" y="190" on="1"/>
        <pt x="446" y="125" on="1"/>
        <pt x="66" y="125" on="1"/>
      </contour>
    </TTGlyph>
    <TTGlyph name="estimated" xMin="66" yMin="-8" xMax="555" yMax="696">
      <contour>
        <pt x="147" y="171" on="0"/>
        <pt x="168" y="56" on="0"/>
        <pt x="231" y="26" on="0"/>
        <pt x="316" y="26" on="1"/>
        <pt x="399" y="26" on="0"/>
        <pt x="472" y="46" on="0"/>
        <pt x="507" y="117" on="0"/>
        <pt x="512" y="200" on="1"/>
        <pt x="548" y="200" on="1"/>
        <pt x="543" y="110" on="0"/>
        <pt x="502" y="24" on="0"/>
        <pt x="407" y="-8" on="0"/>
        <pt x="310" y="-8" on="1"/>
        <pt x="192" y="-8" on="0"/>
        <pt x="93" y="45" on="0"/>
        <pt x="66" y="181" on="0"/>
        <pt x="66" y="344" on="1"/>
        <pt x="66" y="507" on="0"/>
        <pt x="93" y="643" on="0"/>
        <pt x="192" y="696" on="0"/>
        <pt x="310" y="696" on="1"/>
        <pt x="428" y="696" on="0"/>
        <pt x="528" y="643" on="0"/>
        <pt x="555" y="507" on="0"/>
        <pt x="555" y="344" on="1"/>
        <pt x="555" y="323" on="1"/>
        <pt x="146" y="323" on="1"/>
      </contour>
      <contour>
        <pt x="227" y="662" on="0"/>
        <pt x="166" y="631" on="0"/>
        <pt x="146" y="513" on="0"/>
        <pt x="146" y="357" on="1"/>
        <pt x="475" y="357" on="1"/>
        <pt x="475" y="513" on="0"/>
        <pt x="455" y="631" on="0"/>
        <pt x="393" y="662" on="0"/>
        <pt x="310" y="662" on="1"/>
      </contour>
    </TTGlyph>
    <TTGlyph name="eth" xMin="56" yMin="-8" xMax="454" yMax="743">
      <contour>
        <pt x="161" y="-8" on="0"/>
        <pt x="79" y="36" on="0"/>
        <pt x="56" y="139" on="0"/>
        <pt x="56" y="254" on="1"/>
        <pt x="56" y="364" on="0"/>
        <pt x="78" y="469" on="0"/>
        <pt x="153" y="517" on="0"/>
        <pt x="237" y="517" on="1"/>
        <pt x="311" y="517" on="0"/>
        <pt x="349" y="491" on="1"/>
        <pt x="353" y="493" on="1"/>
        <pt x="331" y="567" on="0"/>
        <pt x="297" y="624" on="1"/>
        <pt x="189" y="607" on="1"/>
        <pt x="189" y="659" on="1"/>
        <pt x="266" y="672" on="1"/>
        <pt x="238" y="706" on="0"/>
        <pt x="205" y="739" on="1"/>
        <pt x="205" y="743" on="1"/>
        <pt x="288" y="743" on="1"/>
        <pt x="329" y="699" on="0"/>
        <pt x="341" y="684" on="1"/>
        <pt x="436" y="699" on="1"/>
        <pt x="436" y="647" on="1"/>
        <pt x="372" y="636" on="1"/>
        <pt x="395" y="596" on="0"/>
        <pt x="432" y="492" on="0"/>
        <pt x="441" y="436" on="1"/>
        <pt x="454" y="362" on="0"/>
        <pt x="454" y="271" on="1"/>
        <pt x="454" y="145" on="0"/>
        <pt x="433" y="38" on="0"/>
        <pt x="351" y="-8" on="0"/>
        <pt x="255" y="-8" on="1"/>
      </contour>
      <contour>
        <pt x="318" y="57" on="0"/>
        <pt x="367" y="85" on="0"/>
        <pt x="378" y="157" on="0"/>
        <pt x="378" y="254" on="1"/>
        <pt x="378" y="341" on="0"/>
        <pt x="366" y="415" on="0"/>
        <pt x="315" y="452" on="0"/>
        <pt x="255" y="452" on="1"/>
        <pt x="192" y="452" on="0"/>
        <pt x="144" y="425" on="0"/>
        <pt x="133" y="352" on="0"/>
        <pt x="133" y="254" on="1"/>
        <pt x="133" y="157" on="0"/>
        <pt x="144" y="85" on="0"/>
        <pt x="193" y="57" on="0"/>
        <pt x="255" y="57" on="1"/>
      </contour>
    </TTGlyph>
    <TTGlyph name="exclam" xMin="71" yMin="0" xMax="161" yMax="688">
      <contour>
        <pt x="82" y="331" on="1"/>
        <pt x="71" y="538" on="0"/>
        <pt x="71" y="586" on="1"/>
        <pt x="71" y="688" on="1"/>
        <pt x="161" y="688" on="1"/>
        <pt x="161" y="586" on="1"/>
        <pt x="161" y="538" on="0"/>
        <pt x="150" y="331" on="1"/>
        <pt x="144" y="194" on="1"/>
        <pt x="88" y="194" on="1"/>
      </contour>
      <contour>
        <pt x="72" y="94" on="1"/>
        <pt x="160" y="94" on="1"/>
        <pt x="160" y="0" on="1"/>
        <pt x="72" y="0" on="1"/>
      </contour>
    </TTGlyph>
    <TTGlyph name="exclam.case" xMin="71" yMin="0" xMax="161" yMax="688">
      <component glyphName="exclam" x="0" y="0" flags="0x0"/>
    </TTGlyph>
    <TTGlyph name="exclam.ss02" xMin="45" yMin="-8" xMax="749" yMax="696">
      <contour>
        <pt x="302" y="-8" on="0"/>
        <pt x="140" y="87" on="0"/>
        <pt x="45" y="249" on="0"/>
        <pt x="45" y="344" on="1"/>
        <pt x="45" y="439" on="0"/>
        <pt x="140" y="601" on="0"/>
        <pt x="302" y="696" on="0"/>
        <pt x="397" y="696" on="1"/>
        <pt x="492" y="696" on="0"/>
        <pt x="654" y="601" on="0"/>
        <pt x="749" y="439" on="0"/>
        <pt x="749" y="344" on="1"/>
        <pt x="749" y="249" on="0"/>
        <pt x="654" y="87" on="0"/>
        <pt x="492" y="-8" on="0"/>
        <pt x="397" y="-8" on="1"/>
      </contour>
      <contour>
        <pt x="480" y="37" on="0"/>
        <pt x="621" y="120" on="0"/>
        <pt x="704" y="261" on="0"/>
        <pt x="704" y="344" on="1"/>
        <pt x="704" y="427" on="0"/>
        <pt x="621" y="568" on="0"/>
        <pt x="480" y="651" on="0"/>
        <pt x="397" y="651" on="1"/>
        <pt x="314" y="651" on="0"/>
        <pt x="173" y="568" on="0"/>
        <pt x="90" y="427" on="0"/>
        <pt x="90" y="344" on="1"/>
        <pt x="90" y="261" on="0"/>
        <pt x="173" y="120" on="0"/>
        <pt x="314" y="37" on="0"/>
        <pt x="397" y="37" on="1"/>
      </contour>
      <contour>
        <pt x="372" y="303" on="0"/>
        <pt x="363" y="423" on="0"/>
        <pt x="363" y="480" on="1"/>
        <pt x="363" y="579" on="1"/>
        <pt x="431" y="579" on="1"/>
        <pt x="431" y="480" on="1"/>
        <pt x="431" y="423" on="0"/>
        <pt x="422" y="303" on="0"/>
        <pt x="417" y="268" on="1"/>
        <pt x="377" y="268" on="1"/>
      </contour>
      <contour>
        <pt x="363" y="191" on="1"/>
        <pt x="431" y="191" on="1"/>
        <pt x="431" y="109" on="1"/>
        <pt x="363" y="109" on="1"/>
      </contour>
    </TTGlyph>
    <TTGlyph name="exclamdbl" xMin="71" yMin="0" xMax="353" yMax="688">
      <component glyphName="exclam" x="192" y="0" flags="0x0"/>
      <component glyphName="exclam" x="0" y="0" flags="0x0"/>
    </TTGlyph>
    <TTGlyph name="exclamdown" xMin="67" yMin="-178" xMax="156" yMax="510">
      <contour>
        <pt x="67" y="510" on="1"/>
        <pt x="156" y="510" on="1"/>
        <pt x="156" y="416" on="1"/>
        <pt x="67" y="416" on="1"/>
      </contour>
      <contour>
        <pt x="67" y="-76" on="1"/>
        <pt x="67" y="-45" on="0"/>
        <pt x="76" y="153" on="1"/>
        <pt x="78" y="189" on="0"/>
        <pt x="83" y="296" on="0"/>
        <pt x="83" y="316" on="1"/>
        <pt x="140" y="316" on="1"/>
        <pt x="146" y="183" on="1"/>
        <pt x="148" y="144" on="0"/>
        <pt x="156" y="-39" on="0"/>
        <pt x="156" y="-76" on="1"/>
        <pt x="156" y="-178" on="1"/>
        <pt x="67" y="-178" on="1"/>
      </contour>
    </TTGlyph>
    <TTGlyph name="exclamdown.case" xMin="67" yMin="0" xMax="156" yMax="688">
      <component glyphName="exclamdown" x="0" y="178" flags="0x4"/>
    </TTGlyph>
    <TTGlyph name="f" xMin="23" yMin="0" xMax="301" yMax="743">
      <contour>
        <pt x="112" y="444" on="1"/>
        <pt x="23" y="444" on="1"/>
        <pt x="23" y="510" on="1"/>
        <pt x="112" y="510" on="1"/>
        <pt x="112" y="592" on="1"/>
        <pt x="112" y="661" on="0"/>
        <pt x="148" y="725" on="0"/>
        <pt x="223" y="743" on="0"/>
        <pt x="301" y="743" on="1"/>
        <pt x="301" y="683" on="1"/>
        <pt x="252" y="683" on="0"/>
        <pt x="206" y="672" on="0"/>
        <pt x="188" y="640" on="0"/>
        <pt x="188" y="606" on="1"/>
        <pt x="188" y="510" on="1"/>
        <pt x="301" y="510" on="1"/>
        <pt x="301" y="444" on="1"/>
        <pt x="188" y="444" on="1"/>
        <pt x="188" y="0" on="1"/>
        <pt x="112" y="0" on="1"/>
      </contour>
    </TTGlyph>
    <TTGlyph name="f_f" xMin="23" yMin="0" xMax="628" yMax="743">
      <component glyphName="f" x="0" y="0" flags="0x0"/>
      <component glyphName="f" x="327" y="0" flags="0x0"/>
    </TTGlyph>
    <TTGlyph name="fi" xMin="23" yMin="0" xMax="481" yMax="743">
      <component glyphName="f" x="0" y="0" flags="0x0"/>
      <component glyphName="i" x="327" y="0" flags="0x0"/>
    </TTGlyph>
    <TTGlyph name="five" xMin="69" yMin="-8" xMax="477" yMax="688">
      <contour>
        <pt x="177" y="63" on="0"/>
        <pt x="239" y="63" on="1"/>
        <pt x="305" y="63" on="0"/>
        <pt x="371" y="88" on="0"/>
        <pt x="396" y="147" on="0"/>
        <pt x="396" y="203" on="1"/>
        <pt x="396" y="264" on="0"/>
        <pt x="369" y="319" on="0"/>
        <pt x="301" y="338" on="0"/>
        <pt x="227" y="338" on="1"/>
        <pt x="164" y="338" on="0"/>
        <pt x="75" y="325" on="1"/>
        <pt x="75" y="688" on="1"/>
        <pt x="434" y="688" on="1"/>
        <pt x="434" y="617" on="1"/>
        <pt x="150" y="617" on="1"/>
        <pt x="150" y="400" on="1"/>
        <pt x="208" y="409" on="0"/>
        <pt x="278" y="409" on="1"/>
        <pt x="361" y="409" on="0"/>
        <pt x="447" y="366" on="0"/>
        <pt x="477" y="283" on="0"/>
        <pt x="477" y="213" on="1"/>
        <pt x="477" y="129" on="0"/>
        <pt x="439" y="35" on="0"/>
        <pt x="342" y="-8" on="0"/>
        <pt x="249" y="-8" on="1"/>
        <pt x="209" y="-8" on="0"/>
        <pt x="107" y="1" on="0"/>
        <pt x="69" y="8" on="1"/>
        <pt x="69" y="74" on="1"/>
      </contour>
    </TTGlyph>
    <TTGlyph name="five.dnom" xMin="43" yMin="-4" xMax="285" yMax="378">
      <contour>
        <pt x="107" y="45" on="0"/>
        <pt x="140" y="45" on="1"/>
        <pt x="177" y="45" on="0"/>
        <pt x="215" y="57" on="0"/>
        <pt x="229" y="85" on="0"/>
        <pt x="229" y="114" on="1"/>
        <pt x="229" y="144" on="0"/>
        <pt x="213" y="171" on="0"/>
        <pt x="174" y="181" on="0"/>
        <pt x="134" y="181" on="1"/>
        <pt x="106" y="181" on="0"/>
        <pt x="46" y="175" on="1"/>
        <pt x="46" y="378" on="1"/>
        <pt x="261" y="378" on="1"/>
        <pt x="261" y="328" on="1"/>
        <pt x="99" y="328" on="1"/>
        <pt x="99" y="225" on="1"/>
        <pt x="127" y="230" on="0"/>
        <pt x="170" y="230" on="1"/>
        <pt x="218" y="230" on="0"/>
        <pt x="268" y="205" on="0"/>
        <pt x="285" y="158" on="0"/>
        <pt x="285" y="120" on="1"/>
        <pt x="285" y="74" on="0"/>
        <pt x="263" y="21" on="0"/>
        <pt x="204" y="-4" on="0"/>
        <pt x="150" y="-4" on="1"/>
        <pt x="99" y="-4" on="0"/>
        <pt x="43" y="5" on="1"/>
        <pt x="43" y="51" on="1"/>
      </contour>
    </TTGlyph>
    <TTGlyph name="five.numr" xMin="43" yMin="304" xMax="285" yMax="686">
      <contour>
        <pt x="107" y="353" on="0"/>
        <pt x="140" y="353" on="1"/>
        <pt x="177" y="353" on="0"/>
        <pt x="215" y="365" on="0"/>
        <pt x="229" y="393" on="0"/>
        <pt x="229" y="422" on="1"/>
        <pt x="229" y="452" on="0"/>
        <pt x="213" y="479" on="0"/>
        <pt x="174" y="489" on="0"/>
        <pt x="134" y="489" on="1"/>
        <pt x="106" y="489" on="0"/>
        <pt x="46" y="483" on="1"/>
        <pt x="46" y="686" on="1"/>
        <pt x="261" y="686" on="1"/>
        <pt x="261" y="636" on="1"/>
        <pt x="99" y="636" on="1"/>
        <pt x="99" y="533" on="1"/>
        <pt x="127" y="538" on="0"/>
        <pt x="170" y="538" on="1"/>
        <pt x="218" y="538" on="0"/>
        <pt x="268" y="513" on="0"/>
        <pt x="285" y="466" on="0"/>
        <pt x="285" y="428" on="1"/>
        <pt x="285" y="382" on="0"/>
        <pt x="263" y="329" on="0"/>
        <pt x="204" y="304" on="0"/>
        <pt x="150" y="304" on="1"/>
        <pt x="99" y="304" on="0"/>
        <pt x="43" y="313" on="1"/>
        <pt x="43" y="359" on="1"/>
      </contour>
    </TTGlyph>
    <TTGlyph name="five.tnum" xMin="89" yMin="-8" xMax="497" yMax="688">
      <contour>
        <pt x="197" y="63" on="0"/>
        <pt x="259" y="63" on="1"/>
        <pt x="325" y="63" on="0"/>
        <pt x="392" y="88" on="0"/>
        <pt x="417" y="147" on="0"/>
        <pt x="417" y="203" on="1"/>
        <pt x="417" y="264" on="0"/>
        <pt x="390" y="319" on="0"/>
        <pt x="321" y="338" on="0"/>
        <pt x="248" y="338" on="1"/>
        <pt x="185" y="338" on="0"/>
        <pt x="96" y="325" on="1"/>
        <pt x="96" y="688" on="1"/>
        <pt x="454" y="688" on="1"/>
        <pt x="454" y="617" on="1"/>
        <pt x="171" y="617" on="1"/>
        <pt x="171" y="400" on="1"/>
        <pt x="227" y="409" on="0"/>
        <pt x="298" y="409" on="1"/>
        <pt x="381" y="409" on="0"/>
        <pt x="467" y="366" on="0"/>
        <pt x="497" y="283" on="0"/>
        <pt x="497" y="213" on="1"/>
        <pt x="497" y="129" on="0"/>
        <pt x="459" y="35" on="0"/>
        <pt x="362" y="-8" on="0"/>
        <pt x="269" y="-8" on="1"/>
        <pt x="229" y="-8" on="0"/>
        <pt x="128" y="1" on="0"/>
        <pt x="89" y="8" on="1"/>
        <pt x="89" y="74" on="1"/>
      </contour>
    </TTGlyph>
    <TTGlyph name="fiveeighths" xMin="43" yMin="-4" xMax="758" yMax="688">
      <component glyphName="five.numr" x="0" y="0" flags="0x0"/>
      <component glyphName="fraction" x="320" y="0" flags="0x0"/>
      <component glyphName="eight.dnom" x="446" y="0" flags="0x0"/>
    </TTGlyph>
    <TTGlyph name="fl" xMin="23" yMin="0" xMax="478" yMax="743">
      <component glyphName="f" x="0" y="0" flags="0x0"/>
      <component glyphName="l" x="327" y="0" flags="0x0"/>
    </TTGlyph>
    <TTGlyph name="florin" xMin="-124" yMin="-191" xMax="376" yMax="742">
      <contour>
        <pt x="307" y="683" on="0"/>
        <pt x="258" y="664" on="0"/>
        <pt x="232" y="600" on="0"/>
        <pt x="215" y="520" on="1"/>
        <pt x="213" y="510" on="1"/>
        <pt x="326" y="510" on="1"/>
        <pt x="312" y="444" on="1"/>
        <pt x="199" y="444" on="1"/>
        <pt x="107" y="11" on="1"/>
        <pt x="86" y="-85" on="0"/>
        <pt x="37" y="-168" on="0"/>
        <pt x="-41" y="-191" on="0"/>
        <pt x="-124" y="-191" on="1"/>
        <pt x="-111" y="-132" on="1"/>
        <pt x="-63" y="-132" on="0"/>
        <pt x="-14" y="-120" on="0"/>
        <pt x="11" y="-85" on="0"/>
        <pt x="19" y="-47" on="1"/>
        <pt x="123" y="444" on="1"/>
        <pt x="34" y="444" on="1"/>
        <pt x="48" y="510" on="1"/>
        <pt x="137" y="510" on="1"/>
        <pt x="138" y="515" on="1"/>
        <pt x="161" y="623" on="0"/>
        <pt x="211" y="716" on="0"/>
        <pt x="291" y="742" on="0"/>
        <pt x="376" y="742" on="1"/>
        <pt x="363" y="683" on="1"/>
      </contour>
    </TTGlyph>
    <TTGlyph name="four" xMin="39" yMin="0" xMax="518" yMax="688">
      <contour>
        <pt x="351" y="161" on="1"/>
        <pt x="39" y="161" on="1"/>
        <pt x="39" y="224" on="1"/>
        <pt x="264" y="688" on="1"/>
        <pt x="350" y="688" on="1"/>
        <pt x="126" y="232" on="1"/>
        <pt x="352" y="232" on="1"/>
        <pt x="368" y="480" on="1"/>
        <pt x="431" y="480" on="1"/>
        <pt x="431" y="232" on="1"/>
        <pt x="518" y="232" on="1"/>
        <pt x="518" y="161" on="1"/>
        <pt x="431" y="161" on="1"/>
        <pt x="431" y="0" on="1"/>
        <pt x="351" y="0" on="1"/>
      </contour>
    </TTGlyph>
    <TTGlyph name="four.dnom" xMin="23" yMin="0" xMax="307" yMax="378">
      <contour>
        <pt x="202" y="84" on="1"/>
        <pt x="23" y="84" on="1"/>
        <pt x="23" y="127" on="1"/>
        <pt x="145" y="378" on="1"/>
        <pt x="205" y="378" on="1"/>
        <pt x="83" y="133" on="1"/>
        <pt x="203" y="133" on="1"/>
        <pt x="216" y="254" on="1"/>
        <pt x="258" y="254" on="1"/>
        <pt x="258" y="133" on="1"/>
        <pt x="307" y="133" on="1"/>
        <pt x="307" y="84" on="1"/>
        <pt x="258" y="84" on="1"/>
        <pt x="258" y="0" on="1"/>
        <pt x="202" y="0" on="1"/>
      </contour>
    </TTGlyph>
    <TTGlyph name="four.numr" xMin="23" yMin="308" xMax="307" yMax="686">
      <component glyphName="four.dnom" x="0" y="308" flags="0x4"/>
    </TTGlyph>
    <TTGlyph name="four.ss01" xMin="39" yMin="0" xMax="518" yMax="688">
      <contour>
        <pt x="351" y="161" on="1"/>
        <pt x="39" y="161" on="1"/>
        <pt x="39" y="225" on="1"/>
        <pt x="322" y="688" on="1"/>
        <pt x="431" y="688" on="1"/>
        <pt x="431" y="232" on="1"/>
        <pt x="518" y="232" on="1"/>
        <pt x="518" y="161" on="1"/>
        <pt x="431" y="161" on="1"/>
        <pt x="431" y="0" on="1"/>
        <pt x="351" y="0" on="1"/>
      </contour>
      <contour>
        <pt x="352" y="232" on="1"/>
        <pt x="352" y="602" on="1"/>
        <pt x="351" y="602" on="1"/>
        <pt x="122" y="232" on="1"/>
      </contour>
    </TTGlyph>
    <TTGlyph name="four.tnum" xMin="45" yMin="0" xMax="529" yMax="688">
      <contour>
        <pt x="362" y="161" on="1"/>
        <pt x="45" y="161" on="1"/>
        <pt x="45" y="224" on="1"/>
        <pt x="273" y="688" on="1"/>
        <pt x="361" y="688" on="1"/>
        <pt x="132" y="232" on="1"/>
        <pt x="362" y="232" on="1"/>
        <pt x="378" y="480" on="1"/>
        <pt x="442" y="480" on="1"/>
        <pt x="442" y="232" on="1"/>
        <pt x="529" y="232" on="1"/>
        <pt x="529" y="161" on="1"/>
        <pt x="442" y="161" on="1"/>
        <pt x="442" y="0" on="1"/>
        <pt x="362" y="0" on="1"/>
      </contour>
    </TTGlyph>
    <TTGlyph name="fraction" xMin="-164" yMin="0" xMax="290" yMax="688">
      <contour>
        <pt x="231" y="688" on="1"/>
        <pt x="290" y="688" on="1"/>
        <pt x="-105" y="0" on="1"/>
        <pt x="-164" y="0" on="1"/>
      </contour>
    </TTGlyph>
    <TTGlyph name="g" xMin="56" yMin="-203" xMax="447" yMax="518">
      <contour>
        <pt x="149" y="-203" on="0"/>
        <pt x="81" y="-194" on="1"/>
        <pt x="81" y="-132" on="1"/>
        <pt x="159" y="-137" on="0"/>
        <pt x="224" y="-137" on="1"/>
        <pt x="292" y="-137" on="0"/>
        <pt x="352" y="-108" on="0"/>
        <pt x="371" y="-34" on="0"/>
        <pt x="371" y="48" on="1"/>
        <pt x="371" y="66" on="1"/>
        <pt x="366" y="66" on="1"/>
        <pt x="350" y="28" on="0"/>
        <pt x="280" y="-5" on="0"/>
        <pt x="224" y="-5" on="1"/>
        <pt x="155" y="-5" on="0"/>
        <pt x="84" y="40" on="0"/>
        <pt x="56" y="149" on="0"/>
        <pt x="56" y="255" on="1"/>
        <pt x="56" y="362" on="0"/>
        <pt x="85" y="473" on="0"/>
        <pt x="156" y="518" on="0"/>
        <pt x="224" y="518" on="1"/>
        <pt x="277" y="518" on="0"/>
        <pt x="353" y="484" on="0"/>
        <pt x="370" y="438" on="1"/>
        <pt x="375" y="438" on="1"/>
        <pt x="379" y="510" on="1"/>
        <pt x="447" y="510" on="1"/>
        <pt x="447" y="69" on="1"/>
        <pt x="447" y="-40" on="0"/>
        <pt x="419" y="-151" on="0"/>
        <pt x="331" y="-203" on="0"/>
        <pt x="239" y="-203" on="1"/>
      </contour>
      <contour>
        <pt x="297" y="63" on="0"/>
        <pt x="348" y="91" on="0"/>
        <pt x="358" y="122" on="1"/>
        <pt x="366" y="145" on="0"/>
        <pt x="371" y="204" on="0"/>
        <pt x="371" y="256" on="1"/>
        <pt x="371" y="304" on="0"/>
        <pt x="367" y="362" on="0"/>
        <pt x="360" y="383" on="1"/>
        <pt x="349" y="418" on="0"/>
        <pt x="298" y="449" on="0"/>
        <pt x="253" y="449" on="1"/>
        <pt x="197" y="449" on="0"/>
        <pt x="149" y="424" on="0"/>
        <pt x="133" y="347" on="0"/>
        <pt x="133" y="256" on="1"/>
        <pt x="133" y="166" on="0"/>
        <pt x="149" y="88" on="0"/>
        <pt x="197" y="63" on="0"/>
        <pt x="253" y="63" on="1"/>
      </contour>
    </TTGlyph>
    <TTGlyph name="g_tilde.loclGUA" xMin="56" yMin="-203" xMax="447" yMax="743">
      <component glyphName="g" x="0" y="0" flags="0x0"/>
      <component glyphName="tildecomb" x="436" y="0" flags="0x0"/>
    </TTGlyph>
    <TTGlyph name="gbreve" xMin="56" yMin="-203" xMax="447" yMax="743">
      <component glyphName="g" x="0" y="0" flags="0x0"/>
      <component glyphName="uni0306" x="400" y="0" flags="0x0"/>
    </TTGlyph>
    <TTGlyph name="gcaron" xMin="56" yMin="-203" xMax="447" yMax="743">
      <component glyphName="g" x="0" y="0" flags="0x0"/>
      <component glyphName="uni030C" x="405" y="0" flags="0x0"/>
    </TTGlyph>
    <TTGlyph name="gcircumflex" xMin="56" yMin="-203" xMax="447" yMax="743">
      <component glyphName="g" x="0" y="0" flags="0x0"/>
      <component glyphName="uni0302" x="405" y="0" flags="0x0"/>
    </TTGlyph>
    <TTGlyph name="gcommaaccent" xMin="56" yMin="-203" xMax="447" yMax="801">
      <component glyphName="g" x="0" y="0" flags="0x0"/>
      <component glyphName="uni0312" x="626" y="0" flags="0x0"/>
    </TTGlyph>
    <TTGlyph name="gdotaccent" xMin="56" yMin="-203" xMax="447" yMax="730">
      <component glyphName="g" x="0" y="0" flags="0x0"/>
      <component glyphName="uni0307" x="314" y="0" flags="0x0"/>
    </TTGlyph>
    <TTGlyph name="germandbls" xMin="75" yMin="0" xMax="481" yMax="750">
      <contour>
        <pt x="233" y="0" on="1"/>
        <pt x="233" y="65" on="1"/>
        <pt x="278" y="65" on="1"/>
        <pt x="339" y="65" on="0"/>
        <pt x="388" y="85" on="0"/>
        <pt x="405" y="154" on="0"/>
        <pt x="405" y="239" on="1"/>
        <pt x="405" y="307" on="0"/>
        <pt x="384" y="376" on="0"/>
        <pt x="333" y="401" on="0"/>
        <pt x="284" y="401" on="1"/>
        <pt x="257" y="401" on="1"/>
        <pt x="257" y="467" on="1"/>
        <pt x="284" y="467" on="1"/>
        <pt x="348" y="467" on="0"/>
        <pt x="397" y="514" on="0"/>
        <pt x="397" y="573" on="1"/>
        <pt x="397" y="618" on="0"/>
        <pt x="375" y="665" on="0"/>
        <pt x="322" y="684" on="0"/>
        <pt x="274" y="684" on="1"/>
        <pt x="228" y="684" on="0"/>
        <pt x="176" y="661" on="0"/>
        <pt x="151" y="599" on="0"/>
        <pt x="151" y="539" on="1"/>
        <pt x="151" y="0" on="1"/>
        <pt x="75" y="0" on="1"/>
        <pt x="75" y="545" on="1"/>
        <pt x="75" y="619" on="0"/>
        <pt x="114" y="708" on="0"/>
        <pt x="202" y="750" on="0"/>
        <pt x="278" y="750" on="1"/>
        <pt x="353" y="750" on="0"/>
        <pt x="438" y="713" on="0"/>
        <pt x="473" y="639" on="0"/>
        <pt x="473" y="579" on="1"/>
        <pt x="473" y="515" on="0"/>
        <pt x="423" y="450" on="0"/>
        <pt x="369" y="440" on="1"/>
        <pt x="369" y="436" on="1"/>
        <pt x="427" y="425" on="0"/>
        <pt x="481" y="337" on="0"/>
        <pt x="481" y="242" on="1"/>
        <pt x="481" y="147" on="0"/>
        <pt x="453" y="47" on="0"/>
        <pt x="374" y="0" on="0"/>
        <pt x="294" y="0" on="1"/>
      </contour>
    </TTGlyph>
    <TTGlyph name="grave" xMin="13" yMin="602" xMax="174" yMax="743">
      <contour>
        <pt x="13" y="738" on="1"/>
        <pt x="13" y="743" on="1"/>
        <pt x="95" y="743" on="1"/>
        <pt x="174" y="607" on="1"/>
        <pt x="174" y="602" on="1"/>
        <pt x="117" y="602" on="1"/>
      </contour>
    </TTGlyph>
    <TTGlyph name="gravecomb" xMin="-175" yMin="602" xMax="-14" yMax="743">
      <contour>
        <pt x="-175" y="738" on="1"/>
        <pt x="-175" y="743" on="1"/>
        <pt x="-93" y="743" on="1"/>
        <pt x="-14" y="607" on="1"/>
        <pt x="-14" y="602" on="1"/>
        <pt x="-71" y="602" on="1"/>
      </contour>
    </TTGlyph>
    <TTGlyph name="gravecomb.case" xMin="-175" yMin="747" xMax="-14" yMax="888">
      <contour>
        <pt x="-175" y="883" on="1"/>
        <pt x="-175" y="888" on="1"/>
        <pt x="-93" y="888" on="1"/>
        <pt x="-14" y="752" on="1"/>
        <pt x="-14" y="747" on="1"/>
        <pt x="-71" y="747" on="1"/>
      </contour>
    </TTGlyph>
    <TTGlyph name="greater" xMin="66" yMin="55" xMax="446" yMax="451">
      <contour>
        <pt x="66" y="122" on="1"/>
        <pt x="378" y="253" on="1"/>
        <pt x="66" y="383" on="1"/>
        <pt x="66" y="451" on="1"/>
        <pt x="446" y="290" on="1"/>
        <pt x="446" y="215" on="1"/>
        <pt x="66" y="55" on="1"/>
      </contour>
    </TTGlyph>
    <TTGlyph name="greaterequal" xMin="66" yMin="14" xMax="446" yMax="576">
      <contour>
        <pt x="66" y="248" on="1"/>
        <pt x="379" y="378" on="1"/>
        <pt x="66" y="508" on="1"/>
        <pt x="66" y="576" on="1"/>
        <pt x="446" y="415" on="1"/>
        <pt x="446" y="340" on="1"/>
        <pt x="66" y="180" on="1"/>
      </contour>
      <contour>
        <pt x="66" y="79" on="1"/>
        <pt x="446" y="79" on="1"/>
        <pt x="446" y="14" on="1"/>
        <pt x="66" y="14" on="1"/>
      </contour>
    </TTGlyph>
    <TTGlyph name="guillemotleft" xMin="41" yMin="103" xMax="362" yMax="510">
      <contour>
        <pt x="41" y="306" on="1"/>
        <pt x="155" y="510" on="1"/>
        <pt x="210" y="510" on="1"/>
        <pt x="113" y="306" on="1"/>
        <pt x="210" y="103" on="1"/>
        <pt x="155" y="103" on="1"/>
      </contour>
      <contour>
        <pt x="192" y="306" on="1"/>
        <pt x="306" y="510" on="1"/>
        <pt x="362" y="510" on="1"/>
        <pt x="265" y="306" on="1"/>
        <pt x="362" y="103" on="1"/>
        <pt x="306" y="103" on="1"/>
      </contour>
    </TTGlyph>
    <TTGlyph name="guillemotright" xMin="61" yMin="103" xMax="382" yMax="510">
      <contour>
        <pt x="159" y="306" on="1"/>
        <pt x="61" y="510" on="1"/>
        <pt x="117" y="510" on="1"/>
        <pt x="231" y="306" on="1"/>
        <pt x="117" y="103" on="1"/>
        <pt x="61" y="103" on="1"/>
      </contour>
      <contour>
        <pt x="310" y="306" on="1"/>
        <pt x="213" y="510" on="1"/>
        <pt x="269" y="510" on="1"/>
        <pt x="382" y="306" on="1"/>
        <pt x="269" y="103" on="1"/>
        <pt x="213" y="103" on="1"/>
      </contour>
    </TTGlyph>
    <TTGlyph name="guilsinglleft" xMin="40" yMin="103" xMax="210" yMax="510">
      <contour>
        <pt x="40" y="306" on="1"/>
        <pt x="154" y="510" on="1"/>
        <pt x="210" y="510" on="1"/>
        <pt x="113" y="306" on="1"/>
        <pt x="210" y="103" on="1"/>
        <pt x="154" y="103" on="1"/>
      </contour>
    </TTGlyph>
    <TTGlyph name="guilsinglright" xMin="61" yMin="103" xMax="231" yMax="510">
      <contour>
        <pt x="159" y="306" on="1"/>
        <pt x="61" y="510" on="1"/>
        <pt x="117" y="510" on="1"/>
        <pt x="231" y="306" on="1"/>
        <pt x="117" y="103" on="1"/>
        <pt x="61" y="103" on="1"/>
      </contour>
    </TTGlyph>
    <TTGlyph name="h" xMin="75" yMin="0" xMax="454" yMax="743">
      <contour>
        <pt x="378" y="294" on="1"/>
        <pt x="378" y="367" on="0"/>
        <pt x="363" y="428" on="0"/>
        <pt x="320" y="448" on="0"/>
        <pt x="270" y="448" on="1"/>
        <pt x="215" y="448" on="0"/>
        <pt x="164" y="407" on="0"/>
        <pt x="151" y="333" on="0"/>
        <pt x="151" y="265" on="1"/>
        <pt x="151" y="0" on="1"/>
        <pt x="75" y="0" on="1"/>
        <pt x="75" y="743" on="1"/>
        <pt x="151" y="743" on="1"/>
        <pt x="151" y="445" on="1"/>
        <pt x="156" y="445" on="1"/>
        <pt x="171" y="479" on="0"/>
        <pt x="238" y="518" on="0"/>
        <pt x="301" y="518" on="1"/>
        <pt x="366" y="518" on="0"/>
        <pt x="431" y="478" on="0"/>
        <pt x="454" y="397" on="0"/>
        <pt x="454" y="323" on="1"/>
        <pt x="454" y="0" on="1"/>
        <pt x="378" y="0" on="1"/>
      </contour>
    </TTGlyph>
    <TTGlyph name="hbar" xMin="16" yMin="0" xMax="454" yMax="743">
      <contour>
        <pt x="366" y="518" on="0"/>
        <pt x="431" y="478" on="0"/>
        <pt x="454" y="397" on="0"/>
        <pt x="454" y="323" on="1"/>
        <pt x="454" y="0" on="1"/>
        <pt x="378" y="0" on="1"/>
        <pt x="378" y="294" on="1"/>
        <pt x="378" y="367" on="0"/>
        <pt x="363" y="428" on="0"/>
        <pt x="320" y="448" on="0"/>
        <pt x="270" y="448" on="1"/>
        <pt x="215" y="448" on="0"/>
        <pt x="164" y="407" on="0"/>
        <pt x="151" y="333" on="0"/>
        <pt x="151" y="265" on="1"/>
        <pt x="151" y="0" on="1"/>
        <pt x="75" y="0" on="1"/>
        <pt x="75" y="623" on="1"/>
        <pt x="16" y="623" on="1"/>
        <pt x="16" y="688" on="1"/>
        <pt x="75" y="688" on="1"/>
        <pt x="75" y="743" on="1"/>
        <pt x="151" y="743" on="1"/>
        <pt x="151" y="688" on="1"/>
        <pt x="276" y="688" on="1"/>
        <pt x="276" y="623" on="1"/>
        <pt x="151" y="623" on="1"/>
        <pt x="151" y="445" on="1"/>
        <pt x="156" y="445" on="1"/>
        <pt x="171" y="479" on="0"/>
        <pt x="238" y="518" on="0"/>
        <pt x="301" y="518" on="1"/>
      </contour>
    </TTGlyph>
    <TTGlyph name="hcircumflex" xMin="-18" yMin="0" xMax="454" yMax="921">
      <component glyphName="h" x="0" y="0" flags="0x0"/>
      <component glyphName="uni0302" x="258" y="178" flags="0x4"/>
    </TTGlyph>
    <TTGlyph name="hookabovecomb" xMin="-246" yMin="608" xMax="-23" yMax="801">
      <contour>
        <pt x="-185" y="620" on="1"/>
        <pt x="-185" y="645" on="0"/>
        <pt x="-167" y="665" on="0"/>
        <pt x="-142" y="673" on="1"/>
        <pt x="-123" y="679" on="1"/>
        <pt x="-95" y="687" on="0"/>
        <pt x="-78" y="702" on="0"/>
        <pt x="-78" y="719" on="1"/>
        <pt x="-78" y="741" on="0"/>
        <pt x="-106" y="752" on="0"/>
        <pt x="-150" y="752" on="1"/>
        <pt x="-193" y="752" on="0"/>
        <pt x="-246" y="747" on="1"/>
        <pt x="-246" y="793" on="1"/>
        <pt x="-186" y="801" on="0"/>
        <pt x="-142" y="801" on="1"/>
        <pt x="-77" y="801" on="0"/>
        <pt x="-23" y="769" on="0"/>
        <pt x="-23" y="724" on="1"/>
        <pt x="-23" y="692" on="0"/>
        <pt x="-44" y="662" on="0"/>
        <pt x="-76" y="651" on="1"/>
        <pt x="-97" y="644" on="1"/>
        <pt x="-116" y="638" on="0"/>
        <pt x="-131" y="630" on="0"/>
        <pt x="-135" y="620" on="0"/>
        <pt x="-135" y="608" on="1"/>
        <pt x="-185" y="608" on="1"/>
      </contour>
    </TTGlyph>
    <TTGlyph name="hookabovecomb.case" xMin="-246" yMin="730" xMax="-23" yMax="923">
      <contour>
        <pt x="-185" y="741" on="1"/>
        <pt x="-185" y="767" on="0"/>
        <pt x="-168" y="786" on="0"/>
        <pt x="-142" y="795" on="1"/>
        <pt x="-123" y="801" on="1"/>
        <pt x="-95" y="809" on="0"/>
        <pt x="-78" y="824" on="0"/>
        <pt x="-78" y="840" on="1"/>
        <pt x="-78" y="862" on="0"/>
        <pt x="-106" y="874" on="0"/>
        <pt x="-150" y="874" on="1"/>
        <pt x="-198" y="874" on="0"/>
        <pt x="-246" y="868" on="1"/>
        <pt x="-246" y="915" on="1"/>
        <pt x="-186" y="923" on="0"/>
        <pt x="-142" y="923" on="1"/>
        <pt x="-78" y="923" on="0"/>
        <pt x="-23" y="891" on="0"/>
        <pt x="-23" y="846" on="1"/>
        <pt x="-23" y="814" on="0"/>
        <pt x="-44" y="783" on="0"/>
        <pt x="-76" y="772" on="1"/>
        <pt x="-97" y="765" on="1"/>
        <pt x="-117" y="759" on="0"/>
        <pt x="-131" y="751" on="0"/>
        <pt x="-135" y="742" on="0"/>
        <pt x="-135" y="730" on="1"/>
        <pt x="-185" y="730" on="1"/>
      </contour>
    </TTGlyph>
    <TTGlyph name="house" xMin="44" yMin="0" xMax="594" yMax="696">
      <contour>
        <pt x="44" y="394" on="1"/>
        <pt x="287" y="696" on="1"/>
        <pt x="351" y="696" on="1"/>
        <pt x="594" y="394" on="1"/>
        <pt x="594" y="0" on="1"/>
        <pt x="44" y="0" on="1"/>
      </contour>
      <contour>
        <pt x="528" y="56" on="1"/>
        <pt x="529" y="378" on="1"/>
        <pt x="319" y="635" on="1"/>
        <pt x="110" y="378" on="1"/>
        <pt x="110" y="56" on="1"/>
      </contour>
    </TTGlyph>
    <TTGlyph name="hungarumlaut" xMin="18" yMin="608" xMax="330" yMax="736">
      <contour>
        <pt x="18" y="613" on="1"/>
        <pt x="93" y="736" on="1"/>
        <pt x="165" y="736" on="1"/>
        <pt x="165" y="732" on="1"/>
        <pt x="68" y="608" on="1"/>
        <pt x="18" y="608" on="1"/>
      </contour>
      <contour>
        <pt x="183" y="613" on="1"/>
        <pt x="258" y="736" on="1"/>
        <pt x="330" y="736" on="1"/>
        <pt x="330" y="732" on="1"/>
        <pt x="234" y="608" on="1"/>
        <pt x="183" y="608" on="1"/>
      </contour>
    </TTGlyph>
    <TTGlyph name="hyphen" xMin="58" yMin="250" xMax="276" yMax="321">
      <contour>
        <pt x="58" y="321" on="1"/>
        <pt x="276" y="321" on="1"/>
        <pt x="276" y="250" on="1"/>
        <pt x="58" y="250" on="1"/>
      </contour>
    </TTGlyph>
    <TTGlyph name="i" xMin="73" yMin="0" xMax="154" yMax="743">
      <contour>
        <pt x="73" y="743" on="1"/>
        <pt x="154" y="743" on="1"/>
        <pt x="154" y="656" on="1"/>
        <pt x="73" y="656" on="1"/>
      </contour>
      <contour>
        <pt x="75" y="510" on="1"/>
        <pt x="151" y="510" on="1"/>
        <pt x="151" y="0" on="1"/>
        <pt x="75" y="0" on="1"/>
      </contour>
    </TTGlyph>
    <TTGlyph name="i.loclTRK" xMin="75" yMin="0" xMax="151" yMax="730">
      <component glyphName="dotlessi" x="0" y="0" flags="0x0"/>
      <component glyphName="uni0307" x="167" y="0" flags="0x0"/>
    </TTGlyph>
    <TTGlyph name="iacute" xMin="75" yMin="0" xMax="236" yMax="743">
      <component glyphName="dotlessi" x="0" y="0" flags="0x0"/>
      <component glyphName="acute" x="62" y="0" flags="0x0"/>
    </TTGlyph>
    <TTGlyph name="iacute_j.loclNLD" xMin="75" yMin="-197" xMax="467" yMax="743">
      <component glyphName="dotlessi" x="0" y="0" flags="0x0"/>
      <component glyphName="acutecomb" x="254" y="0" flags="0x0"/>
      <component glyphName="uni0237" x="227" y="0" flags="0x0"/>
      <component glyphName="acutecomb" x="481" y="0" flags="0x0"/>
    </TTGlyph>
    <TTGlyph name="ibreve" xMin="-13" yMin="0" xMax="240" yMax="743">
      <component glyphName="dotlessi" x="0" y="0" flags="0x0"/>
      <component glyphName="uni0306" x="253" y="0" flags="0x0"/>
    </TTGlyph>
    <TTGlyph name="icircumflex" xMin="-18" yMin="0" xMax="245" yMax="743">
      <component glyphName="dotlessi" x="0" y="0" flags="0x0"/>
      <component glyphName="circumflex" x="-31" y="0" flags="0x0"/>
    </TTGlyph>
    <TTGlyph name="idieresis" xMin="-13" yMin="0" xMax="241" yMax="728">
      <component glyphName="dotlessi" x="0" y="0" flags="0x0"/>
      <component glyphName="dieresis" x="-32" y="-2" flags="0x4"/>
    </TTGlyph>
    <TTGlyph name="igrave" xMin="-9" yMin="0" xMax="152" yMax="743">
      <component glyphName="dotlessi" x="0" y="0" flags="0x0"/>
      <component glyphName="grave" x="-22" y="0" flags="0x0"/>
    </TTGlyph>
    <TTGlyph name="ij" xMin="73" yMin="-197" xMax="381" yMax="743">
      <component glyphName="i" x="0" y="0" flags="0x0"/>
      <component glyphName="j" x="227" y="0" flags="0x0"/>
    </TTGlyph>
    <TTGlyph name="imacron" xMin="5" yMin="0" xMax="223" yMax="742">
      <component glyphName="dotlessi" x="0" y="0" flags="0x0"/>
      <component glyphName="uni0304" x="282" y="0" flags="0x0"/>
    </TTGlyph>
    <TTGlyph name="infinity" xMin="59" yMin="50" xMax="859" yMax="462">
      <contour>
        <pt x="176" y="50" on="0"/>
        <pt x="92" y="97" on="0"/>
        <pt x="59" y="186" on="0"/>
        <pt x="59" y="256" on="1"/>
        <pt x="59" y="326" on="0"/>
        <pt x="92" y="415" on="0"/>
        <pt x="176" y="462" on="0"/>
        <pt x="252" y="462" on="1"/>
        <pt x="336" y="462" on="0"/>
        <pt x="430" y="390" on="0"/>
        <pt x="459" y="327" on="1"/>
        <pt x="488" y="390" on="0"/>
        <pt x="582" y="462" on="0"/>
        <pt x="667" y="462" on="1"/>
        <pt x="743" y="462" on="0"/>
        <pt x="827" y="415" on="0"/>
        <pt x="859" y="326" on="0"/>
        <pt x="859" y="256" on="1"/>
        <pt x="859" y="185" on="0"/>
        <pt x="827" y="97" on="0"/>
        <pt x="743" y="50" on="0"/>
        <pt x="667" y="50" on="1"/>
        <pt x="581" y="50" on="0"/>
        <pt x="488" y="121" on="0"/>
        <pt x="459" y="185" on="1"/>
        <pt x="430" y="121" on="0"/>
        <pt x="337" y="50" on="0"/>
        <pt x="252" y="50" on="1"/>
      </contour>
      <contour>
        <pt x="329" y="110" on="0"/>
        <pt x="403" y="188" on="0"/>
        <pt x="425" y="256" on="1"/>
        <pt x="403" y="324" on="0"/>
        <pt x="329" y="402" on="0"/>
        <pt x="255" y="402" on="1"/>
        <pt x="202" y="402" on="0"/>
        <pt x="145" y="369" on="0"/>
        <pt x="124" y="307" on="0"/>
        <pt x="124" y="256" on="1"/>
        <pt x="124" y="205" on="0"/>
        <pt x="145" y="142" on="0"/>
        <pt x="201" y="110" on="0"/>
        <pt x="255" y="110" on="1"/>
      </contour>
      <contour>
        <pt x="717" y="110" on="0"/>
        <pt x="773" y="142" on="0"/>
        <pt x="794" y="205" on="0"/>
        <pt x="794" y="256" on="1"/>
        <pt x="794" y="307" on="0"/>
        <pt x="773" y="369" on="0"/>
        <pt x="717" y="402" on="0"/>
        <pt x="664" y="402" on="1"/>
        <pt x="589" y="402" on="0"/>
        <pt x="514" y="324" on="0"/>
        <pt x="494" y="256" on="1"/>
        <pt x="514" y="188" on="0"/>
        <pt x="589" y="110" on="0"/>
        <pt x="664" y="110" on="1"/>
      </contour>
    </TTGlyph>
    <TTGlyph name="integral" xMin="52" yMin="-190" xMax="300" yMax="696">
      <contour>
        <pt x="52" y="-130" on="1"/>
        <pt x="95" y="-130" on="0"/>
        <pt x="140" y="-122" on="0"/>
        <pt x="158" y="-99" on="0"/>
        <pt x="158" y="-76" on="1"/>
        <pt x="154" y="-1" on="1"/>
        <pt x="119" y="537" on="1"/>
        <pt x="117" y="580" on="1"/>
        <pt x="117" y="633" on="0"/>
        <pt x="155" y="682" on="0"/>
        <pt x="229" y="696" on="0"/>
        <pt x="300" y="696" on="1"/>
        <pt x="300" y="636" on="1"/>
        <pt x="257" y="636" on="0"/>
        <pt x="213" y="627" on="0"/>
        <pt x="195" y="604" on="0"/>
        <pt x="195" y="580" on="1"/>
        <pt x="197" y="537" on="1"/>
        <pt x="232" y="-2" on="1"/>
        <pt x="235" y="-54" on="0"/>
        <pt x="235" y="-74" on="1"/>
        <pt x="235" y="-127" on="0"/>
        <pt x="196" y="-177" on="0"/>
        <pt x="123" y="-190" on="0"/>
        <pt x="52" y="-190" on="1"/>
      </contour>
    </TTGlyph>
    <TTGlyph name="iogonek" xMin="25" yMin="-196" xMax="152" yMax="730">
      <contour>
        <pt x="149" y="651" on="1"/>
        <pt x="77" y="651" on="1"/>
        <pt x="77" y="730" on="1"/>
        <pt x="149" y="730" on="1"/>
      </contour>
      <contour>
        <pt x="146" y="-145" on="0"/>
        <pt x="152" y="-144" on="1"/>
        <pt x="152" y="-194" on="1"/>
        <pt x="122" y="-196" on="0"/>
        <pt x="116" y="-196" on="1"/>
        <pt x="68" y="-196" on="0"/>
        <pt x="25" y="-154" on="0"/>
        <pt x="25" y="-120" on="1"/>
        <pt x="25" y="-90" on="0"/>
        <pt x="58" y="-26" on="0"/>
        <pt x="86" y="0" on="1"/>
        <pt x="75" y="0" on="1"/>
        <pt x="75" y="510" on="1"/>
        <pt x="151" y="510" on="1"/>
        <pt x="151" y="0" on="1"/>
        <pt x="129" y="-17" on="0"/>
        <pt x="90" y="-79" on="0"/>
        <pt x="90" y="-104" on="1"/>
        <pt x="90" y="-123" on="0"/>
        <pt x="112" y="-145" on="0"/>
        <pt x="135" y="-145" on="1"/>
      </contour>
    </TTGlyph>
    <TTGlyph name="itilde" xMin="-48" yMin="0" xMax="275" yMax="743">
      <component glyphName="dotlessi" x="0" y="0" flags="0x0"/>
      <component glyphName="tildecomb" x="289" y="0" flags="0x0"/>
    </TTGlyph>
    <TTGlyph name="j" xMin="-7" yMin="-197" xMax="154" yMax="743">
      <contour>
        <pt x="73" y="743" on="1"/>
        <pt x="154" y="743" on="1"/>
        <pt x="154" y="656" on="1"/>
        <pt x="73" y="656" on="1"/>
      </contour>
      <contour>
        <pt x="-7" y="-136" on="1"/>
        <pt x="31" y="-136" on="0"/>
        <pt x="65" y="-126" on="0"/>
        <pt x="75" y="-104" on="0"/>
        <pt x="75" y="-81" on="1"/>
        <pt x="75" y="510" on="1"/>
        <pt x="151" y="510" on="1"/>
        <pt x="151" y="-59" on="1"/>
        <pt x="151" y="-123" on="0"/>
        <pt x="122" y="-180" on="0"/>
        <pt x="59" y="-197" on="0"/>
        <pt x="-7" y="-197" on="1"/>
      </contour>
    </TTGlyph>
    <TTGlyph name="jcircumflex" xMin="-18" yMin="-197" xMax="245" yMax="743">
      <component glyphName="uni0237" x="0" y="0" flags="0x0"/>
      <component glyphName="uni0302" x="258" y="0" flags="0x0"/>
    </TTGlyph>
    <TTGlyph name="k" xMin="75" yMin="0" xMax="449" yMax="743">
      <contour>
        <pt x="210" y="224" on="1"/>
        <pt x="151" y="224" on="1"/>
        <pt x="151" y="0" on="1"/>
        <pt x="75" y="0" on="1"/>
        <pt x="75" y="743" on="1"/>
        <pt x="151" y="743" on="1"/>
        <pt x="151" y="291" on="1"/>
        <pt x="210" y="291" on="1"/>
        <pt x="363" y="510" on="1"/>
        <pt x="446" y="510" on="1"/>
        <pt x="272" y="263" on="1"/>
        <pt x="449" y="0" on="1"/>
        <pt x="363" y="0" on="1"/>
      </contour>
    </TTGlyph>
    <TTGlyph name="kcommaaccent" xMin="75" yMin="-260" xMax="449" yMax="743">
      <component glyphName="k" x="0" y="0" flags="0x0"/>
      <component glyphName="uni0326" x="345" y="0" flags="0x0"/>
    </TTGlyph>
    <TTGlyph name="kgreenlandic" xMin="75" yMin="0" xMax="449" yMax="510">
      <contour>
        <pt x="210" y="224" on="1"/>
        <pt x="151" y="224" on="1"/>
        <pt x="151" y="0" on="1"/>
        <pt x="75" y="0" on="1"/>
        <pt x="75" y="510" on="1"/>
        <pt x="151" y="510" on="1"/>
        <pt x="151" y="291" on="1"/>
        <pt x="210" y="291" on="1"/>
        <pt x="363" y="510" on="1"/>
        <pt x="446" y="510" on="1"/>
        <pt x="272" y="263" on="1"/>
        <pt x="449" y="0" on="1"/>
        <pt x="363" y="0" on="1"/>
      </contour>
    </TTGlyph>
    <TTGlyph name="l" xMin="75" yMin="0" xMax="151" yMax="743">
      <contour>
        <pt x="75" y="743" on="1"/>
        <pt x="151" y="743" on="1"/>
        <pt x="151" y="0" on="1"/>
        <pt x="75" y="0" on="1"/>
      </contour>
    </TTGlyph>
    <TTGlyph name="lacute" xMin="75" yMin="0" xMax="240" yMax="921">
      <component glyphName="l" x="0" y="0" flags="0x0"/>
      <component glyphName="acutecomb" x="254" y="178" flags="0x4"/>
    </TTGlyph>
    <TTGlyph name="lcaron" xMin="75" yMin="0" xMax="279" yMax="743">
      <component glyphName="l" x="0" y="0" flags="0x0"/>
      <component glyphName="caron.loclCSY" x="148" y="0" flags="0x0"/>
    </TTGlyph>
</ttFont>
